<ttFont>
    <TTGlyph name="A" xMin="32" yMin="0" xMax="530" yMax="700">
      <contour>
        <pt x="32" y="0" on="1"/>
        <pt x="403" y="700" on="1"/>
        <pt x="492" y="700" on="1"/>
        <pt x="530" y="0" on="1"/>
        <pt x="494" y="0" on="1"/>
        <pt x="482" y="216" on="1"/>
        <pt x="183" y="216" on="1"/>
        <pt x="69" y="0" on="1"/>
      </contour>
      <contour>
        <pt x="423" y="667" on="1"/>
        <pt x="201" y="248" on="1"/>
        <pt x="480" y="248" on="1"/>
        <pt x="459" y="667" on="1"/>
      </contour>
    </TTGlyph>
    <TTGlyph name="AE" xMin="32" yMin="0" xMax="913" yMax="700">
      <contour>
        <pt x="372" y="0" on="1"/>
        <pt x="421" y="215" on="1"/>
        <pt x="181" y="215" on="1"/>
        <pt x="67" y="0" on="1"/>
        <pt x="32" y="0" on="1"/>
        <pt x="402" y="700" on="1"/>
        <pt x="913" y="700" on="1"/>
        <pt x="907" y="667" on="1"/>
        <pt x="564" y="669" on="1"/>
        <pt x="493" y="376" on="1"/>
        <pt x="780" y="376" on="1"/>
        <pt x="774" y="343" on="1"/>
        <pt x="487" y="343" on="1"/>
        <pt x="414" y="33" on="1"/>
        <pt x="755" y="33" on="1"/>
        <pt x="749" y="0" on="1"/>
      </contour>
      <contour>
        <pt x="418" y="667" on="1"/>
        <pt x="197" y="247" on="1"/>
        <pt x="428" y="247" on="1"/>
        <pt x="530" y="667" on="1"/>
      </contour>
    </TTGlyph>
    <TTGlyph name="AEacute" xMin="32" yMin="0" xMax="913" yMax="919">
      <contour>
        <pt x="372" y="0" on="1"/>
        <pt x="421" y="215" on="1"/>
        <pt x="181" y="215" on="1"/>
        <pt x="67" y="0" on="1"/>
        <pt x="32" y="0" on="1"/>
        <pt x="402" y="700" on="1"/>
        <pt x="913" y="700" on="1"/>
        <pt x="907" y="667" on="1"/>
        <pt x="564" y="669" on="1"/>
        <pt x="493" y="376" on="1"/>
        <pt x="780" y="376" on="1"/>
        <pt x="774" y="343" on="1"/>
        <pt x="487" y="343" on="1"/>
        <pt x="414" y="33" on="1"/>
        <pt x="755" y="33" on="1"/>
        <pt x="749" y="0" on="1"/>
      </contour>
      <contour>
        <pt x="418" y="667" on="1"/>
        <pt x="197" y="247" on="1"/>
        <pt x="428" y="247" on="1"/>
        <pt x="530" y="667" on="1"/>
      </contour>
      <contour>
        <pt x="582" y="798" on="1"/>
        <pt x="574" y="823" on="1"/>
        <pt x="778" y="919" on="1"/>
        <pt x="787" y="890" on="1"/>
      </contour>
    </TTGlyph>
    <TTGlyph name="Aacute" xMin="32" yMin="0" xMax="616" yMax="919">
      <contour>
        <pt x="411" y="798" on="1"/>
        <pt x="403" y="823" on="1"/>
        <pt x="607" y="919" on="1"/>
        <pt x="616" y="890" on="1"/>
      </contour>
      <contour>
        <pt x="32" y="0" on="1"/>
        <pt x="403" y="700" on="1"/>
        <pt x="492" y="700" on="1"/>
        <pt x="530" y="0" on="1"/>
        <pt x="494" y="0" on="1"/>
        <pt x="482" y="216" on="1"/>
        <pt x="183" y="216" on="1"/>
        <pt x="69" y="0" on="1"/>
      </contour>
      <contour>
        <pt x="423" y="667" on="1"/>
        <pt x="201" y="248" on="1"/>
        <pt x="480" y="248" on="1"/>
        <pt x="459" y="667" on="1"/>
      </contour>
    </TTGlyph>
    <TTGlyph name="Abreve" xMin="32" yMin="0" xMax="613" yMax="920">
      <contour>
        <pt x="393" y="920" on="1"/>
        <pt x="390" y="905" on="0"/>
        <pt x="390" y="866" on="0"/>
        <pt x="423" y="833" on="0"/>
        <pt x="507" y="833" on="0"/>
        <pt x="573" y="881" on="0"/>
        <pt x="583" y="920" on="1"/>
        <pt x="613" y="920" on="1"/>
        <pt x="599" y="864" on="0"/>
        <pt x="516" y="803" on="0"/>
        <pt x="460" y="803" on="1"/>
        <pt x="360" y="803" on="0"/>
        <pt x="360" y="886" on="1"/>
        <pt x="360" y="902" on="0"/>
        <pt x="363" y="920" on="1"/>
      </contour>
      <contour>
        <pt x="32" y="0" on="1"/>
        <pt x="403" y="700" on="1"/>
        <pt x="492" y="700" on="1"/>
        <pt x="530" y="0" on="1"/>
        <pt x="494" y="0" on="1"/>
        <pt x="482" y="216" on="1"/>
        <pt x="183" y="216" on="1"/>
        <pt x="69" y="0" on="1"/>
      </contour>
      <contour>
        <pt x="423" y="667" on="1"/>
        <pt x="201" y="248" on="1"/>
        <pt x="480" y="248" on="1"/>
        <pt x="459" y="667" on="1"/>
      </contour>
    </TTGlyph>
    <TTGlyph name="Acircumflex" xMin="32" yMin="0" xMax="591" yMax="931">
      <contour>
        <pt x="324" y="803" on="1"/>
        <pt x="480" y="931" on="1"/>
        <pt x="494" y="931" on="1"/>
        <pt x="591" y="803" on="1"/>
        <pt x="557" y="803" on="1"/>
        <pt x="484" y="900" on="1"/>
        <pt x="365" y="803" on="1"/>
      </contour>
      <contour>
        <pt x="32" y="0" on="1"/>
        <pt x="403" y="700" on="1"/>
        <pt x="492" y="700" on="1"/>
        <pt x="530" y="0" on="1"/>
        <pt x="494" y="0" on="1"/>
        <pt x="482" y="216" on="1"/>
        <pt x="183" y="216" on="1"/>
        <pt x="69" y="0" on="1"/>
      </contour>
      <contour>
        <pt x="423" y="667" on="1"/>
        <pt x="201" y="248" on="1"/>
        <pt x="480" y="248" on="1"/>
        <pt x="459" y="667" on="1"/>
      </contour>
    </TTGlyph>
    <TTGlyph name="Adieresis" xMin="32" yMin="0" xMax="587" yMax="897">
      <contour>
        <pt x="363" y="831" on="1"/>
        <pt x="377" y="897" on="1"/>
        <pt x="407" y="897" on="1"/>
        <pt x="390" y="831" on="1"/>
      </contour>
      <contour>
        <pt x="542" y="831" on="1"/>
        <pt x="558" y="897" on="1"/>
        <pt x="587" y="897" on="1"/>
        <pt x="571" y="831" on="1"/>
      </contour>
      <contour>
        <pt x="32" y="0" on="1"/>
        <pt x="403" y="700" on="1"/>
        <pt x="492" y="700" on="1"/>
        <pt x="530" y="0" on="1"/>
        <pt x="494" y="0" on="1"/>
        <pt x="482" y="216" on="1"/>
        <pt x="183" y="216" on="1"/>
        <pt x="69" y="0" on="1"/>
      </contour>
      <contour>
        <pt x="423" y="667" on="1"/>
        <pt x="201" y="248" on="1"/>
        <pt x="480" y="248" on="1"/>
        <pt x="459" y="667" on="1"/>
      </contour>
    </TTGlyph>
    <TTGlyph name="Agrave" xMin="32" yMin="0" xMax="530" yMax="917">
      <contour>
        <pt x="350" y="917" on="1"/>
        <pt x="510" y="820" on="1"/>
        <pt x="495" y="798" on="1"/>
        <pt x="333" y="890" on="1"/>
      </contour>
      <contour>
        <pt x="32" y="0" on="1"/>
        <pt x="403" y="700" on="1"/>
        <pt x="492" y="700" on="1"/>
        <pt x="530" y="0" on="1"/>
        <pt x="494" y="0" on="1"/>
        <pt x="482" y="216" on="1"/>
        <pt x="183" y="216" on="1"/>
        <pt x="69" y="0" on="1"/>
      </contour>
      <contour>
        <pt x="423" y="667" on="1"/>
        <pt x="201" y="248" on="1"/>
        <pt x="480" y="248" on="1"/>
        <pt x="459" y="667" on="1"/>
      </contour>
    </TTGlyph>
    <TTGlyph name="Amacron" xMin="32" yMin="0" xMax="610" yMax="871">
      <contour>
        <pt x="333" y="845" on="1"/>
        <pt x="338" y="871" on="1"/>
        <pt x="610" y="871" on="1"/>
        <pt x="603" y="845" on="1"/>
      </contour>
      <contour>
        <pt x="32" y="0" on="1"/>
        <pt x="403" y="700" on="1"/>
        <pt x="492" y="700" on="1"/>
        <pt x="530" y="0" on="1"/>
        <pt x="494" y="0" on="1"/>
        <pt x="482" y="216" on="1"/>
        <pt x="183" y="216" on="1"/>
        <pt x="69" y="0" on="1"/>
      </contour>
      <contour>
        <pt x="423" y="667" on="1"/>
        <pt x="201" y="248" on="1"/>
        <pt x="480" y="248" on="1"/>
        <pt x="459" y="667" on="1"/>
      </contour>
    </TTGlyph>
    <TTGlyph name="Aogonek" xMin="32" yMin="-198" xMax="530" yMax="700">
      <contour>
        <pt x="530" y="0" on="1"/>
        <pt x="526" y="0" on="1"/>
        <pt x="491" y="-31" on="0"/>
        <pt x="425" y="-113" on="0"/>
        <pt x="425" y="-141" on="1"/>
        <pt x="425" y="-165" on="0"/>
        <pt x="457" y="-165" on="1"/>
        <pt x="513" y="-158" on="1"/>
        <pt x="509" y="-190" on="1"/>
        <pt x="473" y="-198" on="0"/>
        <pt x="447" y="-198" on="1"/>
        <pt x="385" y="-198" on="0"/>
        <pt x="385" y="-144" on="1"/>
        <pt x="385" y="-111" on="0"/>
        <pt x="456" y="-24" on="0"/>
        <pt x="493" y="7" on="1"/>
        <pt x="482" y="216" on="1"/>
        <pt x="183" y="216" on="1"/>
        <pt x="69" y="0" on="1"/>
        <pt x="32" y="0" on="1"/>
        <pt x="403" y="700" on="1"/>
        <pt x="492" y="700" on="1"/>
        <pt x="530" y="3" on="1"/>
      </contour>
      <contour>
        <pt x="423" y="667" on="1"/>
        <pt x="201" y="248" on="1"/>
        <pt x="480" y="248" on="1"/>
        <pt x="459" y="667" on="1"/>
      </contour>
    </TTGlyph>
    <TTGlyph name="Aring" xMin="32" yMin="0" xMax="551" yMax="844">
      <contour>
        <pt x="368" y="725" on="1"/>
        <pt x="368" y="738" on="0"/>
        <pt x="373" y="755" on="1"/>
        <pt x="397" y="844" on="0"/>
        <pt x="481" y="844" on="1"/>
        <pt x="521" y="844" on="0"/>
        <pt x="539" y="822" on="1"/>
        <pt x="550" y="808" on="0"/>
        <pt x="550" y="772" on="0"/>
        <pt x="546" y="755" on="1"/>
        <pt x="532" y="702" on="0"/>
        <pt x="493" y="680" on="1"/>
        <pt x="530" y="0" on="1"/>
        <pt x="494" y="0" on="1"/>
        <pt x="482" y="216" on="1"/>
        <pt x="183" y="216" on="1"/>
        <pt x="69" y="0" on="1"/>
        <pt x="32" y="0" on="1"/>
        <pt x="392" y="679" on="1"/>
        <pt x="368" y="694" on="0"/>
      </contour>
      <contour>
        <pt x="459" y="667" on="1"/>
        <pt x="423" y="667" on="1"/>
        <pt x="201" y="248" on="1"/>
        <pt x="480" y="248" on="1"/>
      </contour>
      <contour>
        <pt x="522" y="773" on="1"/>
        <pt x="522" y="815" on="0"/>
        <pt x="474" y="815" on="1"/>
        <pt x="414" y="815" on="0"/>
        <pt x="399" y="755" on="1"/>
        <pt x="397" y="745" on="0"/>
        <pt x="397" y="736" on="1"/>
        <pt x="397" y="709" on="0"/>
        <pt x="420" y="700" on="1"/>
        <pt x="473" y="700" on="1"/>
        <pt x="509" y="712" on="0"/>
        <pt x="520" y="755" on="1"/>
        <pt x="522" y="765" on="0"/>
      </contour>
    </TTGlyph>
    <TTGlyph name="Aringacute" xMin="32" yMin="0" xMax="613" yMax="1010">
      <contour>
        <pt x="368" y="725" on="1"/>
        <pt x="368" y="738" on="0"/>
        <pt x="373" y="755" on="1"/>
        <pt x="397" y="844" on="0"/>
        <pt x="481" y="844" on="1"/>
        <pt x="521" y="844" on="0"/>
        <pt x="539" y="822" on="1"/>
        <pt x="550" y="808" on="0"/>
        <pt x="550" y="772" on="0"/>
        <pt x="546" y="755" on="1"/>
        <pt x="532" y="702" on="0"/>
        <pt x="493" y="680" on="1"/>
        <pt x="530" y="0" on="1"/>
        <pt x="494" y="0" on="1"/>
        <pt x="482" y="216" on="1"/>
        <pt x="183" y="216" on="1"/>
        <pt x="69" y="0" on="1"/>
        <pt x="32" y="0" on="1"/>
        <pt x="392" y="679" on="1"/>
        <pt x="368" y="694" on="0"/>
      </contour>
      <contour>
        <pt x="423" y="667" on="1"/>
        <pt x="201" y="248" on="1"/>
        <pt x="480" y="248" on="1"/>
        <pt x="459" y="667" on="1"/>
      </contour>
      <contour>
        <pt x="522" y="773" on="1"/>
        <pt x="522" y="815" on="0"/>
        <pt x="474" y="815" on="1"/>
        <pt x="414" y="815" on="0"/>
        <pt x="399" y="755" on="1"/>
        <pt x="397" y="745" on="0"/>
        <pt x="397" y="736" on="1"/>
        <pt x="397" y="709" on="0"/>
        <pt x="420" y="700" on="1"/>
        <pt x="473" y="700" on="1"/>
        <pt x="509" y="712" on="0"/>
        <pt x="520" y="755" on="1"/>
        <pt x="522" y="765" on="0"/>
      </contour>
      <contour>
        <pt x="409" y="890" on="1"/>
        <pt x="404" y="915" on="1"/>
        <pt x="607" y="1010" on="1"/>
        <pt x="613" y="980" on="1"/>
      </contour>
    </TTGlyph>
    <TTGlyph name="Atilde" xMin="32" yMin="0" xMax="629" yMax="914">
      <contour>
        <pt x="629" y="877" on="1"/>
        <pt x="566" y="820" on="0"/>
        <pt x="517" y="820" on="0"/>
        <pt x="416" y="884" on="0"/>
        <pt x="405" y="884" on="1"/>
        <pt x="387" y="884" on="0"/>
        <pt x="332" y="842" on="1"/>
        <pt x="314" y="829" on="1"/>
        <pt x="313" y="857" on="1"/>
        <pt x="379" y="914" on="0"/>
        <pt x="432" y="914" on="0"/>
        <pt x="532" y="851" on="0"/>
        <pt x="543" y="851" on="1"/>
        <pt x="562" y="851" on="0"/>
        <pt x="609" y="889" on="1"/>
        <pt x="625" y="902" on="1"/>
      </contour>
      <contour>
        <pt x="32" y="0" on="1"/>
        <pt x="403" y="700" on="1"/>
        <pt x="492" y="700" on="1"/>
        <pt x="530" y="0" on="1"/>
        <pt x="494" y="0" on="1"/>
        <pt x="482" y="216" on="1"/>
        <pt x="183" y="216" on="1"/>
        <pt x="69" y="0" on="1"/>
      </contour>
      <contour>
        <pt x="423" y="667" on="1"/>
        <pt x="201" y="248" on="1"/>
        <pt x="480" y="248" on="1"/>
        <pt x="459" y="667" on="1"/>
      </contour>
    </TTGlyph>
    <TTGlyph name="B" xMin="86" yMin="0" xMax="620" yMax="700">
      <contour>
        <pt x="462" y="700" on="1"/>
        <pt x="543" y="700" on="0"/>
        <pt x="620" y="642" on="0"/>
        <pt x="620" y="493" on="0"/>
        <pt x="538" y="382" on="0"/>
        <pt x="479" y="363" on="1"/>
        <pt x="575" y="338" on="0"/>
        <pt x="575" y="243" on="1"/>
        <pt x="575" y="128" on="0"/>
        <pt x="438" y="0" on="0"/>
        <pt x="313" y="0" on="1"/>
        <pt x="86" y="0" on="1"/>
        <pt x="247" y="700" on="1"/>
      </contour>
      <contour>
        <pt x="388" y="343" on="1"/>
        <pt x="201" y="343" on="1"/>
        <pt x="130" y="33" on="1"/>
        <pt x="321" y="33" on="1"/>
        <pt x="424" y="33" on="0"/>
        <pt x="537" y="145" on="0"/>
        <pt x="537" y="242" on="1"/>
        <pt x="537" y="299" on="0"/>
        <pt x="458" y="343" on="0"/>
      </contour>
      <contour>
        <pt x="455" y="667" on="1"/>
        <pt x="275" y="667" on="1"/>
        <pt x="208" y="376" on="1"/>
        <pt x="396" y="376" on="1"/>
        <pt x="479" y="376" on="0"/>
        <pt x="583" y="489" on="0"/>
        <pt x="583" y="571" on="1"/>
        <pt x="583" y="626" on="0"/>
        <pt x="524" y="667" on="0"/>
      </contour>
    </TTGlyph>
    <TTGlyph name="C" xMin="121" yMin="-9" xMax="632" yMax="709">
      <contour>
        <pt x="306" y="-9" on="1"/>
        <pt x="121" y="-9" on="0"/>
        <pt x="121" y="190" on="1"/>
        <pt x="121" y="333" on="0"/>
        <pt x="176" y="465" on="1"/>
        <pt x="238" y="615" on="0"/>
        <pt x="342" y="676" on="1"/>
        <pt x="401" y="709" on="0"/>
        <pt x="469" y="709" on="1"/>
        <pt x="543" y="709" on="0"/>
        <pt x="608" y="695" on="1"/>
        <pt x="632" y="690" on="1"/>
        <pt x="624" y="658" on="1"/>
        <pt x="537" y="675" on="0"/>
        <pt x="392" y="675" on="0"/>
        <pt x="271" y="580" on="0"/>
        <pt x="234" y="506" on="1"/>
        <pt x="159" y="353" on="0"/>
        <pt x="159" y="190" on="1"/>
        <pt x="159" y="105" on="0"/>
        <pt x="232" y="25" on="0"/>
        <pt x="311" y="25" on="1"/>
        <pt x="387" y="25" on="0"/>
        <pt x="451" y="39" on="1"/>
        <pt x="474" y="44" on="1"/>
        <pt x="473" y="11" on="1"/>
        <pt x="386" y="-9" on="0"/>
      </contour>
    </TTGlyph>
    <TTGlyph name="Cacute" xMin="121" yMin="-9" xMax="633" yMax="919">
      <contour>
        <pt x="306" y="-9" on="1"/>
        <pt x="121" y="-9" on="0"/>
        <pt x="121" y="190" on="1"/>
        <pt x="121" y="333" on="0"/>
        <pt x="176" y="465" on="1"/>
        <pt x="238" y="615" on="0"/>
        <pt x="342" y="676" on="1"/>
        <pt x="401" y="709" on="0"/>
        <pt x="469" y="709" on="1"/>
        <pt x="543" y="709" on="0"/>
        <pt x="608" y="695" on="1"/>
        <pt x="632" y="690" on="1"/>
        <pt x="624" y="658" on="1"/>
        <pt x="537" y="675" on="0"/>
        <pt x="392" y="675" on="0"/>
        <pt x="271" y="580" on="0"/>
        <pt x="234" y="506" on="1"/>
        <pt x="159" y="353" on="0"/>
        <pt x="159" y="190" on="1"/>
        <pt x="159" y="105" on="0"/>
        <pt x="232" y="25" on="0"/>
        <pt x="311" y="25" on="1"/>
        <pt x="387" y="25" on="0"/>
        <pt x="451" y="39" on="1"/>
        <pt x="474" y="44" on="1"/>
        <pt x="473" y="11" on="1"/>
        <pt x="386" y="-9" on="0"/>
      </contour>
      <contour>
        <pt x="428" y="798" on="1"/>
        <pt x="420" y="823" on="1"/>
        <pt x="624" y="919" on="1"/>
        <pt x="633" y="890" on="1"/>
      </contour>
    </TTGlyph>
    <TTGlyph name="Ccaron" xMin="121" yMin="-9" xMax="658" yMax="931">
      <contour>
        <pt x="306" y="-9" on="1"/>
        <pt x="121" y="-9" on="0"/>
        <pt x="121" y="190" on="1"/>
        <pt x="121" y="333" on="0"/>
        <pt x="176" y="465" on="1"/>
        <pt x="238" y="615" on="0"/>
        <pt x="342" y="676" on="1"/>
        <pt x="401" y="709" on="0"/>
        <pt x="469" y="709" on="1"/>
        <pt x="543" y="709" on="0"/>
        <pt x="608" y="695" on="1"/>
        <pt x="632" y="690" on="1"/>
        <pt x="624" y="658" on="1"/>
        <pt x="537" y="675" on="0"/>
        <pt x="392" y="675" on="0"/>
        <pt x="271" y="580" on="0"/>
        <pt x="234" y="506" on="1"/>
        <pt x="159" y="353" on="0"/>
        <pt x="159" y="190" on="1"/>
        <pt x="159" y="105" on="0"/>
        <pt x="232" y="25" on="0"/>
        <pt x="311" y="25" on="1"/>
        <pt x="387" y="25" on="0"/>
        <pt x="451" y="39" on="1"/>
        <pt x="474" y="44" on="1"/>
        <pt x="473" y="11" on="1"/>
        <pt x="386" y="-9" on="0"/>
      </contour>
      <contour>
        <pt x="658" y="931" on="1"/>
        <pt x="503" y="803" on="1"/>
        <pt x="486" y="803" on="1"/>
        <pt x="386" y="931" on="1"/>
        <pt x="421" y="931" on="1"/>
        <pt x="498" y="832" on="1"/>
        <pt x="618" y="931" on="1"/>
      </contour>
    </TTGlyph>
    <TTGlyph name="Ccedilla" xMin="121" yMin="-199" xMax="632" yMax="709">
      <contour>
        <pt x="298" y="-53" on="1"/>
        <pt x="377" y="-53" on="0"/>
        <pt x="377" y="-105" on="1"/>
        <pt x="377" y="-114" on="0"/>
        <pt x="375" y="-124" on="1"/>
        <pt x="358" y="-199" on="0"/>
        <pt x="280" y="-199" on="1"/>
        <pt x="204" y="-195" on="1"/>
        <pt x="212" y="-164" on="1"/>
        <pt x="253" y="-168" on="0"/>
        <pt x="285" y="-168" on="1"/>
        <pt x="330" y="-168" on="0"/>
        <pt x="341" y="-124" on="1"/>
        <pt x="343" y="-117" on="0"/>
        <pt x="343" y="-110" on="1"/>
        <pt x="343" y="-83" on="0"/>
        <pt x="306" y="-83" on="1"/>
        <pt x="255" y="-83" on="1"/>
        <pt x="273" y="-7" on="1"/>
        <pt x="121" y="9" on="0"/>
        <pt x="121" y="190" on="1"/>
        <pt x="121" y="333" on="0"/>
        <pt x="176" y="465" on="1"/>
        <pt x="238" y="615" on="0"/>
        <pt x="342" y="676" on="1"/>
        <pt x="401" y="709" on="0"/>
        <pt x="469" y="709" on="1"/>
        <pt x="543" y="709" on="0"/>
        <pt x="608" y="695" on="1"/>
        <pt x="632" y="690" on="1"/>
        <pt x="624" y="658" on="1"/>
        <pt x="537" y="675" on="0"/>
        <pt x="392" y="675" on="0"/>
        <pt x="271" y="580" on="0"/>
        <pt x="234" y="506" on="1"/>
        <pt x="159" y="353" on="0"/>
        <pt x="159" y="190" on="1"/>
        <pt x="159" y="105" on="0"/>
        <pt x="232" y="25" on="0"/>
        <pt x="311" y="25" on="1"/>
        <pt x="387" y="25" on="0"/>
        <pt x="451" y="39" on="1"/>
        <pt x="474" y="44" on="1"/>
        <pt x="473" y="11" on="1"/>
        <pt x="386" y="-9" on="0"/>
        <pt x="306" y="-9" on="1"/>
        <pt x="304" y="-9" on="1"/>
        <pt x="293" y="-53" on="1"/>
      </contour>
    </TTGlyph>
    <TTGlyph name="Ccircumflex" xMin="121" yMin="-9" xMax="632" yMax="931">
      <contour>
        <pt x="306" y="-9" on="1"/>
        <pt x="121" y="-9" on="0"/>
        <pt x="121" y="190" on="1"/>
        <pt x="121" y="333" on="0"/>
        <pt x="176" y="465" on="1"/>
        <pt x="238" y="615" on="0"/>
        <pt x="342" y="676" on="1"/>
        <pt x="401" y="709" on="0"/>
        <pt x="469" y="709" on="1"/>
        <pt x="543" y="709" on="0"/>
        <pt x="608" y="695" on="1"/>
        <pt x="632" y="690" on="1"/>
        <pt x="624" y="658" on="1"/>
        <pt x="537" y="675" on="0"/>
        <pt x="392" y="675" on="0"/>
        <pt x="271" y="580" on="0"/>
        <pt x="234" y="506" on="1"/>
        <pt x="159" y="353" on="0"/>
        <pt x="159" y="190" on="1"/>
        <pt x="159" y="105" on="0"/>
        <pt x="232" y="25" on="0"/>
        <pt x="311" y="25" on="1"/>
        <pt x="387" y="25" on="0"/>
        <pt x="451" y="39" on="1"/>
        <pt x="474" y="44" on="1"/>
        <pt x="473" y="11" on="1"/>
        <pt x="386" y="-9" on="0"/>
      </contour>
      <contour>
        <pt x="364" y="803" on="1"/>
        <pt x="520" y="931" on="1"/>
        <pt x="534" y="931" on="1"/>
        <pt x="631" y="803" on="1"/>
        <pt x="597" y="803" on="1"/>
        <pt x="524" y="900" on="1"/>
        <pt x="405" y="803" on="1"/>
      </contour>
    </TTGlyph>
    <TTGlyph name="Cdotaccent" xMin="121" yMin="-9" xMax="632" yMax="865">
      <contour>
        <pt x="306" y="-9" on="1"/>
        <pt x="121" y="-9" on="0"/>
        <pt x="121" y="190" on="1"/>
        <pt x="121" y="333" on="0"/>
        <pt x="176" y="465" on="1"/>
        <pt x="238" y="615" on="0"/>
        <pt x="342" y="676" on="1"/>
        <pt x="401" y="709" on="0"/>
        <pt x="469" y="709" on="1"/>
        <pt x="543" y="709" on="0"/>
        <pt x="608" y="695" on="1"/>
        <pt x="632" y="690" on="1"/>
        <pt x="624" y="658" on="1"/>
        <pt x="537" y="675" on="0"/>
        <pt x="392" y="675" on="0"/>
        <pt x="271" y="580" on="0"/>
        <pt x="234" y="506" on="1"/>
        <pt x="159" y="353" on="0"/>
        <pt x="159" y="190" on="1"/>
        <pt x="159" y="105" on="0"/>
        <pt x="232" y="25" on="0"/>
        <pt x="311" y="25" on="1"/>
        <pt x="387" y="25" on="0"/>
        <pt x="451" y="39" on="1"/>
        <pt x="474" y="44" on="1"/>
        <pt x="473" y="11" on="1"/>
        <pt x="386" y="-9" on="0"/>
      </contour>
      <contour>
        <pt x="480" y="807" on="1"/>
        <pt x="492" y="865" on="1"/>
        <pt x="520" y="865" on="1"/>
        <pt x="509" y="807" on="1"/>
      </contour>
    </TTGlyph>
    <TTGlyph name="D" xMin="86" yMin="0" xMax="646" yMax="700">
      <contour>
        <pt x="323" y="0" on="1"/>
        <pt x="86" y="0" on="1"/>
        <pt x="248" y="700" on="1"/>
        <pt x="476" y="700" on="1"/>
        <pt x="567" y="700" on="0"/>
        <pt x="646" y="600" on="0"/>
        <pt x="646" y="416" on="0"/>
        <pt x="606" y="248" on="0"/>
        <pt x="531" y="97" on="0"/>
        <pt x="402" y="0" on="0"/>
      </contour>
      <contour>
        <pt x="571" y="265" on="0"/>
        <pt x="608" y="423" on="0"/>
        <pt x="608" y="585" on="0"/>
        <pt x="545" y="667" on="0"/>
        <pt x="469" y="667" on="1"/>
        <pt x="276" y="667" on="1"/>
        <pt x="131" y="33" on="1"/>
        <pt x="332" y="33" on="1"/>
        <pt x="396" y="33" on="0"/>
        <pt x="504" y="124" on="0"/>
      </contour>
    </TTGlyph>
    <TTGlyph name="Dcaron" xMin="86" yMin="0" xMax="646" yMax="931">
      <contour>
        <pt x="323" y="0" on="1"/>
        <pt x="86" y="0" on="1"/>
        <pt x="248" y="700" on="1"/>
        <pt x="476" y="700" on="1"/>
        <pt x="567" y="700" on="0"/>
        <pt x="646" y="600" on="0"/>
        <pt x="646" y="495" on="1"/>
        <pt x="646" y="329" on="0"/>
        <pt x="568" y="172" on="1"/>
        <pt x="531" y="97" on="0"/>
        <pt x="402" y="0" on="0"/>
      </contour>
      <contour>
        <pt x="608" y="585" on="0"/>
        <pt x="545" y="667" on="0"/>
        <pt x="469" y="667" on="1"/>
        <pt x="276" y="667" on="1"/>
        <pt x="131" y="33" on="1"/>
        <pt x="332" y="33" on="1"/>
        <pt x="396" y="33" on="0"/>
        <pt x="504" y="124" on="0"/>
        <pt x="571" y="265" on="0"/>
        <pt x="608" y="423" on="0"/>
      </contour>
      <contour>
        <pt x="613" y="931" on="1"/>
        <pt x="458" y="803" on="1"/>
        <pt x="441" y="803" on="1"/>
        <pt x="341" y="931" on="1"/>
        <pt x="376" y="931" on="1"/>
        <pt x="453" y="832" on="1"/>
        <pt x="573" y="931" on="1"/>
      </contour>
    </TTGlyph>
    <TTGlyph name="Dcroat" xMin="88" yMin="0" xMax="648" yMax="700">
      <contour>
        <pt x="325" y="0" on="1"/>
        <pt x="88" y="0" on="1"/>
        <pt x="165" y="332" on="1"/>
        <pt x="89" y="332" on="1"/>
        <pt x="96" y="370" on="1"/>
        <pt x="174" y="370" on="1"/>
        <pt x="250" y="700" on="1"/>
        <pt x="478" y="700" on="1"/>
        <pt x="569" y="700" on="0"/>
        <pt x="648" y="600" on="0"/>
        <pt x="648" y="416" on="0"/>
        <pt x="608" y="248" on="0"/>
        <pt x="533" y="97" on="0"/>
        <pt x="404" y="0" on="0"/>
      </contour>
      <contour>
        <pt x="573" y="265" on="0"/>
        <pt x="610" y="423" on="0"/>
        <pt x="610" y="585" on="0"/>
        <pt x="547" y="667" on="0"/>
        <pt x="471" y="667" on="1"/>
        <pt x="278" y="667" on="1"/>
        <pt x="210" y="370" on="1"/>
        <pt x="372" y="370" on="1"/>
        <pt x="363" y="332" on="1"/>
        <pt x="201" y="332" on="1"/>
        <pt x="133" y="33" on="1"/>
        <pt x="334" y="33" on="1"/>
        <pt x="398" y="33" on="0"/>
        <pt x="506" y="124" on="0"/>
      </contour>
    </TTGlyph>
    <TTGlyph name="Delta" xMin="87" yMin="0" xMax="528" yMax="660">
      <contour>
        <pt x="87" y="0" on="1"/>
        <pt x="87" y="26" on="1"/>
        <pt x="269" y="660" on="1"/>
        <pt x="345" y="660" on="1"/>
        <pt x="527" y="26" on="1"/>
        <pt x="528" y="0" on="1"/>
      </contour>
      <contour>
        <pt x="319" y="626" on="1"/>
        <pt x="294" y="626" on="1"/>
        <pt x="127" y="34" on="1"/>
        <pt x="486" y="34" on="1"/>
      </contour>
    </TTGlyph>
    <TTGlyph name="E" xMin="86" yMin="0" xMax="625" yMax="700">
      <contour>
        <pt x="86" y="0" on="1"/>
        <pt x="248" y="700" on="1"/>
        <pt x="625" y="700" on="1"/>
        <pt x="617" y="667" on="1"/>
        <pt x="276" y="667" on="1"/>
        <pt x="209" y="376" on="1"/>
        <pt x="494" y="376" on="1"/>
        <pt x="486" y="343" on="1"/>
        <pt x="201" y="343" on="1"/>
        <pt x="130" y="33" on="1"/>
        <pt x="471" y="33" on="1"/>
        <pt x="463" y="0" on="1"/>
      </contour>
    </TTGlyph>
    <TTGlyph name="Eacute" xMin="86" yMin="0" xMax="625" yMax="919">
      <contour>
        <pt x="395" y="798" on="1"/>
        <pt x="387" y="823" on="1"/>
        <pt x="591" y="919" on="1"/>
        <pt x="600" y="890" on="1"/>
      </contour>
      <contour>
        <pt x="86" y="0" on="1"/>
        <pt x="248" y="700" on="1"/>
        <pt x="625" y="700" on="1"/>
        <pt x="617" y="667" on="1"/>
        <pt x="276" y="667" on="1"/>
        <pt x="209" y="376" on="1"/>
        <pt x="494" y="376" on="1"/>
        <pt x="486" y="343" on="1"/>
        <pt x="201" y="343" on="1"/>
        <pt x="130" y="33" on="1"/>
        <pt x="471" y="33" on="1"/>
        <pt x="463" y="0" on="1"/>
      </contour>
    </TTGlyph>
    <TTGlyph name="Ebreve" xMin="86" yMin="0" xMax="625" yMax="921">
      <contour>
        <pt x="384" y="921" on="1"/>
        <pt x="381" y="906" on="0"/>
        <pt x="381" y="867" on="0"/>
        <pt x="414" y="834" on="0"/>
        <pt x="498" y="834" on="0"/>
        <pt x="564" y="882" on="0"/>
        <pt x="574" y="921" on="1"/>
        <pt x="604" y="921" on="1"/>
        <pt x="590" y="865" on="0"/>
        <pt x="507" y="804" on="0"/>
        <pt x="451" y="804" on="1"/>
        <pt x="351" y="804" on="0"/>
        <pt x="351" y="887" on="1"/>
        <pt x="351" y="903" on="0"/>
        <pt x="354" y="921" on="1"/>
      </contour>
      <contour>
        <pt x="86" y="0" on="1"/>
        <pt x="248" y="700" on="1"/>
        <pt x="625" y="700" on="1"/>
        <pt x="617" y="667" on="1"/>
        <pt x="276" y="667" on="1"/>
        <pt x="209" y="376" on="1"/>
        <pt x="494" y="376" on="1"/>
        <pt x="486" y="343" on="1"/>
        <pt x="201" y="343" on="1"/>
        <pt x="130" y="33" on="1"/>
        <pt x="471" y="33" on="1"/>
        <pt x="463" y="0" on="1"/>
      </contour>
    </TTGlyph>
    <TTGlyph name="Ecaron" xMin="86" yMin="0" xMax="625" yMax="931">
      <contour>
        <pt x="610" y="931" on="1"/>
        <pt x="455" y="803" on="1"/>
        <pt x="438" y="803" on="1"/>
        <pt x="338" y="931" on="1"/>
        <pt x="373" y="931" on="1"/>
        <pt x="450" y="832" on="1"/>
        <pt x="570" y="931" on="1"/>
      </contour>
      <contour>
        <pt x="86" y="0" on="1"/>
        <pt x="248" y="700" on="1"/>
        <pt x="625" y="700" on="1"/>
        <pt x="617" y="667" on="1"/>
        <pt x="276" y="667" on="1"/>
        <pt x="209" y="376" on="1"/>
        <pt x="494" y="376" on="1"/>
        <pt x="486" y="343" on="1"/>
        <pt x="201" y="343" on="1"/>
        <pt x="130" y="33" on="1"/>
        <pt x="471" y="33" on="1"/>
        <pt x="463" y="0" on="1"/>
      </contour>
    </TTGlyph>
    <TTGlyph name="Ecircumflex" xMin="86" yMin="0" xMax="664" yMax="926">
      <contour>
        <pt x="397" y="798" on="1"/>
        <pt x="553" y="926" on="1"/>
        <pt x="567" y="926" on="1"/>
        <pt x="664" y="798" on="1"/>
        <pt x="630" y="798" on="1"/>
        <pt x="557" y="895" on="1"/>
        <pt x="438" y="798" on="1"/>
      </contour>
      <contour>
        <pt x="86" y="0" on="1"/>
        <pt x="248" y="700" on="1"/>
        <pt x="625" y="700" on="1"/>
        <pt x="617" y="667" on="1"/>
        <pt x="276" y="667" on="1"/>
        <pt x="209" y="376" on="1"/>
        <pt x="494" y="376" on="1"/>
        <pt x="486" y="343" on="1"/>
        <pt x="201" y="343" on="1"/>
        <pt x="130" y="33" on="1"/>
        <pt x="471" y="33" on="1"/>
        <pt x="463" y="0" on="1"/>
      </contour>
    </TTGlyph>
    <TTGlyph name="Edieresis" xMin="86" yMin="0" xMax="625" yMax="897">
      <contour>
        <pt x="362" y="831" on="1"/>
        <pt x="376" y="897" on="1"/>
        <pt x="406" y="897" on="1"/>
        <pt x="389" y="831" on="1"/>
      </contour>
      <contour>
        <pt x="541" y="831" on="1"/>
        <pt x="557" y="897" on="1"/>
        <pt x="586" y="897" on="1"/>
        <pt x="570" y="831" on="1"/>
      </contour>
      <contour>
        <pt x="86" y="0" on="1"/>
        <pt x="248" y="700" on="1"/>
        <pt x="625" y="700" on="1"/>
        <pt x="617" y="667" on="1"/>
        <pt x="276" y="667" on="1"/>
        <pt x="209" y="376" on="1"/>
        <pt x="494" y="376" on="1"/>
        <pt x="486" y="343" on="1"/>
        <pt x="201" y="343" on="1"/>
        <pt x="130" y="33" on="1"/>
        <pt x="471" y="33" on="1"/>
        <pt x="463" y="0" on="1"/>
      </contour>
    </TTGlyph>
    <TTGlyph name="Edotaccent" xMin="86" yMin="0" xMax="625" yMax="927">
      <contour>
        <pt x="451" y="869" on="1"/>
        <pt x="463" y="927" on="1"/>
        <pt x="491" y="927" on="1"/>
        <pt x="480" y="869" on="1"/>
      </contour>
      <contour>
        <pt x="86" y="0" on="1"/>
        <pt x="248" y="700" on="1"/>
        <pt x="625" y="700" on="1"/>
        <pt x="617" y="667" on="1"/>
        <pt x="276" y="667" on="1"/>
        <pt x="209" y="376" on="1"/>
        <pt x="494" y="376" on="1"/>
        <pt x="486" y="343" on="1"/>
        <pt x="201" y="343" on="1"/>
        <pt x="130" y="33" on="1"/>
        <pt x="471" y="33" on="1"/>
        <pt x="463" y="0" on="1"/>
      </contour>
    </TTGlyph>
    <TTGlyph name="Egrave" xMin="86" yMin="0" xMax="625" yMax="917">
      <contour>
        <pt x="391" y="917" on="1"/>
        <pt x="551" y="820" on="1"/>
        <pt x="536" y="798" on="1"/>
        <pt x="374" y="890" on="1"/>
      </contour>
      <contour>
        <pt x="86" y="0" on="1"/>
        <pt x="248" y="700" on="1"/>
        <pt x="625" y="700" on="1"/>
        <pt x="617" y="667" on="1"/>
        <pt x="276" y="667" on="1"/>
        <pt x="209" y="376" on="1"/>
        <pt x="494" y="376" on="1"/>
        <pt x="486" y="343" on="1"/>
        <pt x="201" y="343" on="1"/>
        <pt x="130" y="33" on="1"/>
        <pt x="471" y="33" on="1"/>
        <pt x="463" y="0" on="1"/>
      </contour>
    </TTGlyph>
    <TTGlyph name="Emacron" xMin="86" yMin="0" xMax="625" yMax="861">
      <contour>
        <pt x="325" y="835" on="1"/>
        <pt x="330" y="861" on="1"/>
        <pt x="602" y="861" on="1"/>
        <pt x="595" y="835" on="1"/>
      </contour>
      <contour>
        <pt x="86" y="0" on="1"/>
        <pt x="248" y="700" on="1"/>
        <pt x="625" y="700" on="1"/>
        <pt x="617" y="667" on="1"/>
        <pt x="276" y="667" on="1"/>
        <pt x="209" y="376" on="1"/>
        <pt x="494" y="376" on="1"/>
        <pt x="486" y="343" on="1"/>
        <pt x="201" y="343" on="1"/>
        <pt x="130" y="33" on="1"/>
        <pt x="471" y="33" on="1"/>
        <pt x="463" y="0" on="1"/>
      </contour>
    </TTGlyph>
    <TTGlyph name="Eng" xMin="86" yMin="-171" xMax="693" yMax="700">
      <contour>
        <pt x="86" y="0" on="1"/>
        <pt x="248" y="700" on="1"/>
        <pt x="331" y="700" on="1"/>
        <pt x="480" y="33" on="1"/>
        <pt x="504" y="33" on="1"/>
        <pt x="658" y="700" on="1"/>
        <pt x="693" y="700" on="1"/>
        <pt x="533" y="7" on="1"/>
        <pt x="513" y="-81" on="0"/>
        <pt x="480" y="-141" on="0"/>
        <pt x="462" y="-150" on="1"/>
        <pt x="422" y="-171" on="0"/>
        <pt x="346" y="-171" on="1"/>
        <pt x="352" y="-138" on="1"/>
        <pt x="424" y="-138" on="0"/>
        <pt x="476" y="-88" on="0"/>
        <pt x="496" y="0" on="1"/>
        <pt x="450" y="0" on="1"/>
        <pt x="300" y="667" on="1"/>
        <pt x="275" y="667" on="1"/>
        <pt x="121" y="0" on="1"/>
      </contour>
    </TTGlyph>
    <TTGlyph name="Eogonek" xMin="86" yMin="-198" xMax="625" yMax="700">
      <contour>
        <pt x="334" y="-141" on="1"/>
        <pt x="334" y="-165" on="0"/>
        <pt x="366" y="-165" on="1"/>
        <pt x="422" y="-158" on="1"/>
        <pt x="418" y="-190" on="1"/>
        <pt x="382" y="-198" on="0"/>
        <pt x="356" y="-198" on="1"/>
        <pt x="294" y="-198" on="0"/>
        <pt x="294" y="-144" on="1"/>
        <pt x="294" y="-113" on="0"/>
        <pt x="357" y="-32" on="0"/>
        <pt x="394" y="0" on="1"/>
        <pt x="86" y="0" on="1"/>
        <pt x="248" y="700" on="1"/>
        <pt x="625" y="700" on="1"/>
        <pt x="617" y="667" on="1"/>
        <pt x="276" y="667" on="1"/>
        <pt x="209" y="376" on="1"/>
        <pt x="494" y="376" on="1"/>
        <pt x="486" y="343" on="1"/>
        <pt x="201" y="343" on="1"/>
        <pt x="130" y="33" on="1"/>
        <pt x="471" y="33" on="1"/>
        <pt x="463" y="0" on="1"/>
        <pt x="435" y="0" on="1"/>
        <pt x="400" y="-31" on="0"/>
        <pt x="334" y="-113" on="0"/>
      </contour>
    </TTGlyph>
    <TTGlyph name="Eth" xMin="88" yMin="0" xMax="648" yMax="700">
      <contour>
        <pt x="325" y="0" on="1"/>
        <pt x="88" y="0" on="1"/>
        <pt x="165" y="332" on="1"/>
        <pt x="89" y="332" on="1"/>
        <pt x="96" y="370" on="1"/>
        <pt x="174" y="370" on="1"/>
        <pt x="250" y="700" on="1"/>
        <pt x="478" y="700" on="1"/>
        <pt x="569" y="700" on="0"/>
        <pt x="648" y="600" on="0"/>
        <pt x="648" y="416" on="0"/>
        <pt x="608" y="248" on="0"/>
        <pt x="533" y="97" on="0"/>
        <pt x="404" y="0" on="0"/>
      </contour>
      <contour>
        <pt x="573" y="265" on="0"/>
        <pt x="610" y="423" on="0"/>
        <pt x="610" y="585" on="0"/>
        <pt x="547" y="667" on="0"/>
        <pt x="471" y="667" on="1"/>
        <pt x="278" y="667" on="1"/>
        <pt x="210" y="370" on="1"/>
        <pt x="372" y="370" on="1"/>
        <pt x="363" y="332" on="1"/>
        <pt x="201" y="332" on="1"/>
        <pt x="133" y="33" on="1"/>
        <pt x="334" y="33" on="1"/>
        <pt x="398" y="33" on="0"/>
        <pt x="506" y="124" on="0"/>
      </contour>
    </TTGlyph>
    <TTGlyph name="Euro" xMin="106" yMin="-9" xMax="636" yMax="670">
      <contour>
        <pt x="328" y="-9" on="1"/>
        <pt x="153" y="-9" on="0"/>
        <pt x="153" y="180" on="1"/>
        <pt x="153" y="195" on="0"/>
        <pt x="155" y="227" on="1"/>
        <pt x="106" y="227" on="1"/>
        <pt x="114" y="259" on="1"/>
        <pt x="158" y="259" on="1"/>
        <pt x="166" y="327" on="0"/>
        <pt x="186" y="389" on="1"/>
        <pt x="143" y="389" on="1"/>
        <pt x="151" y="421" on="1"/>
        <pt x="197" y="421" on="1"/>
        <pt x="238" y="532" on="0"/>
        <pt x="383" y="670" on="0"/>
        <pt x="482" y="670" on="1"/>
        <pt x="546" y="670" on="0"/>
        <pt x="614" y="656" on="1"/>
        <pt x="636" y="652" on="1"/>
        <pt x="629" y="622" on="1"/>
        <pt x="546" y="638" on="0"/>
        <pt x="396" y="638" on="0"/>
        <pt x="272" y="518" on="0"/>
        <pt x="235" y="421" on="1"/>
        <pt x="541" y="421" on="1"/>
        <pt x="534" y="389" on="1"/>
        <pt x="223" y="389" on="1"/>
        <pt x="201" y="323" on="0"/>
        <pt x="194" y="259" on="1"/>
        <pt x="504" y="259" on="1"/>
        <pt x="497" y="227" on="1"/>
        <pt x="191" y="227" on="1"/>
        <pt x="189" y="211" on="0"/>
        <pt x="189" y="180" on="1"/>
        <pt x="189" y="100" on="0"/>
        <pt x="258" y="24" on="0"/>
        <pt x="333" y="24" on="1"/>
        <pt x="399" y="24" on="0"/>
        <pt x="465" y="38" on="1"/>
        <pt x="487" y="42" on="1"/>
        <pt x="486" y="10" on="1"/>
        <pt x="404" y="-9" on="0"/>
      </contour>
    </TTGlyph>
    <TTGlyph name="F" xMin="86" yMin="0" xMax="615" yMax="700">
      <contour>
        <pt x="86" y="0" on="1"/>
        <pt x="248" y="700" on="1"/>
        <pt x="615" y="700" on="1"/>
        <pt x="607" y="667" on="1"/>
        <pt x="276" y="667" on="1"/>
        <pt x="203" y="349" on="1"/>
        <pt x="490" y="349" on="1"/>
        <pt x="482" y="316" on="1"/>
        <pt x="195" y="316" on="1"/>
        <pt x="122" y="0" on="1"/>
      </contour>
    </TTGlyph>
    <TTGlyph name="G" xMin="121" yMin="-9" xMax="665" yMax="709">
      <contour>
        <pt x="318" y="-9" on="1"/>
        <pt x="121" y="-9" on="0"/>
        <pt x="121" y="175" on="1"/>
        <pt x="121" y="331" on="0"/>
        <pt x="175" y="466" on="1"/>
        <pt x="203" y="536" on="0"/>
        <pt x="282" y="644" on="0"/>
        <pt x="401" y="709" on="0"/>
        <pt x="471" y="709" on="1"/>
        <pt x="550" y="709" on="0"/>
        <pt x="638" y="690" on="1"/>
        <pt x="665" y="684" on="1"/>
        <pt x="655" y="654" on="1"/>
        <pt x="553" y="676" on="0"/>
        <pt x="463" y="676" on="1"/>
        <pt x="402" y="676" on="0"/>
        <pt x="300" y="612" on="0"/>
        <pt x="230" y="508" on="0"/>
        <pt x="206" y="442" on="1"/>
        <pt x="159" y="317" on="0"/>
        <pt x="159" y="175" on="1"/>
        <pt x="159" y="24" on="0"/>
        <pt x="320" y="24" on="1"/>
        <pt x="383" y="24" on="0"/>
        <pt x="456" y="40" on="1"/>
        <pt x="481" y="46" on="1"/>
        <pt x="543" y="313" on="1"/>
        <pt x="411" y="313" on="1"/>
        <pt x="419" y="346" on="1"/>
        <pt x="587" y="346" on="1"/>
        <pt x="511" y="19" on="1"/>
        <pt x="409" y="-9" on="0"/>
      </contour>
    </TTGlyph>
    <TTGlyph name="Gbreve" xMin="121" yMin="-9" xMax="665" yMax="921">
      <contour>
        <pt x="430" y="896" on="1"/>
        <pt x="430" y="865" on="0"/>
        <pt x="469" y="826" on="0"/>
        <pt x="553" y="826" on="0"/>
        <pt x="617" y="879" on="0"/>
        <pt x="628" y="921" on="1"/>
        <pt x="660" y="921" on="1"/>
        <pt x="645" y="863" on="0"/>
        <pt x="556" y="790" on="0"/>
        <pt x="449" y="790" on="0"/>
        <pt x="396" y="846" on="0"/>
        <pt x="396" y="888" on="1"/>
        <pt x="396" y="906" on="0"/>
        <pt x="400" y="921" on="1"/>
        <pt x="433" y="921" on="1"/>
        <pt x="430" y="909" on="0"/>
      </contour>
      <contour>
        <pt x="318" y="-9" on="1"/>
        <pt x="121" y="-9" on="0"/>
        <pt x="121" y="175" on="1"/>
        <pt x="121" y="331" on="0"/>
        <pt x="175" y="466" on="1"/>
        <pt x="203" y="536" on="0"/>
        <pt x="282" y="644" on="0"/>
        <pt x="401" y="709" on="0"/>
        <pt x="471" y="709" on="1"/>
        <pt x="550" y="709" on="0"/>
        <pt x="638" y="690" on="1"/>
        <pt x="665" y="684" on="1"/>
        <pt x="655" y="654" on="1"/>
        <pt x="553" y="676" on="0"/>
        <pt x="463" y="676" on="1"/>
        <pt x="402" y="676" on="0"/>
        <pt x="300" y="612" on="0"/>
        <pt x="230" y="508" on="0"/>
        <pt x="206" y="442" on="1"/>
        <pt x="159" y="317" on="0"/>
        <pt x="159" y="175" on="1"/>
        <pt x="159" y="24" on="0"/>
        <pt x="320" y="24" on="1"/>
        <pt x="383" y="24" on="0"/>
        <pt x="456" y="40" on="1"/>
        <pt x="481" y="46" on="1"/>
        <pt x="543" y="313" on="1"/>
        <pt x="411" y="313" on="1"/>
        <pt x="419" y="346" on="1"/>
        <pt x="587" y="346" on="1"/>
        <pt x="511" y="19" on="1"/>
        <pt x="409" y="-9" on="0"/>
      </contour>
    </TTGlyph>
    <TTGlyph name="Gcircumflex" xMin="121" yMin="-9" xMax="665" yMax="930">
      <contour>
        <pt x="365" y="795" on="1"/>
        <pt x="511" y="930" on="1"/>
        <pt x="533" y="930" on="1"/>
        <pt x="620" y="795" on="1"/>
        <pt x="582" y="795" on="1"/>
        <pt x="518" y="896" on="1"/>
        <pt x="408" y="795" on="1"/>
      </contour>
      <contour>
        <pt x="318" y="-9" on="1"/>
        <pt x="121" y="-9" on="0"/>
        <pt x="121" y="175" on="1"/>
        <pt x="121" y="331" on="0"/>
        <pt x="175" y="466" on="1"/>
        <pt x="203" y="536" on="0"/>
        <pt x="282" y="644" on="0"/>
        <pt x="401" y="709" on="0"/>
        <pt x="471" y="709" on="1"/>
        <pt x="550" y="709" on="0"/>
        <pt x="638" y="690" on="1"/>
        <pt x="665" y="684" on="1"/>
        <pt x="655" y="654" on="1"/>
        <pt x="553" y="676" on="0"/>
        <pt x="463" y="676" on="1"/>
        <pt x="402" y="676" on="0"/>
        <pt x="300" y="612" on="0"/>
        <pt x="230" y="508" on="0"/>
        <pt x="206" y="442" on="1"/>
        <pt x="159" y="317" on="0"/>
        <pt x="159" y="175" on="1"/>
        <pt x="159" y="24" on="0"/>
        <pt x="320" y="24" on="1"/>
        <pt x="383" y="24" on="0"/>
        <pt x="456" y="40" on="1"/>
        <pt x="481" y="46" on="1"/>
        <pt x="543" y="313" on="1"/>
        <pt x="411" y="313" on="1"/>
        <pt x="419" y="346" on="1"/>
        <pt x="587" y="346" on="1"/>
        <pt x="511" y="19" on="1"/>
        <pt x="409" y="-9" on="0"/>
      </contour>
    </TTGlyph>
    <TTGlyph name="Gcommaaccent" xMin="121" yMin="-265" xMax="665" yMax="709">
      <contour>
        <pt x="318" y="-9" on="1"/>
        <pt x="121" y="-9" on="0"/>
        <pt x="121" y="175" on="1"/>
        <pt x="121" y="331" on="0"/>
        <pt x="175" y="466" on="1"/>
        <pt x="203" y="536" on="0"/>
        <pt x="282" y="644" on="0"/>
        <pt x="401" y="709" on="0"/>
        <pt x="471" y="709" on="1"/>
        <pt x="550" y="709" on="0"/>
        <pt x="638" y="690" on="1"/>
        <pt x="665" y="684" on="1"/>
        <pt x="655" y="654" on="1"/>
        <pt x="553" y="676" on="0"/>
        <pt x="463" y="676" on="1"/>
        <pt x="402" y="676" on="0"/>
        <pt x="300" y="612" on="0"/>
        <pt x="230" y="508" on="0"/>
        <pt x="206" y="442" on="1"/>
        <pt x="159" y="317" on="0"/>
        <pt x="159" y="175" on="1"/>
        <pt x="159" y="24" on="0"/>
        <pt x="320" y="24" on="1"/>
        <pt x="383" y="24" on="0"/>
        <pt x="456" y="40" on="1"/>
        <pt x="481" y="46" on="1"/>
        <pt x="543" y="313" on="1"/>
        <pt x="411" y="313" on="1"/>
        <pt x="419" y="346" on="1"/>
        <pt x="587" y="346" on="1"/>
        <pt x="511" y="19" on="1"/>
        <pt x="409" y="-9" on="0"/>
      </contour>
      <contour>
        <pt x="274" y="-73" on="1"/>
        <pt x="308" y="-73" on="1"/>
        <pt x="220" y="-265" on="1"/>
        <pt x="194" y="-265" on="1"/>
      </contour>
    </TTGlyph>
    <TTGlyph name="Gdotaccent" xMin="121" yMin="-9" xMax="665" yMax="898">
      <contour>
        <pt x="495" y="840" on="1"/>
        <pt x="509" y="898" on="1"/>
        <pt x="542" y="898" on="1"/>
        <pt x="529" y="840" on="1"/>
      </contour>
      <contour>
        <pt x="318" y="-9" on="1"/>
        <pt x="121" y="-9" on="0"/>
        <pt x="121" y="175" on="1"/>
        <pt x="121" y="331" on="0"/>
        <pt x="175" y="466" on="1"/>
        <pt x="203" y="536" on="0"/>
        <pt x="282" y="644" on="0"/>
        <pt x="401" y="709" on="0"/>
        <pt x="471" y="709" on="1"/>
        <pt x="550" y="709" on="0"/>
        <pt x="638" y="690" on="1"/>
        <pt x="665" y="684" on="1"/>
        <pt x="655" y="654" on="1"/>
        <pt x="553" y="676" on="0"/>
        <pt x="463" y="676" on="1"/>
        <pt x="402" y="676" on="0"/>
        <pt x="300" y="612" on="0"/>
        <pt x="230" y="508" on="0"/>
        <pt x="206" y="442" on="1"/>
        <pt x="159" y="317" on="0"/>
        <pt x="159" y="175" on="1"/>
        <pt x="159" y="24" on="0"/>
        <pt x="320" y="24" on="1"/>
        <pt x="383" y="24" on="0"/>
        <pt x="456" y="40" on="1"/>
        <pt x="481" y="46" on="1"/>
        <pt x="543" y="313" on="1"/>
        <pt x="411" y="313" on="1"/>
        <pt x="419" y="346" on="1"/>
        <pt x="587" y="346" on="1"/>
        <pt x="511" y="19" on="1"/>
        <pt x="409" y="-9" on="0"/>
      </contour>
    </TTGlyph>
    <TTGlyph name="H" xMin="86" yMin="0" xMax="702" yMax="700">
      <contour>
        <pt x="504" y="0" on="1"/>
        <pt x="581" y="334" on="1"/>
        <pt x="199" y="334" on="1"/>
        <pt x="122" y="0" on="1"/>
        <pt x="86" y="0" on="1"/>
        <pt x="248" y="700" on="1"/>
        <pt x="284" y="700" on="1"/>
        <pt x="207" y="367" on="1"/>
        <pt x="589" y="367" on="1"/>
        <pt x="666" y="700" on="1"/>
        <pt x="702" y="700" on="1"/>
        <pt x="540" y="0" on="1"/>
      </contour>
    </TTGlyph>
    <TTGlyph name="Hbar" xMin="96" yMin="0" xMax="766" yMax="700">
      <contour>
        <pt x="126" y="517" on="1"/>
        <pt x="133" y="553" on="1"/>
        <pt x="223" y="553" on="1"/>
        <pt x="257" y="700" on="1"/>
        <pt x="291" y="700" on="1"/>
        <pt x="257" y="553" on="1"/>
        <pt x="643" y="553" on="1"/>
        <pt x="677" y="700" on="1"/>
        <pt x="711" y="700" on="1"/>
        <pt x="677" y="553" on="1"/>
        <pt x="766" y="553" on="1"/>
        <pt x="756" y="517" on="1"/>
        <pt x="669" y="517" on="1"/>
        <pt x="550" y="0" on="1"/>
        <pt x="516" y="0" on="1"/>
        <pt x="593" y="334" on="1"/>
        <pt x="207" y="334" on="1"/>
        <pt x="130" y="0" on="1"/>
        <pt x="96" y="0" on="1"/>
        <pt x="215" y="517" on="1"/>
      </contour>
      <contour>
        <pt x="215" y="370" on="1"/>
        <pt x="601" y="370" on="1"/>
        <pt x="635" y="517" on="1"/>
        <pt x="248" y="517" on="1"/>
      </contour>
    </TTGlyph>
    <TTGlyph name="Hcircumflex" xMin="86" yMin="0" xMax="702" yMax="931">
      <contour>
        <pt x="504" y="0" on="1"/>
        <pt x="581" y="334" on="1"/>
        <pt x="199" y="334" on="1"/>
        <pt x="122" y="0" on="1"/>
        <pt x="86" y="0" on="1"/>
        <pt x="248" y="700" on="1"/>
        <pt x="284" y="700" on="1"/>
        <pt x="207" y="367" on="1"/>
        <pt x="589" y="367" on="1"/>
        <pt x="666" y="700" on="1"/>
        <pt x="702" y="700" on="1"/>
        <pt x="540" y="0" on="1"/>
      </contour>
      <contour>
        <pt x="354" y="803" on="1"/>
        <pt x="510" y="931" on="1"/>
        <pt x="524" y="931" on="1"/>
        <pt x="621" y="803" on="1"/>
        <pt x="587" y="803" on="1"/>
        <pt x="514" y="900" on="1"/>
        <pt x="395" y="803" on="1"/>
      </contour>
    </TTGlyph>
    <TTGlyph name="I" xMin="86" yMin="0" xMax="284" yMax="700">
      <contour>
        <pt x="86" y="0" on="1"/>
        <pt x="248" y="700" on="1"/>
        <pt x="284" y="700" on="1"/>
        <pt x="122" y="0" on="1"/>
      </contour>
    </TTGlyph>
    <TTGlyph name="Iacute" xMin="86" yMin="0" xMax="450" yMax="919">
      <contour>
        <pt x="245" y="798" on="1"/>
        <pt x="237" y="823" on="1"/>
        <pt x="441" y="919" on="1"/>
        <pt x="450" y="890" on="1"/>
      </contour>
      <contour>
        <pt x="86" y="0" on="1"/>
        <pt x="248" y="700" on="1"/>
        <pt x="284" y="700" on="1"/>
        <pt x="122" y="0" on="1"/>
      </contour>
    </TTGlyph>
    <TTGlyph name="Ibreve" xMin="86" yMin="0" xMax="438" yMax="920">
      <contour>
        <pt x="218" y="920" on="1"/>
        <pt x="215" y="905" on="0"/>
        <pt x="215" y="866" on="0"/>
        <pt x="248" y="833" on="0"/>
        <pt x="332" y="833" on="0"/>
        <pt x="398" y="881" on="0"/>
        <pt x="408" y="920" on="1"/>
        <pt x="438" y="920" on="1"/>
        <pt x="424" y="864" on="0"/>
        <pt x="341" y="803" on="0"/>
        <pt x="285" y="803" on="1"/>
        <pt x="185" y="803" on="0"/>
        <pt x="185" y="886" on="1"/>
        <pt x="185" y="902" on="0"/>
        <pt x="188" y="920" on="1"/>
      </contour>
      <contour>
        <pt x="86" y="0" on="1"/>
        <pt x="248" y="700" on="1"/>
        <pt x="284" y="700" on="1"/>
        <pt x="122" y="0" on="1"/>
      </contour>
    </TTGlyph>
    <TTGlyph name="Icircumflex" xMin="86" yMin="0" xMax="418" yMax="926">
      <contour>
        <pt x="151" y="798" on="1"/>
        <pt x="307" y="926" on="1"/>
        <pt x="321" y="926" on="1"/>
        <pt x="418" y="798" on="1"/>
        <pt x="384" y="798" on="1"/>
        <pt x="311" y="895" on="1"/>
        <pt x="192" y="798" on="1"/>
      </contour>
      <contour>
        <pt x="86" y="0" on="1"/>
        <pt x="248" y="700" on="1"/>
        <pt x="284" y="700" on="1"/>
        <pt x="122" y="0" on="1"/>
      </contour>
    </TTGlyph>
    <TTGlyph name="Idieresis" xMin="86" yMin="0" xMax="407" yMax="897">
      <contour>
        <pt x="183" y="831" on="1"/>
        <pt x="197" y="897" on="1"/>
        <pt x="227" y="897" on="1"/>
        <pt x="210" y="831" on="1"/>
      </contour>
      <contour>
        <pt x="362" y="831" on="1"/>
        <pt x="378" y="897" on="1"/>
        <pt x="407" y="897" on="1"/>
        <pt x="391" y="831" on="1"/>
      </contour>
      <contour>
        <pt x="86" y="0" on="1"/>
        <pt x="248" y="700" on="1"/>
        <pt x="284" y="700" on="1"/>
        <pt x="122" y="0" on="1"/>
      </contour>
    </TTGlyph>
    <TTGlyph name="Idotaccent" xMin="86" yMin="0" xMax="322" yMax="927">
      <contour>
        <pt x="282" y="869" on="1"/>
        <pt x="294" y="927" on="1"/>
        <pt x="322" y="927" on="1"/>
        <pt x="311" y="869" on="1"/>
      </contour>
      <contour>
        <pt x="86" y="0" on="1"/>
        <pt x="248" y="700" on="1"/>
        <pt x="284" y="700" on="1"/>
        <pt x="122" y="0" on="1"/>
      </contour>
    </TTGlyph>
    <TTGlyph name="Igrave" xMin="86" yMin="0" xMax="330" yMax="917">
      <contour>
        <pt x="170" y="917" on="1"/>
        <pt x="330" y="820" on="1"/>
        <pt x="315" y="798" on="1"/>
        <pt x="153" y="890" on="1"/>
      </contour>
      <contour>
        <pt x="86" y="0" on="1"/>
        <pt x="248" y="700" on="1"/>
        <pt x="284" y="700" on="1"/>
        <pt x="122" y="0" on="1"/>
      </contour>
    </TTGlyph>
    <TTGlyph name="Imacron" xMin="86" yMin="0" xMax="432" yMax="871">
      <contour>
        <pt x="155" y="845" on="1"/>
        <pt x="160" y="871" on="1"/>
        <pt x="432" y="871" on="1"/>
        <pt x="425" y="845" on="1"/>
      </contour>
      <contour>
        <pt x="86" y="0" on="1"/>
        <pt x="248" y="700" on="1"/>
        <pt x="284" y="700" on="1"/>
        <pt x="122" y="0" on="1"/>
      </contour>
    </TTGlyph>
    <TTGlyph name="Iogonek" xMin="-25" yMin="-198" xMax="284" yMax="700">
      <contour>
        <pt x="37" y="-198" on="1"/>
        <pt x="-25" y="-198" on="0"/>
        <pt x="-25" y="-144" on="1"/>
        <pt x="-25" y="-110" on="0"/>
        <pt x="50" y="-21" on="0"/>
        <pt x="88" y="9" on="1"/>
        <pt x="248" y="700" on="1"/>
        <pt x="284" y="700" on="1"/>
        <pt x="122" y="0" on="1"/>
        <pt x="86" y="-28" on="0"/>
        <pt x="15" y="-112" on="0"/>
        <pt x="15" y="-141" on="1"/>
        <pt x="15" y="-165" on="0"/>
        <pt x="47" y="-165" on="1"/>
        <pt x="103" y="-158" on="1"/>
        <pt x="99" y="-190" on="1"/>
        <pt x="63" y="-198" on="0"/>
      </contour>
    </TTGlyph>
    <TTGlyph name="Itilde" xMin="86" yMin="0" xMax="454" yMax="912">
      <contour>
        <pt x="454" y="875" on="1"/>
        <pt x="391" y="818" on="0"/>
        <pt x="342" y="818" on="0"/>
        <pt x="241" y="882" on="0"/>
        <pt x="230" y="882" on="1"/>
        <pt x="212" y="882" on="0"/>
        <pt x="157" y="840" on="1"/>
        <pt x="139" y="827" on="1"/>
        <pt x="138" y="855" on="1"/>
        <pt x="204" y="912" on="0"/>
        <pt x="257" y="912" on="0"/>
        <pt x="357" y="849" on="0"/>
        <pt x="368" y="849" on="1"/>
        <pt x="387" y="849" on="0"/>
        <pt x="434" y="887" on="1"/>
        <pt x="450" y="900" on="1"/>
      </contour>
      <contour>
        <pt x="86" y="0" on="1"/>
        <pt x="248" y="700" on="1"/>
        <pt x="284" y="700" on="1"/>
        <pt x="122" y="0" on="1"/>
      </contour>
    </TTGlyph>
    <TTGlyph name="J" xMin="7" yMin="-71" xMax="332" yMax="700">
      <contour>
        <pt x="332" y="700" on="1"/>
        <pt x="195" y="107" on="1"/>
        <pt x="181" y="46" on="0"/>
        <pt x="161" y="-12" on="0"/>
        <pt x="120" y="-58" on="0"/>
        <pt x="60" y="-71" on="0"/>
        <pt x="7" y="-71" on="1"/>
        <pt x="13" y="-38" on="1"/>
        <pt x="88" y="-38" on="0"/>
        <pt x="138" y="16" on="0"/>
        <pt x="161" y="116" on="1"/>
        <pt x="296" y="700" on="1"/>
      </contour>
    </TTGlyph>
    <TTGlyph name="Jcircumflex" xMin="7" yMin="-71" xMax="461" yMax="931">
      <contour>
        <pt x="332" y="700" on="1"/>
        <pt x="195" y="107" on="1"/>
        <pt x="181" y="46" on="0"/>
        <pt x="161" y="-12" on="0"/>
        <pt x="120" y="-58" on="0"/>
        <pt x="60" y="-71" on="0"/>
        <pt x="7" y="-71" on="1"/>
        <pt x="13" y="-38" on="1"/>
        <pt x="88" y="-38" on="0"/>
        <pt x="138" y="16" on="0"/>
        <pt x="161" y="116" on="1"/>
        <pt x="296" y="700" on="1"/>
      </contour>
      <contour>
        <pt x="194" y="803" on="1"/>
        <pt x="350" y="931" on="1"/>
        <pt x="364" y="931" on="1"/>
        <pt x="461" y="803" on="1"/>
        <pt x="427" y="803" on="1"/>
        <pt x="354" y="900" on="1"/>
        <pt x="235" y="803" on="1"/>
      </contour>
    </TTGlyph>
    <TTGlyph name="K" xMin="86" yMin="0" xMax="648" yMax="700">
      <contour>
        <pt x="448" y="0" on="1"/>
        <pt x="314" y="329" on="1"/>
        <pt x="198" y="329" on="1"/>
        <pt x="122" y="0" on="1"/>
        <pt x="86" y="0" on="1"/>
        <pt x="248" y="700" on="1"/>
        <pt x="284" y="700" on="1"/>
        <pt x="205" y="362" on="1"/>
        <pt x="315" y="362" on="1"/>
        <pt x="605" y="700" on="1"/>
        <pt x="648" y="700" on="1"/>
        <pt x="344" y="346" on="1"/>
        <pt x="486" y="0" on="1"/>
      </contour>
    </TTGlyph>
    <TTGlyph name="Kcommaaccent" xMin="86" yMin="-265" xMax="648" yMax="700">
      <contour>
        <pt x="239" y="-73" on="1"/>
        <pt x="273" y="-73" on="1"/>
        <pt x="185" y="-265" on="1"/>
        <pt x="159" y="-265" on="1"/>
      </contour>
      <contour>
        <pt x="448" y="0" on="1"/>
        <pt x="314" y="329" on="1"/>
        <pt x="198" y="329" on="1"/>
        <pt x="122" y="0" on="1"/>
        <pt x="86" y="0" on="1"/>
        <pt x="248" y="700" on="1"/>
        <pt x="284" y="700" on="1"/>
        <pt x="205" y="362" on="1"/>
        <pt x="315" y="362" on="1"/>
        <pt x="605" y="700" on="1"/>
        <pt x="648" y="700" on="1"/>
        <pt x="344" y="346" on="1"/>
        <pt x="486" y="0" on="1"/>
      </contour>
    </TTGlyph>
    <TTGlyph name="L" xMin="86" yMin="0" xMax="440" yMax="700">
      <contour>
        <pt x="432" y="0" on="1"/>
        <pt x="86" y="0" on="1"/>
        <pt x="248" y="700" on="1"/>
        <pt x="284" y="700" on="1"/>
        <pt x="130" y="33" on="1"/>
        <pt x="440" y="33" on="1"/>
      </contour>
    </TTGlyph>
    <TTGlyph name="Lacute" xMin="86" yMin="0" xMax="531" yMax="919">
      <contour>
        <pt x="326" y="798" on="1"/>
        <pt x="318" y="823" on="1"/>
        <pt x="522" y="919" on="1"/>
        <pt x="531" y="890" on="1"/>
      </contour>
      <contour>
        <pt x="432" y="0" on="1"/>
        <pt x="86" y="0" on="1"/>
        <pt x="248" y="700" on="1"/>
        <pt x="284" y="700" on="1"/>
        <pt x="130" y="33" on="1"/>
        <pt x="440" y="33" on="1"/>
      </contour>
    </TTGlyph>
    <TTGlyph name="Lcaron" xMin="86" yMin="0" xMax="530" yMax="700">
      <contour>
        <pt x="530" y="700" on="1"/>
        <pt x="479" y="480" on="1"/>
        <pt x="447" y="480" on="1"/>
        <pt x="498" y="700" on="1"/>
      </contour>
      <contour>
        <pt x="432" y="0" on="1"/>
        <pt x="86" y="0" on="1"/>
        <pt x="248" y="700" on="1"/>
        <pt x="284" y="700" on="1"/>
        <pt x="130" y="33" on="1"/>
        <pt x="440" y="33" on="1"/>
      </contour>
    </TTGlyph>
    <TTGlyph name="Lcommaaccent" xMin="86" yMin="-265" xMax="440" yMax="700">
      <contour>
        <pt x="235" y="-73" on="1"/>
        <pt x="269" y="-73" on="1"/>
        <pt x="181" y="-265" on="1"/>
        <pt x="155" y="-265" on="1"/>
      </contour>
      <contour>
        <pt x="432" y="0" on="1"/>
        <pt x="86" y="0" on="1"/>
        <pt x="248" y="700" on="1"/>
        <pt x="284" y="700" on="1"/>
        <pt x="130" y="33" on="1"/>
        <pt x="440" y="33" on="1"/>
      </contour>
    </TTGlyph>
    <TTGlyph name="Lslash" xMin="75" yMin="0" xMax="442" yMax="700">
      <contour>
        <pt x="434" y="0" on="1"/>
        <pt x="88" y="0" on="1"/>
        <pt x="159" y="307" on="1"/>
        <pt x="89" y="263" on="1"/>
        <pt x="88" y="263" on="0"/>
        <pt x="88" y="265" on="1"/>
        <pt x="75" y="293" on="1"/>
        <pt x="169" y="352" on="1"/>
        <pt x="250" y="700" on="1"/>
        <pt x="286" y="700" on="1"/>
        <pt x="212" y="379" on="1"/>
        <pt x="394" y="493" on="1"/>
        <pt x="405" y="463" on="1"/>
        <pt x="201" y="334" on="1"/>
        <pt x="132" y="33" on="1"/>
        <pt x="442" y="33" on="1"/>
      </contour>
    </TTGlyph>
    <TTGlyph name="M" xMin="86" yMin="0" xMax="850" yMax="700">
      <contour>
        <pt x="86" y="0" on="1"/>
        <pt x="248" y="700" on="1"/>
        <pt x="321" y="700" on="1"/>
        <pt x="393" y="54" on="1"/>
        <pt x="777" y="700" on="1"/>
        <pt x="850" y="700" on="1"/>
        <pt x="688" y="0" on="1"/>
        <pt x="652" y="0" on="1"/>
        <pt x="807" y="667" on="1"/>
        <pt x="794" y="667" on="1"/>
        <pt x="412" y="21" on="1"/>
        <pt x="366" y="21" on="1"/>
        <pt x="290" y="667" on="1"/>
        <pt x="276" y="667" on="1"/>
        <pt x="122" y="0" on="1"/>
      </contour>
    </TTGlyph>
    <TTGlyph name="N" xMin="86" yMin="0" xMax="693" yMax="700">
      <contour>
        <pt x="86" y="0" on="1"/>
        <pt x="248" y="700" on="1"/>
        <pt x="329" y="700" on="1"/>
        <pt x="479" y="33" on="1"/>
        <pt x="503" y="33" on="1"/>
        <pt x="657" y="700" on="1"/>
        <pt x="693" y="700" on="1"/>
        <pt x="531" y="0" on="1"/>
        <pt x="452" y="0" on="1"/>
        <pt x="301" y="667" on="1"/>
        <pt x="276" y="667" on="1"/>
        <pt x="122" y="0" on="1"/>
      </contour>
    </TTGlyph>
    <TTGlyph name="Nacute" xMin="86" yMin="0" xMax="693" yMax="919">
      <contour>
        <pt x="411" y="798" on="1"/>
        <pt x="403" y="823" on="1"/>
        <pt x="607" y="919" on="1"/>
        <pt x="616" y="890" on="1"/>
      </contour>
      <contour>
        <pt x="86" y="0" on="1"/>
        <pt x="248" y="700" on="1"/>
        <pt x="329" y="700" on="1"/>
        <pt x="479" y="33" on="1"/>
        <pt x="503" y="33" on="1"/>
        <pt x="657" y="700" on="1"/>
        <pt x="693" y="700" on="1"/>
        <pt x="531" y="0" on="1"/>
        <pt x="452" y="0" on="1"/>
        <pt x="301" y="667" on="1"/>
        <pt x="276" y="667" on="1"/>
        <pt x="122" y="0" on="1"/>
      </contour>
    </TTGlyph>
    <TTGlyph name="Ncaron" xMin="86" yMin="0" xMax="693" yMax="926">
      <contour>
        <pt x="654" y="926" on="1"/>
        <pt x="499" y="798" on="1"/>
        <pt x="482" y="798" on="1"/>
        <pt x="382" y="926" on="1"/>
        <pt x="417" y="926" on="1"/>
        <pt x="494" y="827" on="1"/>
        <pt x="614" y="926" on="1"/>
      </contour>
      <contour>
        <pt x="86" y="0" on="1"/>
        <pt x="248" y="700" on="1"/>
        <pt x="329" y="700" on="1"/>
        <pt x="479" y="33" on="1"/>
        <pt x="503" y="33" on="1"/>
        <pt x="657" y="700" on="1"/>
        <pt x="693" y="700" on="1"/>
        <pt x="531" y="0" on="1"/>
        <pt x="452" y="0" on="1"/>
        <pt x="301" y="667" on="1"/>
        <pt x="276" y="667" on="1"/>
        <pt x="122" y="0" on="1"/>
      </contour>
    </TTGlyph>
    <TTGlyph name="Ncommaaccent" xMin="86" yMin="-265" xMax="693" yMax="700">
      <contour>
        <pt x="281" y="-73" on="1"/>
        <pt x="315" y="-73" on="1"/>
        <pt x="227" y="-265" on="1"/>
        <pt x="201" y="-265" on="1"/>
      </contour>
      <contour>
        <pt x="86" y="0" on="1"/>
        <pt x="248" y="700" on="1"/>
        <pt x="329" y="700" on="1"/>
        <pt x="479" y="33" on="1"/>
        <pt x="503" y="33" on="1"/>
        <pt x="657" y="700" on="1"/>
        <pt x="693" y="700" on="1"/>
        <pt x="531" y="0" on="1"/>
        <pt x="452" y="0" on="1"/>
        <pt x="301" y="667" on="1"/>
        <pt x="276" y="667" on="1"/>
        <pt x="122" y="0" on="1"/>
      </contour>
    </TTGlyph>
    <TTGlyph name="Ntilde" xMin="86" yMin="0" xMax="693" yMax="912">
      <contour>
        <pt x="665" y="875" on="1"/>
        <pt x="602" y="818" on="0"/>
        <pt x="553" y="818" on="0"/>
        <pt x="452" y="882" on="0"/>
        <pt x="441" y="882" on="1"/>
        <pt x="423" y="882" on="0"/>
        <pt x="368" y="840" on="1"/>
        <pt x="350" y="827" on="1"/>
        <pt x="349" y="855" on="1"/>
        <pt x="415" y="912" on="0"/>
        <pt x="468" y="912" on="0"/>
        <pt x="568" y="849" on="0"/>
        <pt x="579" y="849" on="1"/>
        <pt x="598" y="849" on="0"/>
        <pt x="645" y="887" on="1"/>
        <pt x="661" y="900" on="1"/>
      </contour>
      <contour>
        <pt x="86" y="0" on="1"/>
        <pt x="248" y="700" on="1"/>
        <pt x="329" y="700" on="1"/>
        <pt x="479" y="33" on="1"/>
        <pt x="503" y="33" on="1"/>
        <pt x="657" y="700" on="1"/>
        <pt x="693" y="700" on="1"/>
        <pt x="531" y="0" on="1"/>
        <pt x="452" y="0" on="1"/>
        <pt x="301" y="667" on="1"/>
        <pt x="276" y="667" on="1"/>
        <pt x="122" y="0" on="1"/>
      </contour>
    </TTGlyph>
    <TTGlyph name="O" xMin="122" yMin="-9" xMax="674" yMax="709">
      <contour>
        <pt x="159" y="102" on="0"/>
        <pt x="238" y="24" on="0"/>
        <pt x="408" y="24" on="0"/>
        <pt x="469" y="69" on="1"/>
        <pt x="550" y="130" on="0"/>
        <pt x="636" y="377" on="0"/>
        <pt x="636" y="504" on="1"/>
        <pt x="636" y="593" on="0"/>
        <pt x="552" y="676" on="0"/>
        <pt x="395" y="676" on="0"/>
        <pt x="336" y="633" on="1"/>
        <pt x="253" y="572" on="0"/>
        <pt x="159" y="318" on="0"/>
        <pt x="159" y="196" on="1"/>
      </contour>
      <contour>
        <pt x="674" y="369" on="0"/>
        <pt x="588" y="123" on="0"/>
        <pt x="430" y="-9" on="0"/>
        <pt x="218" y="-9" on="0"/>
        <pt x="122" y="84" on="0"/>
        <pt x="122" y="323" on="0"/>
        <pt x="207" y="563" on="0"/>
        <pt x="363" y="709" on="0"/>
        <pt x="570" y="709" on="0"/>
        <pt x="674" y="609" on="0"/>
        <pt x="674" y="503" on="1"/>
      </contour>
    </TTGlyph>
    <TTGlyph name="OE" xMin="115" yMin="-9" xMax="992" yMax="709">
      <contour>
        <pt x="305" y="-9" on="1"/>
        <pt x="205" y="-9" on="0"/>
        <pt x="115" y="81" on="0"/>
        <pt x="115" y="171" on="1"/>
        <pt x="115" y="239" on="0"/>
        <pt x="140" y="345" on="1"/>
        <pt x="184" y="528" on="0"/>
        <pt x="337" y="709" on="0"/>
        <pt x="474" y="709" on="1"/>
        <pt x="530" y="709" on="0"/>
        <pt x="620" y="700" on="1"/>
        <pt x="992" y="700" on="1"/>
        <pt x="985" y="662" on="1"/>
        <pt x="647" y="662" on="1"/>
        <pt x="578" y="379" on="1"/>
        <pt x="859" y="379" on="1"/>
        <pt x="852" y="341" on="1"/>
        <pt x="571" y="343" on="1"/>
        <pt x="499" y="38" on="1"/>
        <pt x="837" y="38" on="1"/>
        <pt x="827" y="-1" on="1"/>
        <pt x="456" y="-1" on="1"/>
        <pt x="358" y="-9" on="0"/>
      </contour>
      <contour>
        <pt x="313" y="29" on="1"/>
        <pt x="368" y="29" on="0"/>
        <pt x="463" y="38" on="1"/>
        <pt x="611" y="664" on="1"/>
        <pt x="550" y="671" on="0"/>
        <pt x="466" y="671" on="1"/>
        <pt x="344" y="671" on="0"/>
        <pt x="216" y="514" on="0"/>
        <pt x="177" y="347" on="1"/>
        <pt x="152" y="242" on="0"/>
        <pt x="152" y="102" on="0"/>
        <pt x="227" y="29" on="0"/>
      </contour>
    </TTGlyph>
    <TTGlyph name="Oacute" xMin="122" yMin="-9" xMax="674" yMax="919">
      <contour>
        <pt x="159" y="102" on="0"/>
        <pt x="238" y="24" on="0"/>
        <pt x="408" y="24" on="0"/>
        <pt x="469" y="69" on="1"/>
        <pt x="550" y="130" on="0"/>
        <pt x="636" y="377" on="0"/>
        <pt x="636" y="504" on="1"/>
        <pt x="636" y="593" on="0"/>
        <pt x="552" y="676" on="0"/>
        <pt x="395" y="676" on="0"/>
        <pt x="336" y="633" on="1"/>
        <pt x="253" y="572" on="0"/>
        <pt x="159" y="318" on="0"/>
        <pt x="159" y="196" on="1"/>
      </contour>
      <contour>
        <pt x="674" y="369" on="0"/>
        <pt x="588" y="123" on="0"/>
        <pt x="430" y="-9" on="0"/>
        <pt x="218" y="-9" on="0"/>
        <pt x="122" y="84" on="0"/>
        <pt x="122" y="323" on="0"/>
        <pt x="207" y="563" on="0"/>
        <pt x="363" y="709" on="0"/>
        <pt x="570" y="709" on="0"/>
        <pt x="674" y="609" on="0"/>
        <pt x="674" y="503" on="1"/>
      </contour>
      <contour>
        <pt x="449" y="798" on="1"/>
        <pt x="441" y="823" on="1"/>
        <pt x="645" y="919" on="1"/>
        <pt x="654" y="890" on="1"/>
      </contour>
    </TTGlyph>
    <TTGlyph name="Obreve" xMin="122" yMin="-9" xMax="674" yMax="921">
      <contour>
        <pt x="429" y="921" on="1"/>
        <pt x="426" y="906" on="0"/>
        <pt x="426" y="867" on="0"/>
        <pt x="459" y="834" on="0"/>
        <pt x="543" y="834" on="0"/>
        <pt x="609" y="882" on="0"/>
        <pt x="619" y="921" on="1"/>
        <pt x="649" y="921" on="1"/>
        <pt x="635" y="865" on="0"/>
        <pt x="552" y="804" on="0"/>
        <pt x="496" y="804" on="1"/>
        <pt x="396" y="804" on="0"/>
        <pt x="396" y="887" on="1"/>
        <pt x="396" y="903" on="0"/>
        <pt x="399" y="921" on="1"/>
      </contour>
      <contour>
        <pt x="159" y="102" on="0"/>
        <pt x="238" y="24" on="0"/>
        <pt x="408" y="24" on="0"/>
        <pt x="469" y="69" on="1"/>
        <pt x="550" y="130" on="0"/>
        <pt x="636" y="377" on="0"/>
        <pt x="636" y="504" on="1"/>
        <pt x="636" y="593" on="0"/>
        <pt x="552" y="676" on="0"/>
        <pt x="395" y="676" on="0"/>
        <pt x="336" y="633" on="1"/>
        <pt x="253" y="572" on="0"/>
        <pt x="159" y="318" on="0"/>
        <pt x="159" y="196" on="1"/>
      </contour>
      <contour>
        <pt x="674" y="369" on="0"/>
        <pt x="588" y="123" on="0"/>
        <pt x="430" y="-9" on="0"/>
        <pt x="218" y="-9" on="0"/>
        <pt x="122" y="84" on="0"/>
        <pt x="122" y="323" on="0"/>
        <pt x="207" y="563" on="0"/>
        <pt x="363" y="709" on="0"/>
        <pt x="570" y="709" on="0"/>
        <pt x="674" y="609" on="0"/>
        <pt x="674" y="503" on="1"/>
      </contour>
    </TTGlyph>
    <TTGlyph name="Ocircumflex" xMin="122" yMin="-9" xMax="674" yMax="931">
      <contour>
        <pt x="159" y="102" on="0"/>
        <pt x="238" y="24" on="0"/>
        <pt x="408" y="24" on="0"/>
        <pt x="469" y="69" on="1"/>
        <pt x="550" y="130" on="0"/>
        <pt x="636" y="377" on="0"/>
        <pt x="636" y="504" on="1"/>
        <pt x="636" y="593" on="0"/>
        <pt x="552" y="676" on="0"/>
        <pt x="395" y="676" on="0"/>
        <pt x="336" y="633" on="1"/>
        <pt x="253" y="572" on="0"/>
        <pt x="159" y="318" on="0"/>
        <pt x="159" y="196" on="1"/>
      </contour>
      <contour>
        <pt x="674" y="369" on="0"/>
        <pt x="588" y="123" on="0"/>
        <pt x="430" y="-9" on="0"/>
        <pt x="218" y="-9" on="0"/>
        <pt x="122" y="84" on="0"/>
        <pt x="122" y="323" on="0"/>
        <pt x="207" y="563" on="0"/>
        <pt x="363" y="709" on="0"/>
        <pt x="570" y="709" on="0"/>
        <pt x="674" y="609" on="0"/>
        <pt x="674" y="503" on="1"/>
      </contour>
      <contour>
        <pt x="372" y="803" on="1"/>
        <pt x="528" y="931" on="1"/>
        <pt x="542" y="931" on="1"/>
        <pt x="639" y="803" on="1"/>
        <pt x="605" y="803" on="1"/>
        <pt x="532" y="900" on="1"/>
        <pt x="413" y="803" on="1"/>
      </contour>
    </TTGlyph>
    <TTGlyph name="Odieresis" xMin="122" yMin="-9" xMax="674" yMax="898">
      <contour>
        <pt x="404" y="833" on="1"/>
        <pt x="419" y="898" on="1"/>
        <pt x="453" y="898" on="1"/>
        <pt x="438" y="833" on="1"/>
      </contour>
      <contour>
        <pt x="584" y="833" on="1"/>
        <pt x="597" y="898" on="1"/>
        <pt x="631" y="898" on="1"/>
        <pt x="616" y="833" on="1"/>
      </contour>
      <contour>
        <pt x="159" y="102" on="0"/>
        <pt x="238" y="24" on="0"/>
        <pt x="408" y="24" on="0"/>
        <pt x="469" y="69" on="1"/>
        <pt x="550" y="130" on="0"/>
        <pt x="636" y="377" on="0"/>
        <pt x="636" y="504" on="1"/>
        <pt x="636" y="593" on="0"/>
        <pt x="552" y="676" on="0"/>
        <pt x="395" y="676" on="0"/>
        <pt x="336" y="633" on="1"/>
        <pt x="253" y="572" on="0"/>
        <pt x="159" y="318" on="0"/>
        <pt x="159" y="196" on="1"/>
      </contour>
      <contour>
        <pt x="674" y="369" on="0"/>
        <pt x="588" y="123" on="0"/>
        <pt x="430" y="-9" on="0"/>
        <pt x="218" y="-9" on="0"/>
        <pt x="122" y="84" on="0"/>
        <pt x="122" y="323" on="0"/>
        <pt x="207" y="563" on="0"/>
        <pt x="363" y="709" on="0"/>
        <pt x="570" y="709" on="0"/>
        <pt x="674" y="609" on="0"/>
        <pt x="674" y="503" on="1"/>
      </contour>
    </TTGlyph>
    <TTGlyph name="Ograve" xMin="122" yMin="-9" xMax="674" yMax="917">
      <contour>
        <pt x="424" y="917" on="1"/>
        <pt x="584" y="820" on="1"/>
        <pt x="569" y="798" on="1"/>
        <pt x="407" y="890" on="1"/>
      </contour>
      <contour>
        <pt x="159" y="102" on="0"/>
        <pt x="238" y="24" on="0"/>
        <pt x="408" y="24" on="0"/>
        <pt x="469" y="69" on="1"/>
        <pt x="550" y="130" on="0"/>
        <pt x="636" y="377" on="0"/>
        <pt x="636" y="504" on="1"/>
        <pt x="636" y="593" on="0"/>
        <pt x="552" y="676" on="0"/>
        <pt x="395" y="676" on="0"/>
        <pt x="336" y="633" on="1"/>
        <pt x="253" y="572" on="0"/>
        <pt x="159" y="318" on="0"/>
        <pt x="159" y="196" on="1"/>
      </contour>
      <contour>
        <pt x="674" y="369" on="0"/>
        <pt x="588" y="123" on="0"/>
        <pt x="430" y="-9" on="0"/>
        <pt x="218" y="-9" on="0"/>
        <pt x="122" y="84" on="0"/>
        <pt x="122" y="323" on="0"/>
        <pt x="207" y="563" on="0"/>
        <pt x="363" y="709" on="0"/>
        <pt x="570" y="709" on="0"/>
        <pt x="674" y="609" on="0"/>
        <pt x="674" y="503" on="1"/>
      </contour>
    </TTGlyph>
    <TTGlyph name="Ohungarumlaut" xMin="122" yMin="-9" xMax="750" yMax="903">
      <contour>
        <pt x="547" y="792" on="1"/>
        <pt x="543" y="816" on="1"/>
        <pt x="742" y="902" on="1"/>
        <pt x="750" y="879" on="1"/>
      </contour>
      <contour>
        <pt x="368" y="793" on="1"/>
        <pt x="362" y="816" on="1"/>
        <pt x="565" y="903" on="1"/>
        <pt x="569" y="879" on="1"/>
      </contour>
      <contour>
        <pt x="159" y="102" on="0"/>
        <pt x="238" y="24" on="0"/>
        <pt x="408" y="24" on="0"/>
        <pt x="469" y="69" on="1"/>
        <pt x="550" y="130" on="0"/>
        <pt x="636" y="377" on="0"/>
        <pt x="636" y="504" on="1"/>
        <pt x="636" y="593" on="0"/>
        <pt x="552" y="676" on="0"/>
        <pt x="395" y="676" on="0"/>
        <pt x="336" y="633" on="1"/>
        <pt x="253" y="572" on="0"/>
        <pt x="159" y="318" on="0"/>
        <pt x="159" y="196" on="1"/>
      </contour>
      <contour>
        <pt x="674" y="369" on="0"/>
        <pt x="588" y="123" on="0"/>
        <pt x="430" y="-9" on="0"/>
        <pt x="218" y="-9" on="0"/>
        <pt x="122" y="84" on="0"/>
        <pt x="122" y="323" on="0"/>
        <pt x="207" y="563" on="0"/>
        <pt x="363" y="709" on="0"/>
        <pt x="570" y="709" on="0"/>
        <pt x="674" y="609" on="0"/>
        <pt x="674" y="503" on="1"/>
      </contour>
    </TTGlyph>
    <TTGlyph name="Omacron" xMin="122" yMin="-9" xMax="674" yMax="861">
      <contour>
        <pt x="159" y="102" on="0"/>
        <pt x="238" y="24" on="0"/>
        <pt x="408" y="24" on="0"/>
        <pt x="469" y="69" on="1"/>
        <pt x="550" y="130" on="0"/>
        <pt x="636" y="377" on="0"/>
        <pt x="636" y="504" on="1"/>
        <pt x="636" y="593" on="0"/>
        <pt x="552" y="676" on="0"/>
        <pt x="395" y="676" on="0"/>
        <pt x="336" y="633" on="1"/>
        <pt x="253" y="572" on="0"/>
        <pt x="159" y="318" on="0"/>
        <pt x="159" y="196" on="1"/>
      </contour>
      <contour>
        <pt x="674" y="369" on="0"/>
        <pt x="588" y="123" on="0"/>
        <pt x="430" y="-9" on="0"/>
        <pt x="218" y="-9" on="0"/>
        <pt x="122" y="84" on="0"/>
        <pt x="122" y="323" on="0"/>
        <pt x="207" y="563" on="0"/>
        <pt x="363" y="709" on="0"/>
        <pt x="570" y="709" on="0"/>
        <pt x="674" y="609" on="0"/>
        <pt x="674" y="503" on="1"/>
      </contour>
      <contour>
        <pt x="374" y="835" on="1"/>
        <pt x="379" y="861" on="1"/>
        <pt x="651" y="861" on="1"/>
        <pt x="644" y="835" on="1"/>
      </contour>
    </TTGlyph>
    <TTGlyph name="Omega" xMin="88" yMin="-9" xMax="566" yMax="670">
      <contour>
        <pt x="88" y="25" on="1"/>
        <pt x="237" y="25" on="1"/>
        <pt x="224" y="50" on="0"/>
        <pt x="184" y="132" on="0"/>
        <pt x="118" y="317" on="0"/>
        <pt x="118" y="370" on="1"/>
        <pt x="118" y="527" on="0"/>
        <pt x="204" y="670" on="0"/>
        <pt x="450" y="670" on="0"/>
        <pt x="536" y="527" on="0"/>
        <pt x="536" y="370" on="1"/>
        <pt x="536" y="317" on="0"/>
        <pt x="476" y="144" on="0"/>
        <pt x="446" y="84" on="1"/>
        <pt x="416" y="25" on="1"/>
        <pt x="566" y="25" on="1"/>
        <pt x="566" y="-9" on="1"/>
        <pt x="377" y="-9" on="1"/>
        <pt x="377" y="20" on="1"/>
        <pt x="423" y="108" on="0"/>
        <pt x="498" y="315" on="0"/>
        <pt x="498" y="419" on="0"/>
        <pt x="491" y="498" on="0"/>
        <pt x="470" y="571" on="0"/>
        <pt x="452" y="592" on="1"/>
        <pt x="411" y="636" on="0"/>
        <pt x="327" y="636" on="1"/>
        <pt x="242" y="636" on="0"/>
        <pt x="202" y="592" on="1"/>
        <pt x="156" y="541" on="0"/>
        <pt x="156" y="360" on="1"/>
        <pt x="156" y="315" on="0"/>
        <pt x="216" y="145" on="0"/>
        <pt x="246" y="82" on="1"/>
        <pt x="277" y="20" on="1"/>
        <pt x="277" y="-9" on="1"/>
        <pt x="88" y="-9" on="1"/>
      </contour>
    </TTGlyph>
    <TTGlyph name="Oslash" xMin="79" yMin="-110" xMax="712" yMax="791">
      <contour>
        <pt x="169" y="38" on="1"/>
        <pt x="122" y="85" on="0"/>
        <pt x="122" y="323" on="0"/>
        <pt x="207" y="563" on="0"/>
        <pt x="363" y="709" on="0"/>
        <pt x="552" y="709" on="0"/>
        <pt x="602" y="674" on="1"/>
        <pt x="682" y="791" on="1"/>
        <pt x="712" y="777" on="1"/>
        <pt x="627" y="653" on="1"/>
        <pt x="674" y="601" on="0"/>
        <pt x="674" y="503" on="1"/>
        <pt x="674" y="369" on="0"/>
        <pt x="588" y="123" on="0"/>
        <pt x="430" y="-9" on="0"/>
        <pt x="243" y="-9" on="0"/>
        <pt x="194" y="19" on="1"/>
        <pt x="106" y="-110" on="1"/>
        <pt x="79" y="-94" on="1"/>
      </contour>
      <contour>
        <pt x="582" y="644" on="1"/>
        <pt x="539" y="676" on="0"/>
        <pt x="395" y="676" on="0"/>
        <pt x="336" y="633" on="1"/>
        <pt x="253" y="572" on="0"/>
        <pt x="159" y="318" on="0"/>
        <pt x="159" y="196" on="1"/>
        <pt x="159" y="112" on="0"/>
        <pt x="191" y="71" on="1"/>
      </contour>
      <contour>
        <pt x="215" y="50" on="1"/>
        <pt x="255" y="24" on="0"/>
        <pt x="408" y="24" on="0"/>
        <pt x="469" y="69" on="1"/>
        <pt x="550" y="130" on="0"/>
        <pt x="636" y="377" on="0"/>
        <pt x="636" y="504" on="1"/>
        <pt x="636" y="580" on="0"/>
        <pt x="605" y="621" on="1"/>
        <pt x="409" y="332" on="1"/>
      </contour>
    </TTGlyph>
    <TTGlyph name="Oslashacute" xMin="80" yMin="-110" xMax="713" yMax="919">
      <contour>
        <pt x="170" y="38" on="1"/>
        <pt x="123" y="85" on="0"/>
        <pt x="123" y="323" on="0"/>
        <pt x="208" y="563" on="0"/>
        <pt x="364" y="709" on="0"/>
        <pt x="553" y="709" on="0"/>
        <pt x="603" y="674" on="1"/>
        <pt x="683" y="791" on="1"/>
        <pt x="713" y="777" on="1"/>
        <pt x="628" y="653" on="1"/>
        <pt x="675" y="601" on="0"/>
        <pt x="675" y="503" on="1"/>
        <pt x="675" y="369" on="0"/>
        <pt x="589" y="123" on="0"/>
        <pt x="431" y="-9" on="0"/>
        <pt x="244" y="-9" on="0"/>
        <pt x="195" y="19" on="1"/>
        <pt x="107" y="-110" on="1"/>
        <pt x="80" y="-94" on="1"/>
      </contour>
      <contour>
        <pt x="583" y="644" on="1"/>
        <pt x="540" y="676" on="0"/>
        <pt x="396" y="676" on="0"/>
        <pt x="337" y="633" on="1"/>
        <pt x="254" y="572" on="0"/>
        <pt x="160" y="318" on="0"/>
        <pt x="160" y="196" on="1"/>
        <pt x="160" y="112" on="0"/>
        <pt x="192" y="71" on="1"/>
      </contour>
      <contour>
        <pt x="216" y="50" on="1"/>
        <pt x="256" y="24" on="0"/>
        <pt x="409" y="24" on="0"/>
        <pt x="470" y="69" on="1"/>
        <pt x="551" y="130" on="0"/>
        <pt x="637" y="377" on="0"/>
        <pt x="637" y="504" on="1"/>
        <pt x="637" y="580" on="0"/>
        <pt x="606" y="621" on="1"/>
        <pt x="410" y="332" on="1"/>
      </contour>
      <contour>
        <pt x="442" y="793" on="1"/>
        <pt x="433" y="823" on="1"/>
        <pt x="637" y="919" on="1"/>
        <pt x="647" y="885" on="1"/>
      </contour>
    </TTGlyph>
    <TTGlyph name="Otilde" xMin="122" yMin="-9" xMax="682" yMax="912">
      <contour>
        <pt x="682" y="875" on="1"/>
        <pt x="619" y="818" on="0"/>
        <pt x="570" y="818" on="0"/>
        <pt x="469" y="882" on="0"/>
        <pt x="458" y="882" on="1"/>
        <pt x="440" y="882" on="0"/>
        <pt x="385" y="840" on="1"/>
        <pt x="367" y="827" on="1"/>
        <pt x="366" y="855" on="1"/>
        <pt x="432" y="912" on="0"/>
        <pt x="485" y="912" on="0"/>
        <pt x="585" y="849" on="0"/>
        <pt x="596" y="849" on="1"/>
        <pt x="615" y="849" on="0"/>
        <pt x="662" y="887" on="1"/>
        <pt x="678" y="900" on="1"/>
      </contour>
      <contour>
        <pt x="159" y="102" on="0"/>
        <pt x="238" y="24" on="0"/>
        <pt x="408" y="24" on="0"/>
        <pt x="469" y="69" on="1"/>
        <pt x="550" y="130" on="0"/>
        <pt x="636" y="377" on="0"/>
        <pt x="636" y="504" on="1"/>
        <pt x="636" y="593" on="0"/>
        <pt x="552" y="676" on="0"/>
        <pt x="395" y="676" on="0"/>
        <pt x="336" y="633" on="1"/>
        <pt x="253" y="572" on="0"/>
        <pt x="159" y="318" on="0"/>
        <pt x="159" y="196" on="1"/>
      </contour>
      <contour>
        <pt x="674" y="369" on="0"/>
        <pt x="588" y="123" on="0"/>
        <pt x="430" y="-9" on="0"/>
        <pt x="218" y="-9" on="0"/>
        <pt x="122" y="84" on="0"/>
        <pt x="122" y="323" on="0"/>
        <pt x="207" y="563" on="0"/>
        <pt x="363" y="709" on="0"/>
        <pt x="570" y="709" on="0"/>
        <pt x="674" y="609" on="0"/>
        <pt x="674" y="503" on="1"/>
      </contour>
    </TTGlyph>
    <TTGlyph name="P" xMin="86" yMin="0" xMax="626" yMax="700">
      <contour>
        <pt x="377" y="256" on="1"/>
        <pt x="181" y="256" on="1"/>
        <pt x="122" y="0" on="1"/>
        <pt x="86" y="0" on="1"/>
        <pt x="248" y="700" on="1"/>
        <pt x="481" y="700" on="1"/>
        <pt x="626" y="700" on="0"/>
        <pt x="626" y="555" on="1"/>
        <pt x="626" y="428" on="0"/>
        <pt x="497" y="256" on="0"/>
      </contour>
      <contour>
        <pt x="385" y="290" on="1"/>
        <pt x="485" y="290" on="0"/>
        <pt x="588" y="444" on="0"/>
        <pt x="588" y="555" on="1"/>
        <pt x="588" y="611" on="0"/>
        <pt x="534" y="666" on="0"/>
        <pt x="473" y="666" on="1"/>
        <pt x="276" y="666" on="1"/>
        <pt x="189" y="290" on="1"/>
      </contour>
    </TTGlyph>
    <TTGlyph name="Q" xMin="122" yMin="-139" xMax="674" yMax="709">
      <contour>
        <pt x="333" y="-9" on="1"/>
        <pt x="218" y="-9" on="0"/>
        <pt x="122" y="84" on="0"/>
        <pt x="122" y="323" on="0"/>
        <pt x="207" y="563" on="0"/>
        <pt x="363" y="709" on="0"/>
        <pt x="570" y="709" on="0"/>
        <pt x="674" y="609" on="0"/>
        <pt x="674" y="503" on="1"/>
        <pt x="674" y="369" on="0"/>
        <pt x="631" y="246" on="1"/>
        <pt x="574" y="83" on="0"/>
        <pt x="453" y="19" on="1"/>
        <pt x="501" y="-128" on="1"/>
        <pt x="467" y="-139" on="1"/>
        <pt x="420" y="5" on="1"/>
        <pt x="378" y="-9" on="0"/>
      </contour>
      <contour>
        <pt x="159" y="102" on="0"/>
        <pt x="238" y="24" on="0"/>
        <pt x="408" y="24" on="0"/>
        <pt x="469" y="69" on="1"/>
        <pt x="550" y="130" on="0"/>
        <pt x="636" y="377" on="0"/>
        <pt x="636" y="504" on="1"/>
        <pt x="636" y="593" on="0"/>
        <pt x="552" y="676" on="0"/>
        <pt x="395" y="676" on="0"/>
        <pt x="336" y="633" on="1"/>
        <pt x="253" y="572" on="0"/>
        <pt x="159" y="318" on="0"/>
        <pt x="159" y="196" on="1"/>
      </contour>
    </TTGlyph>
    <TTGlyph name="R" xMin="86" yMin="0" xMax="629" yMax="700">
      <contour>
        <pt x="470" y="700" on="1"/>
        <pt x="550" y="700" on="0"/>
        <pt x="629" y="631" on="0"/>
        <pt x="629" y="489" on="0"/>
        <pt x="591" y="389" on="0"/>
        <pt x="560" y="360" on="1"/>
        <pt x="502" y="305" on="0"/>
        <pt x="435" y="292" on="1"/>
        <pt x="524" y="0" on="1"/>
        <pt x="488" y="0" on="1"/>
        <pt x="400" y="288" on="1"/>
        <pt x="189" y="288" on="1"/>
        <pt x="122" y="0" on="1"/>
        <pt x="86" y="0" on="1"/>
        <pt x="248" y="700" on="1"/>
      </contour>
      <contour>
        <pt x="591" y="551" on="1"/>
        <pt x="591" y="615" on="0"/>
        <pt x="530" y="667" on="0"/>
        <pt x="462" y="667" on="1"/>
        <pt x="276" y="667" on="1"/>
        <pt x="196" y="321" on="1"/>
        <pt x="383" y="321" on="1"/>
        <pt x="477" y="321" on="0"/>
        <pt x="591" y="447" on="0"/>
      </contour>
    </TTGlyph>
    <TTGlyph name="Racute" xMin="86" yMin="0" xMax="629" yMax="919">
      <contour>
        <pt x="629" y="560" on="1"/>
        <pt x="629" y="425" on="0"/>
        <pt x="560" y="360" on="1"/>
        <pt x="502" y="305" on="0"/>
        <pt x="435" y="292" on="1"/>
        <pt x="524" y="0" on="1"/>
        <pt x="488" y="0" on="1"/>
        <pt x="400" y="288" on="1"/>
        <pt x="189" y="288" on="1"/>
        <pt x="122" y="0" on="1"/>
        <pt x="86" y="0" on="1"/>
        <pt x="248" y="700" on="1"/>
        <pt x="470" y="700" on="1"/>
        <pt x="629" y="700" on="0"/>
      </contour>
      <contour>
        <pt x="591" y="551" on="1"/>
        <pt x="591" y="615" on="0"/>
        <pt x="530" y="667" on="0"/>
        <pt x="462" y="667" on="1"/>
        <pt x="276" y="667" on="1"/>
        <pt x="196" y="321" on="1"/>
        <pt x="383" y="321" on="1"/>
        <pt x="477" y="321" on="0"/>
        <pt x="591" y="447" on="0"/>
      </contour>
      <contour>
        <pt x="374" y="798" on="1"/>
        <pt x="366" y="823" on="1"/>
        <pt x="570" y="919" on="1"/>
        <pt x="579" y="890" on="1"/>
      </contour>
    </TTGlyph>
    <TTGlyph name="Rcaron" xMin="86" yMin="0" xMax="629" yMax="926">
      <contour>
        <pt x="604" y="926" on="1"/>
        <pt x="449" y="798" on="1"/>
        <pt x="432" y="798" on="1"/>
        <pt x="332" y="926" on="1"/>
        <pt x="367" y="926" on="1"/>
        <pt x="444" y="827" on="1"/>
        <pt x="564" y="926" on="1"/>
      </contour>
      <contour>
        <pt x="629" y="560" on="1"/>
        <pt x="629" y="425" on="0"/>
        <pt x="560" y="360" on="1"/>
        <pt x="502" y="305" on="0"/>
        <pt x="435" y="292" on="1"/>
        <pt x="524" y="0" on="1"/>
        <pt x="488" y="0" on="1"/>
        <pt x="400" y="288" on="1"/>
        <pt x="189" y="288" on="1"/>
        <pt x="122" y="0" on="1"/>
        <pt x="86" y="0" on="1"/>
        <pt x="248" y="700" on="1"/>
        <pt x="470" y="700" on="1"/>
        <pt x="629" y="700" on="0"/>
      </contour>
      <contour>
        <pt x="591" y="551" on="1"/>
        <pt x="591" y="615" on="0"/>
        <pt x="530" y="667" on="0"/>
        <pt x="462" y="667" on="1"/>
        <pt x="276" y="667" on="1"/>
        <pt x="196" y="321" on="1"/>
        <pt x="383" y="321" on="1"/>
        <pt x="477" y="321" on="0"/>
        <pt x="591" y="447" on="0"/>
      </contour>
    </TTGlyph>
    <TTGlyph name="Rcommaaccent" xMin="86" yMin="-265" xMax="629" yMax="700">
      <contour>
        <pt x="186" y="-265" on="1"/>
        <pt x="266" y="-73" on="1"/>
        <pt x="300" y="-73" on="1"/>
        <pt x="212" y="-265" on="1"/>
      </contour>
      <contour>
        <pt x="470" y="700" on="1"/>
        <pt x="550" y="700" on="0"/>
        <pt x="629" y="631" on="0"/>
        <pt x="629" y="489" on="0"/>
        <pt x="591" y="389" on="0"/>
        <pt x="560" y="360" on="1"/>
        <pt x="502" y="305" on="0"/>
        <pt x="435" y="292" on="1"/>
        <pt x="524" y="0" on="1"/>
        <pt x="488" y="0" on="1"/>
        <pt x="400" y="288" on="1"/>
        <pt x="189" y="288" on="1"/>
        <pt x="122" y="0" on="1"/>
        <pt x="86" y="0" on="1"/>
        <pt x="248" y="700" on="1"/>
      </contour>
      <contour>
        <pt x="591" y="551" on="1"/>
        <pt x="591" y="615" on="0"/>
        <pt x="530" y="667" on="0"/>
        <pt x="462" y="667" on="1"/>
        <pt x="276" y="667" on="1"/>
        <pt x="196" y="321" on="1"/>
        <pt x="383" y="321" on="1"/>
        <pt x="477" y="321" on="0"/>
        <pt x="591" y="447" on="0"/>
      </contour>
    </TTGlyph>
    <TTGlyph name="S" xMin="60" yMin="-9" xMax="593" yMax="709">
      <contour>
        <pt x="415" y="676" on="1"/>
        <pt x="318" y="676" on="0"/>
        <pt x="209" y="583" on="0"/>
        <pt x="209" y="492" on="1"/>
        <pt x="209" y="444" on="0"/>
        <pt x="270" y="403" on="0"/>
        <pt x="432" y="355" on="0"/>
        <pt x="498" y="297" on="0"/>
        <pt x="498" y="233" on="1"/>
        <pt x="498" y="122" on="0"/>
        <pt x="367" y="-9" on="0"/>
        <pt x="256" y="-9" on="1"/>
        <pt x="171" y="-9" on="0"/>
        <pt x="90" y="4" on="1"/>
        <pt x="60" y="8" on="1"/>
        <pt x="67" y="41" on="1"/>
        <pt x="185" y="24" on="0"/>
        <pt x="355" y="24" on="0"/>
        <pt x="460" y="137" on="0"/>
        <pt x="460" y="232" on="1"/>
        <pt x="460" y="282" on="0"/>
        <pt x="410" y="325" on="0"/>
        <pt x="249" y="370" on="0"/>
        <pt x="172" y="428" on="0"/>
        <pt x="172" y="492" on="1"/>
        <pt x="172" y="598" on="0"/>
        <pt x="307" y="709" on="0"/>
        <pt x="422" y="709" on="1"/>
        <pt x="488" y="709" on="0"/>
        <pt x="568" y="693" on="1"/>
        <pt x="593" y="688" on="1"/>
        <pt x="587" y="658" on="1"/>
        <pt x="485" y="676" on="0"/>
      </contour>
    </TTGlyph>
    <TTGlyph name="Sacute" xMin="60" yMin="-9" xMax="593" yMax="919">
      <contour>
        <pt x="415" y="676" on="1"/>
        <pt x="318" y="676" on="0"/>
        <pt x="209" y="583" on="0"/>
        <pt x="209" y="492" on="1"/>
        <pt x="209" y="444" on="0"/>
        <pt x="270" y="403" on="0"/>
        <pt x="432" y="355" on="0"/>
        <pt x="498" y="297" on="0"/>
        <pt x="498" y="233" on="1"/>
        <pt x="498" y="122" on="0"/>
        <pt x="367" y="-9" on="0"/>
        <pt x="256" y="-9" on="1"/>
        <pt x="171" y="-9" on="0"/>
        <pt x="90" y="4" on="1"/>
        <pt x="60" y="8" on="1"/>
        <pt x="67" y="41" on="1"/>
        <pt x="185" y="24" on="0"/>
        <pt x="355" y="24" on="0"/>
        <pt x="460" y="137" on="0"/>
        <pt x="460" y="232" on="1"/>
        <pt x="460" y="282" on="0"/>
        <pt x="410" y="325" on="0"/>
        <pt x="249" y="370" on="0"/>
        <pt x="172" y="428" on="0"/>
        <pt x="172" y="492" on="1"/>
        <pt x="172" y="598" on="0"/>
        <pt x="307" y="709" on="0"/>
        <pt x="422" y="709" on="1"/>
        <pt x="488" y="709" on="0"/>
        <pt x="568" y="693" on="1"/>
        <pt x="593" y="688" on="1"/>
        <pt x="587" y="658" on="1"/>
        <pt x="485" y="676" on="0"/>
      </contour>
      <contour>
        <pt x="360" y="798" on="1"/>
        <pt x="352" y="823" on="1"/>
        <pt x="556" y="919" on="1"/>
        <pt x="565" y="890" on="1"/>
      </contour>
    </TTGlyph>
    <TTGlyph name="Scaron" xMin="60" yMin="-9" xMax="610" yMax="931">
      <contour>
        <pt x="610" y="931" on="1"/>
        <pt x="455" y="803" on="1"/>
        <pt x="438" y="803" on="1"/>
        <pt x="338" y="931" on="1"/>
        <pt x="373" y="931" on="1"/>
        <pt x="450" y="832" on="1"/>
        <pt x="570" y="931" on="1"/>
      </contour>
      <contour>
        <pt x="415" y="676" on="1"/>
        <pt x="318" y="676" on="0"/>
        <pt x="209" y="583" on="0"/>
        <pt x="209" y="492" on="1"/>
        <pt x="209" y="444" on="0"/>
        <pt x="270" y="403" on="0"/>
        <pt x="432" y="355" on="0"/>
        <pt x="498" y="297" on="0"/>
        <pt x="498" y="233" on="1"/>
        <pt x="498" y="122" on="0"/>
        <pt x="367" y="-9" on="0"/>
        <pt x="256" y="-9" on="1"/>
        <pt x="171" y="-9" on="0"/>
        <pt x="90" y="4" on="1"/>
        <pt x="60" y="8" on="1"/>
        <pt x="67" y="41" on="1"/>
        <pt x="185" y="24" on="0"/>
        <pt x="355" y="24" on="0"/>
        <pt x="460" y="137" on="0"/>
        <pt x="460" y="232" on="1"/>
        <pt x="460" y="282" on="0"/>
        <pt x="410" y="325" on="0"/>
        <pt x="249" y="370" on="0"/>
        <pt x="172" y="428" on="0"/>
        <pt x="172" y="492" on="1"/>
        <pt x="172" y="598" on="0"/>
        <pt x="307" y="709" on="0"/>
        <pt x="422" y="709" on="1"/>
        <pt x="488" y="709" on="0"/>
        <pt x="568" y="693" on="1"/>
        <pt x="593" y="688" on="1"/>
        <pt x="587" y="658" on="1"/>
        <pt x="485" y="676" on="0"/>
      </contour>
    </TTGlyph>
    <TTGlyph name="Scedilla" xMin="60" yMin="-199" xMax="593" yMax="709">
      <contour>
        <pt x="258" y="-53" on="1"/>
        <pt x="337" y="-53" on="0"/>
        <pt x="337" y="-105" on="1"/>
        <pt x="337" y="-114" on="0"/>
        <pt x="335" y="-124" on="1"/>
        <pt x="318" y="-199" on="0"/>
        <pt x="240" y="-199" on="1"/>
        <pt x="164" y="-195" on="1"/>
        <pt x="172" y="-164" on="1"/>
        <pt x="213" y="-168" on="0"/>
        <pt x="245" y="-168" on="1"/>
        <pt x="290" y="-168" on="0"/>
        <pt x="301" y="-124" on="1"/>
        <pt x="303" y="-117" on="0"/>
        <pt x="303" y="-110" on="1"/>
        <pt x="303" y="-83" on="0"/>
        <pt x="266" y="-83" on="1"/>
        <pt x="215" y="-83" on="1"/>
        <pt x="232" y="-9" on="1"/>
        <pt x="169" y="-7" on="0"/>
        <pt x="85" y="4" on="1"/>
        <pt x="60" y="8" on="1"/>
        <pt x="67" y="41" on="1"/>
        <pt x="185" y="24" on="0"/>
        <pt x="355" y="24" on="0"/>
        <pt x="460" y="137" on="0"/>
        <pt x="460" y="232" on="1"/>
        <pt x="460" y="282" on="0"/>
        <pt x="410" y="325" on="0"/>
        <pt x="249" y="370" on="0"/>
        <pt x="172" y="428" on="0"/>
        <pt x="172" y="492" on="1"/>
        <pt x="172" y="598" on="0"/>
        <pt x="307" y="709" on="0"/>
        <pt x="422" y="709" on="1"/>
        <pt x="488" y="709" on="0"/>
        <pt x="568" y="693" on="1"/>
        <pt x="593" y="688" on="1"/>
        <pt x="587" y="658" on="1"/>
        <pt x="485" y="676" on="0"/>
        <pt x="415" y="676" on="1"/>
        <pt x="318" y="676" on="0"/>
        <pt x="209" y="583" on="0"/>
        <pt x="209" y="492" on="1"/>
        <pt x="209" y="444" on="0"/>
        <pt x="270" y="403" on="0"/>
        <pt x="432" y="355" on="0"/>
        <pt x="498" y="297" on="0"/>
        <pt x="498" y="233" on="1"/>
        <pt x="498" y="124" on="0"/>
        <pt x="371" y="-6" on="0"/>
        <pt x="264" y="-9" on="1"/>
        <pt x="253" y="-53" on="1"/>
      </contour>
    </TTGlyph>
    <TTGlyph name="Scircumflex" xMin="60" yMin="-9" xMax="593" yMax="931">
      <contour>
        <pt x="415" y="676" on="1"/>
        <pt x="318" y="676" on="0"/>
        <pt x="209" y="583" on="0"/>
        <pt x="209" y="492" on="1"/>
        <pt x="209" y="444" on="0"/>
        <pt x="270" y="403" on="0"/>
        <pt x="432" y="355" on="0"/>
        <pt x="498" y="297" on="0"/>
        <pt x="498" y="233" on="1"/>
        <pt x="498" y="122" on="0"/>
        <pt x="367" y="-9" on="0"/>
        <pt x="256" y="-9" on="1"/>
        <pt x="171" y="-9" on="0"/>
        <pt x="90" y="4" on="1"/>
        <pt x="60" y="8" on="1"/>
        <pt x="67" y="41" on="1"/>
        <pt x="185" y="24" on="0"/>
        <pt x="355" y="24" on="0"/>
        <pt x="460" y="137" on="0"/>
        <pt x="460" y="232" on="1"/>
        <pt x="460" y="282" on="0"/>
        <pt x="410" y="325" on="0"/>
        <pt x="249" y="370" on="0"/>
        <pt x="172" y="428" on="0"/>
        <pt x="172" y="492" on="1"/>
        <pt x="172" y="598" on="0"/>
        <pt x="307" y="709" on="0"/>
        <pt x="422" y="709" on="1"/>
        <pt x="488" y="709" on="0"/>
        <pt x="568" y="693" on="1"/>
        <pt x="593" y="688" on="1"/>
        <pt x="587" y="658" on="1"/>
        <pt x="485" y="676" on="0"/>
      </contour>
      <contour>
        <pt x="303" y="803" on="1"/>
        <pt x="459" y="931" on="1"/>
        <pt x="473" y="931" on="1"/>
        <pt x="570" y="803" on="1"/>
        <pt x="536" y="803" on="1"/>
        <pt x="463" y="900" on="1"/>
        <pt x="344" y="803" on="1"/>
      </contour>
    </TTGlyph>
    <TTGlyph name="Scommaaccent" xMin="60" yMin="-265" xMax="593" yMax="709">
      <contour>
        <pt x="232" y="-73" on="1"/>
        <pt x="266" y="-73" on="1"/>
        <pt x="178" y="-265" on="1"/>
        <pt x="152" y="-265" on="1"/>
      </contour>
      <contour>
        <pt x="415" y="676" on="1"/>
        <pt x="318" y="676" on="0"/>
        <pt x="209" y="583" on="0"/>
        <pt x="209" y="492" on="1"/>
        <pt x="209" y="444" on="0"/>
        <pt x="270" y="403" on="0"/>
        <pt x="432" y="355" on="0"/>
        <pt x="498" y="297" on="0"/>
        <pt x="498" y="233" on="1"/>
        <pt x="498" y="122" on="0"/>
        <pt x="367" y="-9" on="0"/>
        <pt x="256" y="-9" on="1"/>
        <pt x="171" y="-9" on="0"/>
        <pt x="90" y="4" on="1"/>
        <pt x="60" y="8" on="1"/>
        <pt x="67" y="41" on="1"/>
        <pt x="185" y="24" on="0"/>
        <pt x="355" y="24" on="0"/>
        <pt x="460" y="137" on="0"/>
        <pt x="460" y="232" on="1"/>
        <pt x="460" y="282" on="0"/>
        <pt x="410" y="325" on="0"/>
        <pt x="249" y="370" on="0"/>
        <pt x="172" y="428" on="0"/>
        <pt x="172" y="492" on="1"/>
        <pt x="172" y="598" on="0"/>
        <pt x="307" y="709" on="0"/>
        <pt x="422" y="709" on="1"/>
        <pt x="488" y="709" on="0"/>
        <pt x="568" y="693" on="1"/>
        <pt x="593" y="688" on="1"/>
        <pt x="587" y="658" on="1"/>
        <pt x="485" y="676" on="0"/>
      </contour>
    </TTGlyph>
    <TTGlyph name="T" xMin="164" yMin="0" xMax="626" yMax="700">
      <contour>
        <pt x="164" y="667" on="1"/>
        <pt x="172" y="700" on="1"/>
        <pt x="626" y="700" on="1"/>
        <pt x="618" y="667" on="1"/>
        <pt x="409" y="667" on="1"/>
        <pt x="255" y="0" on="1"/>
        <pt x="219" y="0" on="1"/>
        <pt x="373" y="667" on="1"/>
      </contour>
    </TTGlyph>
    <TTGlyph name="Tbar" xMin="125" yMin="0" xMax="628" yMax="700">
      <contour>
        <pt x="166" y="667" on="1"/>
        <pt x="174" y="700" on="1"/>
        <pt x="628" y="700" on="1"/>
        <pt x="620" y="667" on="1"/>
        <pt x="411" y="667" on="1"/>
        <pt x="341" y="363" on="1"/>
        <pt x="514" y="363" on="1"/>
        <pt x="503" y="327" on="1"/>
        <pt x="332" y="327" on="1"/>
        <pt x="257" y="0" on="1"/>
        <pt x="221" y="0" on="1"/>
        <pt x="296" y="327" on="1"/>
        <pt x="125" y="327" on="1"/>
        <pt x="134" y="363" on="1"/>
        <pt x="305" y="363" on="1"/>
        <pt x="375" y="667" on="1"/>
      </contour>
    </TTGlyph>
    <TTGlyph name="Tcaron" xMin="164" yMin="0" xMax="626" yMax="926">
      <contour>
        <pt x="576" y="926" on="1"/>
        <pt x="421" y="798" on="1"/>
        <pt x="404" y="798" on="1"/>
        <pt x="304" y="926" on="1"/>
        <pt x="339" y="926" on="1"/>
        <pt x="416" y="827" on="1"/>
        <pt x="536" y="926" on="1"/>
      </contour>
      <contour>
        <pt x="164" y="667" on="1"/>
        <pt x="172" y="700" on="1"/>
        <pt x="626" y="700" on="1"/>
        <pt x="618" y="667" on="1"/>
        <pt x="409" y="667" on="1"/>
        <pt x="255" y="0" on="1"/>
        <pt x="219" y="0" on="1"/>
        <pt x="373" y="667" on="1"/>
      </contour>
    </TTGlyph>
    <TTGlyph name="Tcedilla" xMin="150" yMin="-199" xMax="626" yMax="700">
      <contour>
        <pt x="244" y="-53" on="1"/>
        <pt x="323" y="-53" on="0"/>
        <pt x="323" y="-105" on="1"/>
        <pt x="323" y="-114" on="0"/>
        <pt x="321" y="-124" on="1"/>
        <pt x="304" y="-199" on="0"/>
        <pt x="226" y="-199" on="1"/>
        <pt x="150" y="-195" on="1"/>
        <pt x="158" y="-164" on="1"/>
        <pt x="199" y="-168" on="0"/>
        <pt x="231" y="-168" on="1"/>
        <pt x="276" y="-168" on="0"/>
        <pt x="287" y="-124" on="1"/>
        <pt x="289" y="-117" on="0"/>
        <pt x="289" y="-110" on="1"/>
        <pt x="289" y="-83" on="0"/>
        <pt x="252" y="-83" on="1"/>
        <pt x="201" y="-83" on="1"/>
        <pt x="221" y="0" on="1"/>
        <pt x="219" y="0" on="1"/>
        <pt x="373" y="667" on="1"/>
        <pt x="164" y="667" on="1"/>
        <pt x="172" y="700" on="1"/>
        <pt x="626" y="700" on="1"/>
        <pt x="618" y="667" on="1"/>
        <pt x="409" y="667" on="1"/>
        <pt x="255" y="0" on="1"/>
        <pt x="252" y="0" on="1"/>
        <pt x="239" y="-53" on="1"/>
      </contour>
    </TTGlyph>
    <TTGlyph name="Tcommaaccent" xMin="127" yMin="-265" xMax="626" yMax="700">
      <contour>
        <pt x="207" y="-73" on="1"/>
        <pt x="241" y="-73" on="1"/>
        <pt x="153" y="-265" on="1"/>
        <pt x="127" y="-265" on="1"/>
      </contour>
      <contour>
        <pt x="164" y="667" on="1"/>
        <pt x="172" y="700" on="1"/>
        <pt x="626" y="700" on="1"/>
        <pt x="618" y="667" on="1"/>
        <pt x="409" y="667" on="1"/>
        <pt x="255" y="0" on="1"/>
        <pt x="219" y="0" on="1"/>
        <pt x="373" y="667" on="1"/>
      </contour>
    </TTGlyph>
    <TTGlyph name="Thorn" xMin="85" yMin="0" xMax="606" yMax="700">
      <contour>
        <pt x="361" y="166" on="1"/>
        <pt x="509" y="166" on="0"/>
        <pt x="560" y="367" on="1"/>
        <pt x="570" y="406" on="0"/>
        <pt x="570" y="437" on="1"/>
        <pt x="570" y="547" on="0"/>
        <pt x="444" y="547" on="1"/>
        <pt x="250" y="547" on="1"/>
        <pt x="160" y="166" on="1"/>
      </contour>
      <contour>
        <pt x="353" y="134" on="1"/>
        <pt x="152" y="134" on="1"/>
        <pt x="121" y="0" on="1"/>
        <pt x="85" y="0" on="1"/>
        <pt x="249" y="700" on="1"/>
        <pt x="285" y="700" on="1"/>
        <pt x="257" y="579" on="1"/>
        <pt x="452" y="579" on="1"/>
        <pt x="606" y="579" on="0"/>
        <pt x="606" y="441" on="1"/>
        <pt x="606" y="408" on="0"/>
        <pt x="597" y="367" on="1"/>
        <pt x="574" y="261" on="0"/>
        <pt x="451" y="134" on="0"/>
      </contour>
    </TTGlyph>
    <TTGlyph name="U" xMin="119" yMin="-9" xMax="673" yMax="700">
      <contour>
        <pt x="155" y="130" on="1"/>
        <pt x="155" y="25" on="0"/>
        <pt x="313" y="25" on="1"/>
        <pt x="403" y="25" on="0"/>
        <pt x="501" y="110" on="0"/>
        <pt x="521" y="198" on="1"/>
        <pt x="637" y="700" on="1"/>
        <pt x="673" y="700" on="1"/>
        <pt x="557" y="197" on="1"/>
        <pt x="533" y="93" on="0"/>
        <pt x="418" y="-9" on="0"/>
        <pt x="320" y="-9" on="1"/>
        <pt x="119" y="-9" on="0"/>
        <pt x="119" y="129" on="1"/>
        <pt x="119" y="167" on="0"/>
        <pt x="129" y="207" on="1"/>
        <pt x="243" y="700" on="1"/>
        <pt x="279" y="700" on="1"/>
        <pt x="165" y="207" on="1"/>
        <pt x="155" y="165" on="0"/>
      </contour>
    </TTGlyph>
    <TTGlyph name="Uacute" xMin="119" yMin="-9" xMax="673" yMax="919">
      <contour>
        <pt x="155" y="130" on="1"/>
        <pt x="155" y="25" on="0"/>
        <pt x="313" y="25" on="1"/>
        <pt x="403" y="25" on="0"/>
        <pt x="501" y="110" on="0"/>
        <pt x="521" y="198" on="1"/>
        <pt x="637" y="700" on="1"/>
        <pt x="673" y="700" on="1"/>
        <pt x="557" y="197" on="1"/>
        <pt x="533" y="93" on="0"/>
        <pt x="418" y="-9" on="0"/>
        <pt x="320" y="-9" on="1"/>
        <pt x="119" y="-9" on="0"/>
        <pt x="119" y="129" on="1"/>
        <pt x="119" y="167" on="0"/>
        <pt x="129" y="207" on="1"/>
        <pt x="243" y="700" on="1"/>
        <pt x="279" y="700" on="1"/>
        <pt x="165" y="207" on="1"/>
        <pt x="155" y="165" on="0"/>
      </contour>
      <contour>
        <pt x="402" y="798" on="1"/>
        <pt x="394" y="823" on="1"/>
        <pt x="598" y="919" on="1"/>
        <pt x="607" y="890" on="1"/>
      </contour>
    </TTGlyph>
    <TTGlyph name="Ubreve" xMin="119" yMin="-9" xMax="673" yMax="921">
      <contour>
        <pt x="404" y="921" on="1"/>
        <pt x="401" y="906" on="0"/>
        <pt x="401" y="867" on="0"/>
        <pt x="434" y="834" on="0"/>
        <pt x="518" y="834" on="0"/>
        <pt x="584" y="882" on="0"/>
        <pt x="594" y="921" on="1"/>
        <pt x="624" y="921" on="1"/>
        <pt x="610" y="865" on="0"/>
        <pt x="527" y="804" on="0"/>
        <pt x="471" y="804" on="1"/>
        <pt x="371" y="804" on="0"/>
        <pt x="371" y="887" on="1"/>
        <pt x="371" y="903" on="0"/>
        <pt x="374" y="921" on="1"/>
      </contour>
      <contour>
        <pt x="155" y="165" on="0"/>
        <pt x="155" y="130" on="1"/>
        <pt x="155" y="25" on="0"/>
        <pt x="313" y="25" on="1"/>
        <pt x="403" y="25" on="0"/>
        <pt x="501" y="110" on="0"/>
        <pt x="521" y="198" on="1"/>
        <pt x="637" y="700" on="1"/>
        <pt x="673" y="700" on="1"/>
        <pt x="557" y="197" on="1"/>
        <pt x="533" y="93" on="0"/>
        <pt x="418" y="-9" on="0"/>
        <pt x="320" y="-9" on="1"/>
        <pt x="119" y="-9" on="0"/>
        <pt x="119" y="129" on="1"/>
        <pt x="119" y="167" on="0"/>
        <pt x="129" y="207" on="1"/>
        <pt x="243" y="700" on="1"/>
        <pt x="279" y="700" on="1"/>
        <pt x="165" y="207" on="1"/>
      </contour>
    </TTGlyph>
    <TTGlyph name="Ucircumflex" xMin="119" yMin="-9" xMax="673" yMax="931">
      <contour>
        <pt x="155" y="130" on="1"/>
        <pt x="155" y="25" on="0"/>
        <pt x="313" y="25" on="1"/>
        <pt x="403" y="25" on="0"/>
        <pt x="501" y="110" on="0"/>
        <pt x="521" y="198" on="1"/>
        <pt x="637" y="700" on="1"/>
        <pt x="673" y="700" on="1"/>
        <pt x="557" y="197" on="1"/>
        <pt x="533" y="93" on="0"/>
        <pt x="418" y="-9" on="0"/>
        <pt x="320" y="-9" on="1"/>
        <pt x="119" y="-9" on="0"/>
        <pt x="119" y="129" on="1"/>
        <pt x="119" y="167" on="0"/>
        <pt x="129" y="207" on="1"/>
        <pt x="243" y="700" on="1"/>
        <pt x="279" y="700" on="1"/>
        <pt x="165" y="207" on="1"/>
        <pt x="155" y="165" on="0"/>
      </contour>
      <contour>
        <pt x="340" y="803" on="1"/>
        <pt x="496" y="931" on="1"/>
        <pt x="510" y="931" on="1"/>
        <pt x="607" y="803" on="1"/>
        <pt x="573" y="803" on="1"/>
        <pt x="500" y="900" on="1"/>
        <pt x="381" y="803" on="1"/>
      </contour>
    </TTGlyph>
    <TTGlyph name="Udieresis" xMin="119" yMin="-9" xMax="673" yMax="898">
      <contour>
        <pt x="371" y="833" on="1"/>
        <pt x="386" y="898" on="1"/>
        <pt x="420" y="898" on="1"/>
        <pt x="405" y="833" on="1"/>
      </contour>
      <contour>
        <pt x="551" y="833" on="1"/>
        <pt x="564" y="898" on="1"/>
        <pt x="598" y="898" on="1"/>
        <pt x="583" y="833" on="1"/>
      </contour>
      <contour>
        <pt x="155" y="130" on="1"/>
        <pt x="155" y="25" on="0"/>
        <pt x="313" y="25" on="1"/>
        <pt x="403" y="25" on="0"/>
        <pt x="501" y="110" on="0"/>
        <pt x="521" y="198" on="1"/>
        <pt x="637" y="700" on="1"/>
        <pt x="673" y="700" on="1"/>
        <pt x="557" y="197" on="1"/>
        <pt x="533" y="93" on="0"/>
        <pt x="418" y="-9" on="0"/>
        <pt x="320" y="-9" on="1"/>
        <pt x="119" y="-9" on="0"/>
        <pt x="119" y="129" on="1"/>
        <pt x="119" y="167" on="0"/>
        <pt x="129" y="207" on="1"/>
        <pt x="243" y="700" on="1"/>
        <pt x="279" y="700" on="1"/>
        <pt x="165" y="207" on="1"/>
        <pt x="155" y="165" on="0"/>
      </contour>
    </TTGlyph>
    <TTGlyph name="Ugrave" xMin="119" yMin="-9" xMax="673" yMax="917">
      <contour>
        <pt x="395" y="917" on="1"/>
        <pt x="555" y="820" on="1"/>
        <pt x="540" y="798" on="1"/>
        <pt x="378" y="890" on="1"/>
      </contour>
      <contour>
        <pt x="155" y="130" on="1"/>
        <pt x="155" y="25" on="0"/>
        <pt x="313" y="25" on="1"/>
        <pt x="403" y="25" on="0"/>
        <pt x="501" y="110" on="0"/>
        <pt x="521" y="198" on="1"/>
        <pt x="637" y="700" on="1"/>
        <pt x="673" y="700" on="1"/>
        <pt x="557" y="197" on="1"/>
        <pt x="533" y="93" on="0"/>
        <pt x="418" y="-9" on="0"/>
        <pt x="320" y="-9" on="1"/>
        <pt x="119" y="-9" on="0"/>
        <pt x="119" y="129" on="1"/>
        <pt x="119" y="167" on="0"/>
        <pt x="129" y="207" on="1"/>
        <pt x="243" y="700" on="1"/>
        <pt x="279" y="700" on="1"/>
        <pt x="165" y="207" on="1"/>
        <pt x="155" y="165" on="0"/>
      </contour>
    </TTGlyph>
    <TTGlyph name="Uhungarumlaut" xMin="119" yMin="-9" xMax="713" yMax="876">
      <contour>
        <pt x="510" y="765" on="1"/>
        <pt x="506" y="789" on="1"/>
        <pt x="705" y="875" on="1"/>
        <pt x="713" y="852" on="1"/>
      </contour>
      <contour>
        <pt x="331" y="766" on="1"/>
        <pt x="325" y="789" on="1"/>
        <pt x="528" y="876" on="1"/>
        <pt x="532" y="852" on="1"/>
      </contour>
      <contour>
        <pt x="155" y="130" on="1"/>
        <pt x="155" y="25" on="0"/>
        <pt x="313" y="25" on="1"/>
        <pt x="403" y="25" on="0"/>
        <pt x="501" y="110" on="0"/>
        <pt x="521" y="198" on="1"/>
        <pt x="637" y="700" on="1"/>
        <pt x="673" y="700" on="1"/>
        <pt x="557" y="197" on="1"/>
        <pt x="533" y="93" on="0"/>
        <pt x="418" y="-9" on="0"/>
        <pt x="320" y="-9" on="1"/>
        <pt x="119" y="-9" on="0"/>
        <pt x="119" y="129" on="1"/>
        <pt x="119" y="167" on="0"/>
        <pt x="129" y="207" on="1"/>
        <pt x="243" y="700" on="1"/>
        <pt x="279" y="700" on="1"/>
        <pt x="165" y="207" on="1"/>
        <pt x="155" y="165" on="0"/>
      </contour>
    </TTGlyph>
    <TTGlyph name="Umacron" xMin="119" yMin="-9" xMax="673" yMax="861">
      <contour>
        <pt x="155" y="130" on="1"/>
        <pt x="155" y="25" on="0"/>
        <pt x="313" y="25" on="1"/>
        <pt x="403" y="25" on="0"/>
        <pt x="501" y="110" on="0"/>
        <pt x="521" y="198" on="1"/>
        <pt x="637" y="700" on="1"/>
        <pt x="673" y="700" on="1"/>
        <pt x="557" y="197" on="1"/>
        <pt x="533" y="93" on="0"/>
        <pt x="418" y="-9" on="0"/>
        <pt x="320" y="-9" on="1"/>
        <pt x="119" y="-9" on="0"/>
        <pt x="119" y="129" on="1"/>
        <pt x="119" y="167" on="0"/>
        <pt x="129" y="207" on="1"/>
        <pt x="243" y="700" on="1"/>
        <pt x="279" y="700" on="1"/>
        <pt x="165" y="207" on="1"/>
        <pt x="155" y="165" on="0"/>
      </contour>
      <contour>
        <pt x="349" y="835" on="1"/>
        <pt x="354" y="861" on="1"/>
        <pt x="626" y="861" on="1"/>
        <pt x="619" y="835" on="1"/>
      </contour>
    </TTGlyph>
    <TTGlyph name="Uogonek" xMin="119" yMin="-198" xMax="673" yMax="700">
      <contour>
        <pt x="155" y="130" on="1"/>
        <pt x="155" y="25" on="0"/>
        <pt x="313" y="25" on="1"/>
        <pt x="403" y="25" on="0"/>
        <pt x="501" y="110" on="0"/>
        <pt x="521" y="198" on="1"/>
        <pt x="637" y="700" on="1"/>
        <pt x="673" y="700" on="1"/>
        <pt x="557" y="197" on="1"/>
        <pt x="536" y="107" on="0"/>
        <pt x="446" y="7" on="0"/>
        <pt x="366" y="-5" on="1"/>
        <pt x="331" y="-36" on="0"/>
        <pt x="270" y="-114" on="0"/>
        <pt x="270" y="-141" on="1"/>
        <pt x="270" y="-165" on="0"/>
        <pt x="302" y="-165" on="1"/>
        <pt x="358" y="-158" on="1"/>
        <pt x="354" y="-190" on="1"/>
        <pt x="318" y="-198" on="0"/>
        <pt x="292" y="-198" on="1"/>
        <pt x="230" y="-198" on="0"/>
        <pt x="230" y="-90" on="0"/>
        <pt x="320" y="-9" on="1"/>
        <pt x="311" y="-9" on="1"/>
        <pt x="221" y="-9" on="0"/>
        <pt x="119" y="60" on="0"/>
        <pt x="119" y="129" on="1"/>
        <pt x="119" y="167" on="0"/>
        <pt x="129" y="207" on="1"/>
        <pt x="243" y="700" on="1"/>
        <pt x="279" y="700" on="1"/>
        <pt x="165" y="207" on="1"/>
        <pt x="155" y="165" on="0"/>
      </contour>
    </TTGlyph>
    <TTGlyph name="Uring" xMin="119" yMin="-9" xMax="673" yMax="934">
      <contour>
        <pt x="473" y="757" on="1"/>
        <pt x="432" y="757" on="0"/>
        <pt x="414" y="781" on="1"/>
        <pt x="404" y="796" on="0"/>
        <pt x="404" y="830" on="0"/>
        <pt x="408" y="845" on="1"/>
        <pt x="432" y="934" on="0"/>
        <pt x="516" y="934" on="1"/>
        <pt x="556" y="934" on="0"/>
        <pt x="574" y="912" on="1"/>
        <pt x="585" y="898" on="0"/>
        <pt x="585" y="862" on="0"/>
        <pt x="581" y="845" on="1"/>
        <pt x="559" y="757" on="0"/>
      </contour>
      <contour>
        <pt x="557" y="863" on="1"/>
        <pt x="557" y="905" on="0"/>
        <pt x="509" y="905" on="1"/>
        <pt x="449" y="905" on="0"/>
        <pt x="434" y="845" on="1"/>
        <pt x="432" y="836" on="0"/>
        <pt x="432" y="828" on="1"/>
        <pt x="432" y="786" on="0"/>
        <pt x="480" y="786" on="1"/>
        <pt x="541" y="786" on="0"/>
        <pt x="555" y="845" on="1"/>
        <pt x="557" y="855" on="0"/>
      </contour>
      <contour>
        <pt x="155" y="130" on="1"/>
        <pt x="155" y="25" on="0"/>
        <pt x="313" y="25" on="1"/>
        <pt x="403" y="25" on="0"/>
        <pt x="501" y="110" on="0"/>
        <pt x="521" y="198" on="1"/>
        <pt x="637" y="700" on="1"/>
        <pt x="673" y="700" on="1"/>
        <pt x="557" y="197" on="1"/>
        <pt x="533" y="93" on="0"/>
        <pt x="418" y="-9" on="0"/>
        <pt x="320" y="-9" on="1"/>
        <pt x="119" y="-9" on="0"/>
        <pt x="119" y="129" on="1"/>
        <pt x="119" y="167" on="0"/>
        <pt x="129" y="207" on="1"/>
        <pt x="243" y="700" on="1"/>
        <pt x="279" y="700" on="1"/>
        <pt x="165" y="207" on="1"/>
        <pt x="155" y="165" on="0"/>
      </contour>
    </TTGlyph>
    <TTGlyph name="Utilde" xMin="119" yMin="-9" xMax="673" yMax="912">
      <contour>
        <pt x="649" y="875" on="1"/>
        <pt x="586" y="818" on="0"/>
        <pt x="537" y="818" on="0"/>
        <pt x="436" y="882" on="0"/>
        <pt x="425" y="882" on="1"/>
        <pt x="407" y="882" on="0"/>
        <pt x="352" y="840" on="1"/>
        <pt x="334" y="827" on="1"/>
        <pt x="333" y="855" on="1"/>
        <pt x="399" y="912" on="0"/>
        <pt x="452" y="912" on="0"/>
        <pt x="552" y="849" on="0"/>
        <pt x="563" y="849" on="1"/>
        <pt x="582" y="849" on="0"/>
        <pt x="629" y="887" on="1"/>
        <pt x="645" y="900" on="1"/>
      </contour>
      <contour>
        <pt x="155" y="130" on="1"/>
        <pt x="155" y="25" on="0"/>
        <pt x="313" y="25" on="1"/>
        <pt x="403" y="25" on="0"/>
        <pt x="501" y="110" on="0"/>
        <pt x="521" y="198" on="1"/>
        <pt x="637" y="700" on="1"/>
        <pt x="673" y="700" on="1"/>
        <pt x="557" y="197" on="1"/>
        <pt x="533" y="93" on="0"/>
        <pt x="418" y="-9" on="0"/>
        <pt x="320" y="-9" on="1"/>
        <pt x="119" y="-9" on="0"/>
        <pt x="119" y="129" on="1"/>
        <pt x="119" y="167" on="0"/>
        <pt x="129" y="207" on="1"/>
        <pt x="243" y="700" on="1"/>
        <pt x="279" y="700" on="1"/>
        <pt x="165" y="207" on="1"/>
        <pt x="155" y="165" on="0"/>
      </contour>
    </TTGlyph>
    <TTGlyph name="V" xMin="189" yMin="0" xMax="664" yMax="700">
      <contour>
        <pt x="628" y="700" on="1"/>
        <pt x="664" y="700" on="1"/>
        <pt x="320" y="0" on="1"/>
        <pt x="212" y="0" on="1"/>
        <pt x="189" y="700" on="1"/>
        <pt x="225" y="700" on="1"/>
        <pt x="245" y="33" on="1"/>
        <pt x="299" y="33" on="1"/>
      </contour>
    </TTGlyph>
    <TTGlyph name="W" xMin="171" yMin="0" xMax="925" yMax="700">
      <contour>
        <pt x="195" y="700" on="1"/>
        <pt x="231" y="700" on="1"/>
        <pt x="206" y="33" on="1"/>
        <pt x="241" y="33" on="1"/>
        <pt x="539" y="690" on="1"/>
        <pt x="577" y="690" on="1"/>
        <pt x="568" y="33" on="1"/>
        <pt x="601" y="33" on="1"/>
        <pt x="889" y="700" on="1"/>
        <pt x="925" y="700" on="1"/>
        <pt x="623" y="0" on="1"/>
        <pt x="534" y="0" on="1"/>
        <pt x="544" y="621" on="1"/>
        <pt x="262" y="0" on="1"/>
        <pt x="171" y="0" on="1"/>
      </contour>
    </TTGlyph>
    <TTGlyph name="Wacute" xMin="171" yMin="0" xMax="925" yMax="919">
      <contour>
        <pt x="507" y="798" on="1"/>
        <pt x="499" y="823" on="1"/>
        <pt x="703" y="919" on="1"/>
        <pt x="712" y="890" on="1"/>
      </contour>
      <contour>
        <pt x="195" y="700" on="1"/>
        <pt x="231" y="700" on="1"/>
        <pt x="206" y="33" on="1"/>
        <pt x="241" y="33" on="1"/>
        <pt x="539" y="690" on="1"/>
        <pt x="577" y="690" on="1"/>
        <pt x="568" y="33" on="1"/>
        <pt x="601" y="33" on="1"/>
        <pt x="889" y="700" on="1"/>
        <pt x="925" y="700" on="1"/>
        <pt x="623" y="0" on="1"/>
        <pt x="534" y="0" on="1"/>
        <pt x="544" y="621" on="1"/>
        <pt x="262" y="0" on="1"/>
        <pt x="171" y="0" on="1"/>
      </contour>
    </TTGlyph>
    <TTGlyph name="Wcircumflex" xMin="171" yMin="0" xMax="925" yMax="926">
      <contour>
        <pt x="442" y="798" on="1"/>
        <pt x="598" y="926" on="1"/>
        <pt x="612" y="926" on="1"/>
        <pt x="709" y="798" on="1"/>
        <pt x="675" y="798" on="1"/>
        <pt x="602" y="895" on="1"/>
        <pt x="483" y="798" on="1"/>
      </contour>
      <contour>
        <pt x="195" y="700" on="1"/>
        <pt x="231" y="700" on="1"/>
        <pt x="206" y="33" on="1"/>
        <pt x="241" y="33" on="1"/>
        <pt x="539" y="690" on="1"/>
        <pt x="577" y="690" on="1"/>
        <pt x="568" y="33" on="1"/>
        <pt x="601" y="33" on="1"/>
        <pt x="889" y="700" on="1"/>
        <pt x="925" y="700" on="1"/>
        <pt x="623" y="0" on="1"/>
        <pt x="534" y="0" on="1"/>
        <pt x="544" y="621" on="1"/>
        <pt x="262" y="0" on="1"/>
        <pt x="171" y="0" on="1"/>
      </contour>
    </TTGlyph>
    <TTGlyph name="Wdieresis" xMin="171" yMin="0" xMax="925" yMax="897">
      <contour>
        <pt x="480" y="831" on="1"/>
        <pt x="494" y="897" on="1"/>
        <pt x="524" y="897" on="1"/>
        <pt x="507" y="831" on="1"/>
      </contour>
      <contour>
        <pt x="659" y="831" on="1"/>
        <pt x="675" y="897" on="1"/>
        <pt x="704" y="897" on="1"/>
        <pt x="688" y="831" on="1"/>
      </contour>
      <contour>
        <pt x="195" y="700" on="1"/>
        <pt x="231" y="700" on="1"/>
        <pt x="206" y="33" on="1"/>
        <pt x="241" y="33" on="1"/>
        <pt x="539" y="690" on="1"/>
        <pt x="577" y="690" on="1"/>
        <pt x="568" y="33" on="1"/>
        <pt x="601" y="33" on="1"/>
        <pt x="889" y="700" on="1"/>
        <pt x="925" y="700" on="1"/>
        <pt x="623" y="0" on="1"/>
        <pt x="534" y="0" on="1"/>
        <pt x="544" y="621" on="1"/>
        <pt x="262" y="0" on="1"/>
        <pt x="171" y="0" on="1"/>
      </contour>
    </TTGlyph>
    <TTGlyph name="Wgrave" xMin="171" yMin="0" xMax="925" yMax="917">
      <contour>
        <pt x="502" y="917" on="1"/>
        <pt x="662" y="820" on="1"/>
        <pt x="647" y="798" on="1"/>
        <pt x="485" y="890" on="1"/>
      </contour>
      <contour>
        <pt x="195" y="700" on="1"/>
        <pt x="231" y="700" on="1"/>
        <pt x="206" y="33" on="1"/>
        <pt x="241" y="33" on="1"/>
        <pt x="539" y="690" on="1"/>
        <pt x="577" y="690" on="1"/>
        <pt x="568" y="33" on="1"/>
        <pt x="601" y="33" on="1"/>
        <pt x="889" y="700" on="1"/>
        <pt x="925" y="700" on="1"/>
        <pt x="623" y="0" on="1"/>
        <pt x="534" y="0" on="1"/>
        <pt x="544" y="621" on="1"/>
        <pt x="262" y="0" on="1"/>
        <pt x="171" y="0" on="1"/>
      </contour>
    </TTGlyph>
    <TTGlyph name="X" xMin="20" yMin="0" xMax="651" yMax="700">
      <contour>
        <pt x="227" y="700" on="1"/>
        <pt x="343" y="379" on="1"/>
        <pt x="607" y="700" on="1"/>
        <pt x="651" y="700" on="1"/>
        <pt x="357" y="344" on="1"/>
        <pt x="482" y="0" on="1"/>
        <pt x="446" y="0" on="1"/>
        <pt x="330" y="316" on="1"/>
        <pt x="64" y="0" on="1"/>
        <pt x="20" y="0" on="1"/>
        <pt x="315" y="350" on="1"/>
        <pt x="191" y="700" on="1"/>
      </contour>
    </TTGlyph>
    <TTGlyph name="Y" xMin="178" yMin="0" xMax="627" yMax="700">
      <contour>
        <pt x="627" y="700" on="1"/>
        <pt x="326" y="301" on="1"/>
        <pt x="256" y="0" on="1"/>
        <pt x="220" y="0" on="1"/>
        <pt x="291" y="308" on="1"/>
        <pt x="178" y="700" on="1"/>
        <pt x="214" y="700" on="1"/>
        <pt x="317" y="339" on="1"/>
        <pt x="587" y="700" on="1"/>
      </contour>
    </TTGlyph>
    <TTGlyph name="Yacute" xMin="178" yMin="0" xMax="627" yMax="919">
      <contour>
        <pt x="344" y="798" on="1"/>
        <pt x="336" y="823" on="1"/>
        <pt x="540" y="919" on="1"/>
        <pt x="549" y="890" on="1"/>
      </contour>
      <contour>
        <pt x="627" y="700" on="1"/>
        <pt x="326" y="301" on="1"/>
        <pt x="256" y="0" on="1"/>
        <pt x="220" y="0" on="1"/>
        <pt x="291" y="308" on="1"/>
        <pt x="178" y="700" on="1"/>
        <pt x="214" y="700" on="1"/>
        <pt x="317" y="339" on="1"/>
        <pt x="587" y="700" on="1"/>
      </contour>
    </TTGlyph>
    <TTGlyph name="Ycircumflex" xMin="178" yMin="0" xMax="627" yMax="926">
      <contour>
        <pt x="287" y="798" on="1"/>
        <pt x="443" y="926" on="1"/>
        <pt x="457" y="926" on="1"/>
        <pt x="554" y="798" on="1"/>
        <pt x="520" y="798" on="1"/>
        <pt x="447" y="895" on="1"/>
        <pt x="328" y="798" on="1"/>
      </contour>
      <contour>
        <pt x="627" y="700" on="1"/>
        <pt x="326" y="301" on="1"/>
        <pt x="256" y="0" on="1"/>
        <pt x="220" y="0" on="1"/>
        <pt x="291" y="308" on="1"/>
        <pt x="178" y="700" on="1"/>
        <pt x="214" y="700" on="1"/>
        <pt x="317" y="339" on="1"/>
        <pt x="587" y="700" on="1"/>
      </contour>
    </TTGlyph>
    <TTGlyph name="Ydieresis" xMin="178" yMin="0" xMax="627" yMax="896">
      <contour>
        <pt x="314" y="830" on="1"/>
        <pt x="328" y="896" on="1"/>
        <pt x="358" y="896" on="1"/>
        <pt x="341" y="830" on="1"/>
      </contour>
      <contour>
        <pt x="493" y="830" on="1"/>
        <pt x="509" y="896" on="1"/>
        <pt x="538" y="896" on="1"/>
        <pt x="522" y="830" on="1"/>
      </contour>
      <contour>
        <pt x="627" y="700" on="1"/>
        <pt x="326" y="301" on="1"/>
        <pt x="256" y="0" on="1"/>
        <pt x="220" y="0" on="1"/>
        <pt x="291" y="308" on="1"/>
        <pt x="178" y="700" on="1"/>
        <pt x="214" y="700" on="1"/>
        <pt x="317" y="339" on="1"/>
        <pt x="587" y="700" on="1"/>
      </contour>
    </TTGlyph>
    <TTGlyph name="Ygrave" xMin="178" yMin="0" xMax="627" yMax="917">
      <contour>
        <pt x="343" y="917" on="1"/>
        <pt x="503" y="820" on="1"/>
        <pt x="488" y="798" on="1"/>
        <pt x="326" y="890" on="1"/>
      </contour>
      <contour>
        <pt x="627" y="700" on="1"/>
        <pt x="326" y="301" on="1"/>
        <pt x="256" y="0" on="1"/>
        <pt x="220" y="0" on="1"/>
        <pt x="291" y="308" on="1"/>
        <pt x="178" y="700" on="1"/>
        <pt x="214" y="700" on="1"/>
        <pt x="317" y="339" on="1"/>
        <pt x="587" y="700" on="1"/>
      </contour>
    </TTGlyph>
    <TTGlyph name="Z" xMin="39" yMin="0" xMax="619" yMax="700">
      <contour>
        <pt x="196" y="667" on="1"/>
        <pt x="204" y="700" on="1"/>
        <pt x="619" y="700" on="1"/>
        <pt x="601" y="622" on="1"/>
        <pt x="89" y="58" on="1"/>
        <pt x="83" y="33" on="1"/>
        <pt x="462" y="33" on="1"/>
        <pt x="454" y="0" on="1"/>
        <pt x="39" y="0" on="1"/>
        <pt x="56" y="74" on="1"/>
        <pt x="568" y="638" on="1"/>
        <pt x="575" y="667" on="1"/>
      </contour>
    </TTGlyph>
    <TTGlyph name="Zacute" xMin="39" yMin="0" xMax="619" yMax="919">
      <contour>
        <pt x="349" y="798" on="1"/>
        <pt x="341" y="823" on="1"/>
        <pt x="545" y="919" on="1"/>
        <pt x="554" y="890" on="1"/>
      </contour>
      <contour>
        <pt x="196" y="667" on="1"/>
        <pt x="204" y="700" on="1"/>
        <pt x="619" y="700" on="1"/>
        <pt x="601" y="622" on="1"/>
        <pt x="89" y="58" on="1"/>
        <pt x="83" y="33" on="1"/>
        <pt x="462" y="33" on="1"/>
        <pt x="454" y="0" on="1"/>
        <pt x="39" y="0" on="1"/>
        <pt x="56" y="74" on="1"/>
        <pt x="568" y="638" on="1"/>
        <pt x="575" y="667" on="1"/>
      </contour>
    </TTGlyph>
    <TTGlyph name="Zcaron" xMin="39" yMin="0" xMax="619" yMax="925">
      <contour>
        <pt x="590" y="925" on="1"/>
        <pt x="435" y="797" on="1"/>
        <pt x="418" y="797" on="1"/>
        <pt x="318" y="925" on="1"/>
        <pt x="353" y="925" on="1"/>
        <pt x="430" y="826" on="1"/>
        <pt x="550" y="925" on="1"/>
      </contour>
      <contour>
        <pt x="196" y="667" on="1"/>
        <pt x="204" y="700" on="1"/>
        <pt x="619" y="700" on="1"/>
        <pt x="601" y="622" on="1"/>
        <pt x="89" y="58" on="1"/>
        <pt x="83" y="33" on="1"/>
        <pt x="462" y="33" on="1"/>
        <pt x="454" y="0" on="1"/>
        <pt x="39" y="0" on="1"/>
        <pt x="56" y="74" on="1"/>
        <pt x="568" y="638" on="1"/>
        <pt x="575" y="667" on="1"/>
      </contour>
    </TTGlyph>
    <TTGlyph name="Zdotaccent" xMin="39" yMin="0" xMax="619" yMax="927">
      <contour>
        <pt x="411" y="869" on="1"/>
        <pt x="423" y="927" on="1"/>
        <pt x="451" y="927" on="1"/>
        <pt x="440" y="869" on="1"/>
      </contour>
      <contour>
        <pt x="196" y="667" on="1"/>
        <pt x="204" y="700" on="1"/>
        <pt x="619" y="700" on="1"/>
        <pt x="601" y="622" on="1"/>
        <pt x="89" y="58" on="1"/>
        <pt x="83" y="33" on="1"/>
        <pt x="462" y="33" on="1"/>
        <pt x="454" y="0" on="1"/>
        <pt x="39" y="0" on="1"/>
        <pt x="56" y="74" on="1"/>
        <pt x="568" y="638" on="1"/>
        <pt x="575" y="667" on="1"/>
      </contour>
    </TTGlyph>
    <TTGlyph name="a" xMin="95" yMin="-9" xMax="520" yMax="509">
      <contour>
        <pt x="215" y="-9" on="1"/>
        <pt x="95" y="-9" on="0"/>
        <pt x="95" y="118" on="1"/>
        <pt x="95" y="206" on="0"/>
        <pt x="151" y="382" on="0"/>
        <pt x="269" y="509" on="0"/>
        <pt x="345" y="509" on="1"/>
        <pt x="396" y="509" on="0"/>
        <pt x="489" y="494" on="1"/>
        <pt x="520" y="489" on="1"/>
        <pt x="444" y="163" on="1"/>
        <pt x="433" y="117" on="0"/>
        <pt x="419" y="28" on="1"/>
        <pt x="415" y="1" on="1"/>
        <pt x="382" y="-1" on="1"/>
        <pt x="399" y="103" on="0"/>
        <pt x="404" y="126" on="1"/>
        <pt x="400" y="121" on="0"/>
        <pt x="386" y="102" on="0"/>
        <pt x="343" y="56" on="0"/>
        <pt x="300" y="20" on="0"/>
        <pt x="241" y="-9" on="0"/>
      </contour>
      <contour>
        <pt x="479" y="462" on="1"/>
        <pt x="406" y="477" on="0"/>
        <pt x="279" y="477" on="0"/>
        <pt x="178" y="356" on="0"/>
        <pt x="132" y="196" on="0"/>
        <pt x="132" y="118" on="1"/>
        <pt x="132" y="71" on="0"/>
        <pt x="174" y="24" on="0"/>
        <pt x="222" y="24" on="1"/>
        <pt x="276" y="24" on="0"/>
        <pt x="369" y="126" on="1"/>
        <pt x="390" y="149" on="0"/>
        <pt x="402" y="166" on="1"/>
        <pt x="414" y="182" on="1"/>
      </contour>
    </TTGlyph>
    <TTGlyph name="aacute" xMin="95" yMin="-9" xMax="547" yMax="730">
      <contour>
        <pt x="215" y="-9" on="1"/>
        <pt x="95" y="-9" on="0"/>
        <pt x="95" y="118" on="1"/>
        <pt x="95" y="206" on="0"/>
        <pt x="151" y="382" on="0"/>
        <pt x="269" y="509" on="0"/>
        <pt x="345" y="509" on="1"/>
        <pt x="396" y="509" on="0"/>
        <pt x="489" y="494" on="1"/>
        <pt x="520" y="489" on="1"/>
        <pt x="444" y="163" on="1"/>
        <pt x="433" y="117" on="0"/>
        <pt x="419" y="28" on="1"/>
        <pt x="415" y="1" on="1"/>
        <pt x="382" y="-1" on="1"/>
        <pt x="399" y="103" on="0"/>
        <pt x="404" y="126" on="1"/>
        <pt x="400" y="121" on="0"/>
        <pt x="386" y="102" on="0"/>
        <pt x="343" y="56" on="0"/>
        <pt x="300" y="20" on="0"/>
        <pt x="241" y="-9" on="0"/>
      </contour>
      <contour>
        <pt x="479" y="462" on="1"/>
        <pt x="406" y="477" on="0"/>
        <pt x="279" y="477" on="0"/>
        <pt x="178" y="356" on="0"/>
        <pt x="132" y="196" on="0"/>
        <pt x="132" y="118" on="1"/>
        <pt x="132" y="71" on="0"/>
        <pt x="174" y="24" on="0"/>
        <pt x="222" y="24" on="1"/>
        <pt x="276" y="24" on="0"/>
        <pt x="369" y="126" on="1"/>
        <pt x="390" y="149" on="0"/>
        <pt x="402" y="166" on="1"/>
        <pt x="414" y="182" on="1"/>
      </contour>
      <contour>
        <pt x="343" y="610" on="1"/>
        <pt x="338" y="635" on="1"/>
        <pt x="541" y="730" on="1"/>
        <pt x="547" y="700" on="1"/>
      </contour>
    </TTGlyph>
    <TTGlyph name="abreve" xMin="95" yMin="-9" xMax="564" yMax="721">
      <contour>
        <pt x="215" y="-9" on="1"/>
        <pt x="95" y="-9" on="0"/>
        <pt x="95" y="118" on="1"/>
        <pt x="95" y="206" on="0"/>
        <pt x="151" y="382" on="0"/>
        <pt x="269" y="509" on="0"/>
        <pt x="345" y="509" on="1"/>
        <pt x="396" y="509" on="0"/>
        <pt x="489" y="494" on="1"/>
        <pt x="520" y="489" on="1"/>
        <pt x="444" y="163" on="1"/>
        <pt x="433" y="117" on="0"/>
        <pt x="419" y="28" on="1"/>
        <pt x="415" y="1" on="1"/>
        <pt x="382" y="-1" on="1"/>
        <pt x="399" y="103" on="0"/>
        <pt x="404" y="126" on="1"/>
        <pt x="400" y="121" on="0"/>
        <pt x="386" y="102" on="0"/>
        <pt x="343" y="56" on="0"/>
        <pt x="300" y="20" on="0"/>
        <pt x="241" y="-9" on="0"/>
      </contour>
      <contour>
        <pt x="479" y="462" on="1"/>
        <pt x="406" y="477" on="0"/>
        <pt x="279" y="477" on="0"/>
        <pt x="178" y="356" on="0"/>
        <pt x="132" y="196" on="0"/>
        <pt x="132" y="118" on="1"/>
        <pt x="132" y="71" on="0"/>
        <pt x="174" y="24" on="0"/>
        <pt x="222" y="24" on="1"/>
        <pt x="276" y="24" on="0"/>
        <pt x="369" y="126" on="1"/>
        <pt x="390" y="149" on="0"/>
        <pt x="402" y="166" on="1"/>
        <pt x="414" y="182" on="1"/>
      </contour>
      <contour>
        <pt x="341" y="721" on="1"/>
        <pt x="336" y="705" on="0"/>
        <pt x="336" y="668" on="0"/>
        <pt x="348" y="650" on="1"/>
        <pt x="368" y="623" on="0"/>
        <pt x="464" y="623" on="0"/>
        <pt x="525" y="677" on="0"/>
        <pt x="536" y="721" on="1"/>
        <pt x="564" y="721" on="1"/>
        <pt x="532" y="595" on="0"/>
        <pt x="407" y="595" on="1"/>
        <pt x="350" y="595" on="0"/>
        <pt x="325" y="632" on="1"/>
        <pt x="309" y="656" on="0"/>
        <pt x="309" y="703" on="0"/>
        <pt x="313" y="721" on="1"/>
      </contour>
    </TTGlyph>
    <TTGlyph name="acircumflex" xMin="95" yMin="-9" xMax="520" yMax="730">
      <contour>
        <pt x="260" y="595" on="1"/>
        <pt x="406" y="730" on="1"/>
        <pt x="428" y="730" on="1"/>
        <pt x="515" y="595" on="1"/>
        <pt x="477" y="595" on="1"/>
        <pt x="413" y="696" on="1"/>
        <pt x="303" y="595" on="1"/>
      </contour>
      <contour>
        <pt x="215" y="-9" on="1"/>
        <pt x="95" y="-9" on="0"/>
        <pt x="95" y="118" on="1"/>
        <pt x="95" y="206" on="0"/>
        <pt x="151" y="382" on="0"/>
        <pt x="269" y="509" on="0"/>
        <pt x="345" y="509" on="1"/>
        <pt x="396" y="509" on="0"/>
        <pt x="489" y="494" on="1"/>
        <pt x="520" y="489" on="1"/>
        <pt x="444" y="163" on="1"/>
        <pt x="433" y="117" on="0"/>
        <pt x="419" y="28" on="1"/>
        <pt x="415" y="1" on="1"/>
        <pt x="382" y="-1" on="1"/>
        <pt x="399" y="103" on="0"/>
        <pt x="404" y="126" on="1"/>
        <pt x="400" y="121" on="0"/>
        <pt x="386" y="102" on="0"/>
        <pt x="343" y="56" on="0"/>
        <pt x="300" y="20" on="0"/>
        <pt x="241" y="-9" on="0"/>
      </contour>
      <contour>
        <pt x="479" y="462" on="1"/>
        <pt x="406" y="477" on="0"/>
        <pt x="279" y="477" on="0"/>
        <pt x="178" y="356" on="0"/>
        <pt x="132" y="196" on="0"/>
        <pt x="132" y="118" on="1"/>
        <pt x="132" y="71" on="0"/>
        <pt x="174" y="24" on="0"/>
        <pt x="222" y="24" on="1"/>
        <pt x="276" y="24" on="0"/>
        <pt x="369" y="126" on="1"/>
        <pt x="390" y="149" on="0"/>
        <pt x="402" y="166" on="1"/>
        <pt x="414" y="182" on="1"/>
      </contour>
    </TTGlyph>
    <TTGlyph name="acute" xMin="291" yMin="610" xMax="500" yMax="730">
      <contour>
        <pt x="296" y="610" on="1"/>
        <pt x="291" y="635" on="1"/>
        <pt x="494" y="730" on="1"/>
        <pt x="500" y="700" on="1"/>
      </contour>
    </TTGlyph>
    <TTGlyph name="acute.cap.001" xMin="334" yMin="798" xMax="547" yMax="919">
      <contour>
        <pt x="342" y="798" on="1"/>
        <pt x="334" y="823" on="1"/>
        <pt x="538" y="919" on="1"/>
        <pt x="547" y="890" on="1"/>
      </contour>
    </TTGlyph>
    <TTGlyph name="adieresis" xMin="95" yMin="-9" xMax="520" yMax="698">
      <contour>
        <pt x="282" y="633" on="1"/>
        <pt x="297" y="698" on="1"/>
        <pt x="331" y="698" on="1"/>
        <pt x="316" y="633" on="1"/>
      </contour>
      <contour>
        <pt x="462" y="633" on="1"/>
        <pt x="475" y="698" on="1"/>
        <pt x="509" y="698" on="1"/>
        <pt x="494" y="633" on="1"/>
      </contour>
      <contour>
        <pt x="215" y="-9" on="1"/>
        <pt x="95" y="-9" on="0"/>
        <pt x="95" y="118" on="1"/>
        <pt x="95" y="206" on="0"/>
        <pt x="151" y="382" on="0"/>
        <pt x="269" y="509" on="0"/>
        <pt x="345" y="509" on="1"/>
        <pt x="396" y="509" on="0"/>
        <pt x="489" y="494" on="1"/>
        <pt x="520" y="489" on="1"/>
        <pt x="444" y="163" on="1"/>
        <pt x="433" y="117" on="0"/>
        <pt x="419" y="28" on="1"/>
        <pt x="415" y="1" on="1"/>
        <pt x="382" y="-1" on="1"/>
        <pt x="399" y="103" on="0"/>
        <pt x="404" y="126" on="1"/>
        <pt x="400" y="121" on="0"/>
        <pt x="386" y="102" on="0"/>
        <pt x="343" y="56" on="0"/>
        <pt x="300" y="20" on="0"/>
        <pt x="241" y="-9" on="0"/>
      </contour>
      <contour>
        <pt x="479" y="462" on="1"/>
        <pt x="406" y="477" on="0"/>
        <pt x="279" y="477" on="0"/>
        <pt x="178" y="356" on="0"/>
        <pt x="132" y="196" on="0"/>
        <pt x="132" y="118" on="1"/>
        <pt x="132" y="71" on="0"/>
        <pt x="174" y="24" on="0"/>
        <pt x="222" y="24" on="1"/>
        <pt x="276" y="24" on="0"/>
        <pt x="369" y="126" on="1"/>
        <pt x="390" y="149" on="0"/>
        <pt x="402" y="166" on="1"/>
        <pt x="414" y="182" on="1"/>
      </contour>
    </TTGlyph>
    <TTGlyph name="ae" xMin="68" yMin="-9" xMax="801" yMax="509">
      <contour>
        <pt x="408" y="49" on="1"/>
        <pt x="261" y="-9" on="0"/>
        <pt x="69" y="-9" on="0"/>
        <pt x="69" y="94" on="1"/>
        <pt x="69" y="114" on="0"/>
        <pt x="73" y="138" on="1"/>
        <pt x="86" y="208" on="0"/>
        <pt x="179" y="271" on="0"/>
        <pt x="346" y="295" on="0"/>
        <pt x="421" y="301" on="1"/>
        <pt x="441" y="369" on="0"/>
        <pt x="441" y="402" on="0"/>
        <pt x="438" y="423" on="0"/>
        <pt x="432" y="439" on="1"/>
        <pt x="418" y="471" on="0"/>
        <pt x="362" y="471" on="1"/>
        <pt x="316" y="471" on="0"/>
        <pt x="212" y="464" on="1"/>
        <pt x="183" y="462" on="1"/>
        <pt x="189" y="499" on="1"/>
        <pt x="295" y="509" on="0"/>
        <pt x="370" y="509" on="1"/>
        <pt x="416" y="509" on="0"/>
        <pt x="476" y="459" on="0"/>
        <pt x="477" y="414" on="1"/>
        <pt x="542" y="509" on="0"/>
        <pt x="664" y="509" on="1"/>
        <pt x="801" y="509" on="0"/>
        <pt x="801" y="373" on="1"/>
        <pt x="801" y="322" on="0"/>
        <pt x="787" y="269" on="1"/>
        <pt x="778" y="234" on="1"/>
        <pt x="448" y="236" on="1"/>
        <pt x="433" y="169" on="0"/>
        <pt x="433" y="124" on="1"/>
        <pt x="433" y="27" on="0"/>
        <pt x="537" y="27" on="1"/>
        <pt x="609" y="27" on="0"/>
        <pt x="684" y="34" on="1"/>
        <pt x="712" y="36" on="1"/>
        <pt x="705" y="0" on="1"/>
        <pt x="597" y="-9" on="0"/>
        <pt x="529" y="-9" on="1"/>
        <pt x="437" y="-9" on="0"/>
      </contour>
      <contour>
        <pt x="109" y="100" on="1"/>
        <pt x="109" y="27" on="0"/>
        <pt x="173" y="27" on="1"/>
        <pt x="252" y="27" on="0"/>
        <pt x="399" y="81" on="1"/>
        <pt x="392" y="118" on="0"/>
        <pt x="397" y="165" on="0"/>
        <pt x="398" y="179" on="0"/>
        <pt x="405" y="214" on="0"/>
        <pt x="406" y="218" on="1"/>
        <pt x="408" y="243" on="0"/>
        <pt x="416" y="266" on="1"/>
        <pt x="288" y="252" on="0"/>
        <pt x="188" y="235" on="0"/>
        <pt x="126" y="186" on="0"/>
        <pt x="114" y="138" on="1"/>
        <pt x="109" y="118" on="0"/>
      </contour>
      <contour>
        <pt x="749" y="268" on="1"/>
        <pt x="765" y="326" on="0"/>
        <pt x="765" y="374" on="1"/>
        <pt x="765" y="473" on="0"/>
        <pt x="656" y="473" on="1"/>
        <pt x="581" y="473" on="0"/>
        <pt x="480" y="377" on="0"/>
        <pt x="455" y="270" on="1"/>
      </contour>
    </TTGlyph>
    <TTGlyph name="aeacute" xMin="68" yMin="-9" xMax="801" yMax="730">
      <contour>
        <pt x="408" y="49" on="1"/>
        <pt x="261" y="-9" on="0"/>
        <pt x="69" y="-9" on="0"/>
        <pt x="69" y="94" on="1"/>
        <pt x="69" y="114" on="0"/>
        <pt x="73" y="138" on="1"/>
        <pt x="86" y="208" on="0"/>
        <pt x="179" y="271" on="0"/>
        <pt x="346" y="295" on="0"/>
        <pt x="421" y="301" on="1"/>
        <pt x="441" y="369" on="0"/>
        <pt x="441" y="402" on="0"/>
        <pt x="438" y="423" on="0"/>
        <pt x="432" y="439" on="1"/>
        <pt x="418" y="471" on="0"/>
        <pt x="362" y="471" on="1"/>
        <pt x="316" y="471" on="0"/>
        <pt x="212" y="464" on="1"/>
        <pt x="183" y="462" on="1"/>
        <pt x="189" y="499" on="1"/>
        <pt x="295" y="509" on="0"/>
        <pt x="370" y="509" on="1"/>
        <pt x="416" y="509" on="0"/>
        <pt x="476" y="459" on="0"/>
        <pt x="477" y="414" on="1"/>
        <pt x="542" y="509" on="0"/>
        <pt x="664" y="509" on="1"/>
        <pt x="801" y="509" on="0"/>
        <pt x="801" y="373" on="1"/>
        <pt x="801" y="322" on="0"/>
        <pt x="787" y="269" on="1"/>
        <pt x="778" y="234" on="1"/>
        <pt x="448" y="236" on="1"/>
        <pt x="433" y="169" on="0"/>
        <pt x="433" y="124" on="1"/>
        <pt x="433" y="27" on="0"/>
        <pt x="537" y="27" on="1"/>
        <pt x="609" y="27" on="0"/>
        <pt x="684" y="34" on="1"/>
        <pt x="712" y="36" on="1"/>
        <pt x="705" y="0" on="1"/>
        <pt x="597" y="-9" on="0"/>
        <pt x="529" y="-9" on="1"/>
        <pt x="437" y="-9" on="0"/>
      </contour>
      <contour>
        <pt x="109" y="100" on="1"/>
        <pt x="109" y="27" on="0"/>
        <pt x="173" y="27" on="1"/>
        <pt x="252" y="27" on="0"/>
        <pt x="399" y="81" on="1"/>
        <pt x="392" y="118" on="0"/>
        <pt x="397" y="165" on="0"/>
        <pt x="398" y="179" on="0"/>
        <pt x="405" y="214" on="0"/>
        <pt x="406" y="218" on="1"/>
        <pt x="408" y="243" on="0"/>
        <pt x="416" y="266" on="1"/>
        <pt x="288" y="252" on="0"/>
        <pt x="188" y="235" on="0"/>
        <pt x="126" y="186" on="0"/>
        <pt x="114" y="138" on="1"/>
        <pt x="109" y="118" on="0"/>
      </contour>
      <contour>
        <pt x="749" y="268" on="1"/>
        <pt x="765" y="326" on="0"/>
        <pt x="765" y="374" on="1"/>
        <pt x="765" y="473" on="0"/>
        <pt x="656" y="473" on="1"/>
        <pt x="581" y="473" on="0"/>
        <pt x="480" y="377" on="0"/>
        <pt x="455" y="270" on="1"/>
      </contour>
      <contour>
        <pt x="460" y="610" on="1"/>
        <pt x="455" y="635" on="1"/>
        <pt x="658" y="730" on="1"/>
        <pt x="664" y="700" on="1"/>
      </contour>
    </TTGlyph>
    <TTGlyph name="agrave" xMin="95" yMin="-9" xMax="520" yMax="721">
      <contour>
        <pt x="215" y="-9" on="1"/>
        <pt x="95" y="-9" on="0"/>
        <pt x="95" y="118" on="1"/>
        <pt x="95" y="206" on="0"/>
        <pt x="151" y="382" on="0"/>
        <pt x="269" y="509" on="0"/>
        <pt x="345" y="509" on="1"/>
        <pt x="396" y="509" on="0"/>
        <pt x="489" y="494" on="1"/>
        <pt x="520" y="489" on="1"/>
        <pt x="444" y="163" on="1"/>
        <pt x="433" y="117" on="0"/>
        <pt x="419" y="28" on="1"/>
        <pt x="415" y="1" on="1"/>
        <pt x="382" y="-1" on="1"/>
        <pt x="399" y="103" on="0"/>
        <pt x="404" y="126" on="1"/>
        <pt x="400" y="121" on="0"/>
        <pt x="386" y="102" on="0"/>
        <pt x="343" y="56" on="0"/>
        <pt x="300" y="20" on="0"/>
        <pt x="241" y="-9" on="0"/>
      </contour>
      <contour>
        <pt x="479" y="462" on="1"/>
        <pt x="406" y="477" on="0"/>
        <pt x="279" y="477" on="0"/>
        <pt x="178" y="356" on="0"/>
        <pt x="132" y="196" on="0"/>
        <pt x="132" y="118" on="1"/>
        <pt x="132" y="71" on="0"/>
        <pt x="174" y="24" on="0"/>
        <pt x="222" y="24" on="1"/>
        <pt x="276" y="24" on="0"/>
        <pt x="369" y="126" on="1"/>
        <pt x="390" y="149" on="0"/>
        <pt x="402" y="166" on="1"/>
        <pt x="414" y="182" on="1"/>
      </contour>
      <contour>
        <pt x="330" y="721" on="1"/>
        <pt x="490" y="626" on="1"/>
        <pt x="472" y="604" on="1"/>
        <pt x="312" y="696" on="1"/>
      </contour>
    </TTGlyph>
    <TTGlyph name="amacron" xMin="95" yMin="-9" xMax="549" yMax="673">
      <contour>
        <pt x="215" y="-9" on="1"/>
        <pt x="95" y="-9" on="0"/>
        <pt x="95" y="118" on="1"/>
        <pt x="95" y="206" on="0"/>
        <pt x="151" y="382" on="0"/>
        <pt x="269" y="509" on="0"/>
        <pt x="345" y="509" on="1"/>
        <pt x="396" y="509" on="0"/>
        <pt x="489" y="494" on="1"/>
        <pt x="520" y="489" on="1"/>
        <pt x="444" y="163" on="1"/>
        <pt x="433" y="117" on="0"/>
        <pt x="419" y="28" on="1"/>
        <pt x="415" y="1" on="1"/>
        <pt x="382" y="-1" on="1"/>
        <pt x="399" y="103" on="0"/>
        <pt x="404" y="126" on="1"/>
        <pt x="400" y="121" on="0"/>
        <pt x="386" y="102" on="0"/>
        <pt x="343" y="56" on="0"/>
        <pt x="300" y="20" on="0"/>
        <pt x="241" y="-9" on="0"/>
      </contour>
      <contour>
        <pt x="479" y="462" on="1"/>
        <pt x="406" y="477" on="0"/>
        <pt x="279" y="477" on="0"/>
        <pt x="178" y="356" on="0"/>
        <pt x="132" y="196" on="0"/>
        <pt x="132" y="118" on="1"/>
        <pt x="132" y="71" on="0"/>
        <pt x="174" y="24" on="0"/>
        <pt x="222" y="24" on="1"/>
        <pt x="276" y="24" on="0"/>
        <pt x="369" y="126" on="1"/>
        <pt x="390" y="149" on="0"/>
        <pt x="402" y="166" on="1"/>
        <pt x="414" y="182" on="1"/>
      </contour>
      <contour>
        <pt x="290" y="647" on="1"/>
        <pt x="296" y="673" on="1"/>
        <pt x="549" y="673" on="1"/>
        <pt x="542" y="647" on="1"/>
      </contour>
    </TTGlyph>
    <TTGlyph name="ampersand" xMin="83" yMin="-9" xMax="623" yMax="709">
      <contour>
        <pt x="451" y="709" on="1"/>
        <pt x="572" y="709" on="0"/>
        <pt x="572" y="605" on="1"/>
        <pt x="572" y="448" on="0"/>
        <pt x="362" y="371" on="1"/>
        <pt x="496" y="185" on="1"/>
        <pt x="538" y="258" on="0"/>
        <pt x="562" y="329" on="1"/>
        <pt x="600" y="329" on="1"/>
        <pt x="572" y="240" on="0"/>
        <pt x="520" y="156" on="1"/>
        <pt x="623" y="21" on="1"/>
        <pt x="598" y="-3" on="1"/>
        <pt x="499" y="125" on="1"/>
        <pt x="398" y="-9" on="0"/>
        <pt x="260" y="-9" on="1"/>
        <pt x="171" y="-9" on="0"/>
        <pt x="83" y="62" on="0"/>
        <pt x="83" y="142" on="1"/>
        <pt x="83" y="248" on="0"/>
        <pt x="180" y="371" on="0"/>
        <pt x="295" y="413" on="1"/>
        <pt x="271" y="465" on="0"/>
        <pt x="271" y="507" on="1"/>
        <pt x="271" y="599" on="0"/>
        <pt x="366" y="709" on="0"/>
      </contour>
      <contour>
        <pt x="260" y="25" on="1"/>
        <pt x="389" y="25" on="0"/>
        <pt x="476" y="154" on="1"/>
        <pt x="312" y="383" on="1"/>
        <pt x="207" y="346" on="0"/>
        <pt x="121" y="234" on="0"/>
        <pt x="121" y="142" on="1"/>
        <pt x="121" y="25" on="0"/>
      </contour>
      <contour>
        <pt x="380" y="677" on="0"/>
        <pt x="309" y="582" on="0"/>
        <pt x="309" y="451" on="0"/>
        <pt x="345" y="399" on="1"/>
        <pt x="444" y="437" on="0"/>
        <pt x="534" y="535" on="0"/>
        <pt x="534" y="677" on="0"/>
        <pt x="448" y="677" on="1"/>
      </contour>
    </TTGlyph>
    <TTGlyph name="aogonek" xMin="95" yMin="-198" xMax="520" yMax="509">
      <contour>
        <pt x="332" y="-198" on="1"/>
        <pt x="270" y="-198" on="0"/>
        <pt x="270" y="-144" on="1"/>
        <pt x="270" y="-110" on="0"/>
        <pt x="344" y="-21" on="0"/>
        <pt x="382" y="10" on="1"/>
        <pt x="383" y="9" on="1"/>
        <pt x="394" y="81" on="0"/>
        <pt x="404" y="126" on="1"/>
        <pt x="400" y="121" on="0"/>
        <pt x="386" y="102" on="0"/>
        <pt x="343" y="56" on="0"/>
        <pt x="300" y="20" on="0"/>
        <pt x="241" y="-9" on="0"/>
        <pt x="215" y="-9" on="1"/>
        <pt x="95" y="-9" on="0"/>
        <pt x="95" y="118" on="1"/>
        <pt x="95" y="206" on="0"/>
        <pt x="151" y="382" on="0"/>
        <pt x="269" y="509" on="0"/>
        <pt x="345" y="509" on="1"/>
        <pt x="396" y="509" on="0"/>
        <pt x="489" y="494" on="1"/>
        <pt x="520" y="489" on="1"/>
        <pt x="444" y="163" on="1"/>
        <pt x="433" y="117" on="0"/>
        <pt x="419" y="28" on="1"/>
        <pt x="415" y="1" on="1"/>
        <pt x="412" y="1" on="1"/>
        <pt x="378" y="-28" on="0"/>
        <pt x="310" y="-112" on="0"/>
        <pt x="310" y="-141" on="1"/>
        <pt x="310" y="-165" on="0"/>
        <pt x="342" y="-165" on="1"/>
        <pt x="398" y="-158" on="1"/>
        <pt x="394" y="-190" on="1"/>
        <pt x="358" y="-198" on="0"/>
      </contour>
      <contour>
        <pt x="479" y="462" on="1"/>
        <pt x="406" y="477" on="0"/>
        <pt x="279" y="477" on="0"/>
        <pt x="178" y="356" on="0"/>
        <pt x="132" y="196" on="0"/>
        <pt x="132" y="118" on="1"/>
        <pt x="132" y="71" on="0"/>
        <pt x="174" y="24" on="0"/>
        <pt x="222" y="24" on="1"/>
        <pt x="276" y="24" on="0"/>
        <pt x="369" y="126" on="1"/>
        <pt x="390" y="149" on="0"/>
        <pt x="402" y="166" on="1"/>
        <pt x="414" y="182" on="1"/>
      </contour>
    </TTGlyph>
    <TTGlyph name="approxequal" xMin="125" yMin="112" xMax="549" yMax="381">
      <contour>
        <pt x="436" y="274" on="1"/>
        <pt x="406" y="274" on="0"/>
        <pt x="258" y="347" on="0"/>
        <pt x="222" y="347" on="0"/>
        <pt x="171" y="321" on="0"/>
        <pt x="154" y="308" on="1"/>
        <pt x="136" y="295" on="1"/>
        <pt x="125" y="327" on="1"/>
        <pt x="187" y="381" on="0"/>
        <pt x="237" y="381" on="1"/>
        <pt x="267" y="381" on="0"/>
        <pt x="415" y="308" on="0"/>
        <pt x="433" y="308" on="1"/>
        <pt x="466" y="308" on="0"/>
        <pt x="520" y="347" on="1"/>
        <pt x="538" y="360" on="1"/>
        <pt x="549" y="329" on="1"/>
        <pt x="486" y="274" on="0"/>
      </contour>
      <contour>
        <pt x="436" y="112" on="1"/>
        <pt x="406" y="112" on="0"/>
        <pt x="258" y="185" on="0"/>
        <pt x="222" y="185" on="0"/>
        <pt x="171" y="159" on="0"/>
        <pt x="154" y="146" on="1"/>
        <pt x="136" y="133" on="1"/>
        <pt x="125" y="165" on="1"/>
        <pt x="187" y="219" on="0"/>
        <pt x="237" y="219" on="1"/>
        <pt x="267" y="219" on="0"/>
        <pt x="415" y="146" on="0"/>
        <pt x="433" y="146" on="1"/>
        <pt x="466" y="146" on="0"/>
        <pt x="520" y="185" on="1"/>
        <pt x="538" y="198" on="1"/>
        <pt x="549" y="167" on="1"/>
        <pt x="486" y="112" on="0"/>
      </contour>
    </TTGlyph>
    <TTGlyph name="aring" xMin="95" yMin="-9" xMax="520" yMax="758">
      <contour>
        <pt x="215" y="-9" on="1"/>
        <pt x="95" y="-9" on="0"/>
        <pt x="95" y="118" on="1"/>
        <pt x="95" y="206" on="0"/>
        <pt x="151" y="382" on="0"/>
        <pt x="269" y="509" on="0"/>
        <pt x="345" y="509" on="1"/>
        <pt x="396" y="509" on="0"/>
        <pt x="489" y="494" on="1"/>
        <pt x="520" y="489" on="1"/>
        <pt x="444" y="163" on="1"/>
        <pt x="433" y="117" on="0"/>
        <pt x="419" y="28" on="1"/>
        <pt x="415" y="1" on="1"/>
        <pt x="382" y="-1" on="1"/>
        <pt x="399" y="103" on="0"/>
        <pt x="404" y="126" on="1"/>
        <pt x="400" y="121" on="0"/>
        <pt x="386" y="102" on="0"/>
        <pt x="343" y="56" on="0"/>
        <pt x="300" y="20" on="0"/>
        <pt x="241" y="-9" on="0"/>
      </contour>
      <contour>
        <pt x="479" y="462" on="1"/>
        <pt x="406" y="477" on="0"/>
        <pt x="279" y="477" on="0"/>
        <pt x="178" y="356" on="0"/>
        <pt x="132" y="196" on="0"/>
        <pt x="132" y="118" on="1"/>
        <pt x="132" y="71" on="0"/>
        <pt x="174" y="24" on="0"/>
        <pt x="222" y="24" on="1"/>
        <pt x="276" y="24" on="0"/>
        <pt x="369" y="126" on="1"/>
        <pt x="390" y="149" on="0"/>
        <pt x="402" y="166" on="1"/>
        <pt x="414" y="182" on="1"/>
      </contour>
      <contour>
        <pt x="404" y="576" on="1"/>
        <pt x="338" y="576" on="0"/>
        <pt x="338" y="642" on="1"/>
        <pt x="338" y="697" on="0"/>
        <pt x="406" y="758" on="0"/>
        <pt x="448" y="758" on="1"/>
        <pt x="513" y="758" on="0"/>
        <pt x="513" y="688" on="1"/>
        <pt x="513" y="641" on="0"/>
        <pt x="449" y="576" on="0"/>
      </contour>
      <contour>
        <pt x="368" y="667" on="1"/>
        <pt x="366" y="659" on="0"/>
        <pt x="366" y="637" on="0"/>
        <pt x="387" y="605" on="0"/>
        <pt x="436" y="605" on="0"/>
        <pt x="456" y="623" on="1"/>
        <pt x="485" y="648" on="0"/>
        <pt x="485" y="682" on="1"/>
        <pt x="485" y="696" on="0"/>
        <pt x="465" y="727" on="0"/>
        <pt x="416" y="727" on="0"/>
        <pt x="373" y="692" on="0"/>
      </contour>
    </TTGlyph>
    <TTGlyph name="aringacute" xMin="95" yMin="-9" xMax="536" yMax="900">
      <contour>
        <pt x="332" y="775" on="1"/>
        <pt x="326" y="805" on="1"/>
        <pt x="529" y="900" on="1"/>
        <pt x="536" y="865" on="1"/>
      </contour>
      <contour>
        <pt x="215" y="-9" on="1"/>
        <pt x="95" y="-9" on="0"/>
        <pt x="95" y="118" on="1"/>
        <pt x="95" y="206" on="0"/>
        <pt x="151" y="382" on="0"/>
        <pt x="269" y="509" on="0"/>
        <pt x="345" y="509" on="1"/>
        <pt x="396" y="509" on="0"/>
        <pt x="489" y="494" on="1"/>
        <pt x="520" y="489" on="1"/>
        <pt x="444" y="163" on="1"/>
        <pt x="433" y="117" on="0"/>
        <pt x="419" y="28" on="1"/>
        <pt x="415" y="1" on="1"/>
        <pt x="382" y="-1" on="1"/>
        <pt x="399" y="103" on="0"/>
        <pt x="404" y="126" on="1"/>
        <pt x="400" y="121" on="0"/>
        <pt x="386" y="102" on="0"/>
        <pt x="343" y="56" on="0"/>
        <pt x="300" y="20" on="0"/>
        <pt x="241" y="-9" on="0"/>
      </contour>
      <contour>
        <pt x="479" y="462" on="1"/>
        <pt x="406" y="477" on="0"/>
        <pt x="279" y="477" on="0"/>
        <pt x="178" y="356" on="0"/>
        <pt x="132" y="196" on="0"/>
        <pt x="132" y="118" on="1"/>
        <pt x="132" y="71" on="0"/>
        <pt x="174" y="24" on="0"/>
        <pt x="222" y="24" on="1"/>
        <pt x="276" y="24" on="0"/>
        <pt x="369" y="126" on="1"/>
        <pt x="390" y="149" on="0"/>
        <pt x="402" y="166" on="1"/>
        <pt x="414" y="182" on="1"/>
      </contour>
      <contour>
        <pt x="365" y="556" on="1"/>
        <pt x="299" y="556" on="0"/>
        <pt x="299" y="622" on="1"/>
        <pt x="299" y="677" on="0"/>
        <pt x="367" y="738" on="0"/>
        <pt x="409" y="738" on="1"/>
        <pt x="474" y="738" on="0"/>
        <pt x="474" y="668" on="1"/>
        <pt x="474" y="621" on="0"/>
        <pt x="410" y="556" on="0"/>
      </contour>
      <contour>
        <pt x="329" y="647" on="1"/>
        <pt x="327" y="639" on="0"/>
        <pt x="327" y="617" on="0"/>
        <pt x="348" y="585" on="0"/>
        <pt x="397" y="585" on="0"/>
        <pt x="418" y="603" on="1"/>
        <pt x="446" y="628" on="0"/>
        <pt x="446" y="662" on="1"/>
        <pt x="446" y="676" on="0"/>
        <pt x="426" y="707" on="0"/>
        <pt x="377" y="707" on="0"/>
        <pt x="334" y="672" on="0"/>
      </contour>
    </TTGlyph>
    <TTGlyph name="asciicircum" xMin="157" yMin="323" xMax="562" yMax="660">
      <contour>
        <pt x="522" y="323" on="1"/>
        <pt x="355" y="624" on="1"/>
        <pt x="197" y="323" on="1"/>
        <pt x="157" y="323" on="1"/>
        <pt x="337" y="660" on="1"/>
        <pt x="373" y="660" on="1"/>
        <pt x="562" y="323" on="1"/>
      </contour>
    </TTGlyph>
    <TTGlyph name="asciitilde" xMin="131" yMin="212" xMax="553" yMax="319">
      <contour>
        <pt x="441" y="212" on="1"/>
        <pt x="411" y="212" on="0"/>
        <pt x="264" y="285" on="0"/>
        <pt x="228" y="285" on="0"/>
        <pt x="177" y="259" on="0"/>
        <pt x="160" y="246" on="1"/>
        <pt x="142" y="233" on="1"/>
        <pt x="131" y="265" on="1"/>
        <pt x="193" y="319" on="0"/>
        <pt x="243" y="319" on="1"/>
        <pt x="273" y="319" on="0"/>
        <pt x="420" y="246" on="0"/>
        <pt x="456" y="246" on="0"/>
        <pt x="507" y="272" on="0"/>
        <pt x="524" y="285" on="1"/>
        <pt x="542" y="298" on="1"/>
        <pt x="553" y="267" on="1"/>
        <pt x="491" y="212" on="0"/>
      </contour>
    </TTGlyph>
    <TTGlyph name="asterisk" xMin="182" yMin="380" xMax="480" yMax="693">
      <contour>
        <pt x="480" y="519" on="1"/>
        <pt x="343" y="519" on="1"/>
        <pt x="385" y="390" on="1"/>
        <pt x="353" y="380" on="1"/>
        <pt x="311" y="510" on="1"/>
        <pt x="201" y="431" on="1"/>
        <pt x="182" y="458" on="1"/>
        <pt x="292" y="538" on="1"/>
        <pt x="183" y="618" on="1"/>
        <pt x="203" y="645" on="1"/>
        <pt x="313" y="564" on="1"/>
        <pt x="355" y="693" on="1"/>
        <pt x="387" y="683" on="1"/>
        <pt x="345" y="553" on="1"/>
        <pt x="480" y="553" on="1"/>
      </contour>
    </TTGlyph>
    <TTGlyph name="at" xMin="92" yMin="-197" xMax="958" yMax="717">
      <contour>
        <pt x="641" y="717" on="1"/>
        <pt x="731" y="717" on="0"/>
        <pt x="860" y="673" on="0"/>
        <pt x="895" y="636" on="1"/>
        <pt x="958" y="569" on="0"/>
        <pt x="958" y="449" on="1"/>
        <pt x="958" y="386" on="0"/>
        <pt x="919" y="215" on="0"/>
        <pt x="876" y="100" on="0"/>
        <pt x="837" y="35" on="0"/>
        <pt x="784" y="0" on="0"/>
        <pt x="740" y="-10" on="0"/>
        <pt x="708" y="-10" on="1"/>
        <pt x="623" y="-10" on="0"/>
        <pt x="620" y="54" on="1"/>
        <pt x="494" y="-9" on="0"/>
        <pt x="428" y="-9" on="1"/>
        <pt x="346" y="-9" on="0"/>
        <pt x="325" y="48" on="1"/>
        <pt x="315" y="76" on="0"/>
        <pt x="315" y="115" on="0"/>
        <pt x="315" y="132" on="1"/>
        <pt x="316" y="153" on="0"/>
        <pt x="324" y="198" on="1"/>
        <pt x="378" y="509" on="0"/>
        <pt x="579" y="509" on="1"/>
        <pt x="641" y="509" on="0"/>
        <pt x="741" y="489" on="1"/>
        <pt x="654" y="148" on="0"/>
        <pt x="654" y="72" on="1"/>
        <pt x="654" y="41" on="0"/>
        <pt x="681" y="24" on="0"/>
        <pt x="740" y="24" on="0"/>
        <pt x="776" y="34" on="0"/>
        <pt x="817" y="67" on="0"/>
        <pt x="834" y="98" on="1"/>
        <pt x="871" y="164" on="0"/>
        <pt x="904" y="307" on="1"/>
        <pt x="923" y="390" on="0"/>
        <pt x="923" y="488" on="0"/>
        <pt x="899" y="578" on="0"/>
        <pt x="868" y="610" on="1"/>
        <pt x="798" y="682" on="0"/>
        <pt x="633" y="682" on="1"/>
        <pt x="434" y="682" on="0"/>
        <pt x="211" y="492" on="0"/>
        <pt x="154" y="261" on="1"/>
        <pt x="130" y="161" on="0"/>
        <pt x="130" y="52" on="0"/>
        <pt x="151" y="-43" on="0"/>
        <pt x="184" y="-80" on="1"/>
        <pt x="257" y="-162" on="0"/>
        <pt x="433" y="-162" on="1"/>
        <pt x="569" y="-152" on="1"/>
        <pt x="564" y="-188" on="1"/>
        <pt x="470" y="-197" on="0"/>
        <pt x="350" y="-197" on="0"/>
        <pt x="233" y="-167" on="0"/>
        <pt x="160" y="-118" on="0"/>
        <pt x="136" y="-81" on="1"/>
        <pt x="92" y="-14" on="0"/>
        <pt x="92" y="88" on="1"/>
        <pt x="92" y="163" on="0"/>
        <pt x="115" y="261" on="1"/>
        <pt x="173" y="510" on="0"/>
        <pt x="417" y="717" on="0"/>
      </contour>
      <contour>
        <pt x="574" y="477" on="1"/>
        <pt x="486" y="477" on="0"/>
        <pt x="388" y="339" on="0"/>
        <pt x="359" y="197" on="1"/>
        <pt x="351" y="156" on="0"/>
        <pt x="351" y="125" on="1"/>
        <pt x="351" y="27" on="0"/>
        <pt x="435" y="27" on="1"/>
        <pt x="504" y="27" on="0"/>
        <pt x="620" y="88" on="1"/>
        <pt x="622" y="113" on="0"/>
        <pt x="676" y="364" on="0"/>
        <pt x="700" y="462" on="1"/>
        <pt x="640" y="477" on="0"/>
      </contour>
    </TTGlyph>
    <TTGlyph name="at.cap" xMin="112" yMin="-97" xMax="978" yMax="817">
      <contour>
        <pt x="661" y="817" on="1"/>
        <pt x="751" y="817" on="0"/>
        <pt x="880" y="773" on="0"/>
        <pt x="915" y="736" on="1"/>
        <pt x="978" y="669" on="0"/>
        <pt x="978" y="549" on="1"/>
        <pt x="978" y="486" on="0"/>
        <pt x="939" y="315" on="0"/>
        <pt x="896" y="200" on="0"/>
        <pt x="857" y="135" on="0"/>
        <pt x="804" y="100" on="0"/>
        <pt x="760" y="90" on="0"/>
        <pt x="728" y="90" on="1"/>
        <pt x="643" y="90" on="0"/>
        <pt x="640" y="154" on="1"/>
        <pt x="514" y="91" on="0"/>
        <pt x="448" y="91" on="1"/>
        <pt x="366" y="91" on="0"/>
        <pt x="345" y="148" on="1"/>
        <pt x="335" y="176" on="0"/>
        <pt x="335" y="215" on="0"/>
        <pt x="335" y="232" on="1"/>
        <pt x="336" y="253" on="0"/>
        <pt x="344" y="298" on="1"/>
        <pt x="398" y="609" on="0"/>
        <pt x="599" y="609" on="1"/>
        <pt x="661" y="609" on="0"/>
        <pt x="761" y="589" on="1"/>
        <pt x="674" y="248" on="0"/>
        <pt x="674" y="172" on="1"/>
        <pt x="674" y="141" on="0"/>
        <pt x="701" y="124" on="0"/>
        <pt x="760" y="124" on="0"/>
        <pt x="796" y="134" on="0"/>
        <pt x="837" y="167" on="0"/>
        <pt x="854" y="198" on="1"/>
        <pt x="891" y="264" on="0"/>
        <pt x="924" y="407" on="1"/>
        <pt x="943" y="490" on="0"/>
        <pt x="943" y="588" on="0"/>
        <pt x="919" y="678" on="0"/>
        <pt x="888" y="710" on="1"/>
        <pt x="818" y="782" on="0"/>
        <pt x="653" y="782" on="1"/>
        <pt x="454" y="782" on="0"/>
        <pt x="231" y="592" on="0"/>
        <pt x="174" y="361" on="1"/>
        <pt x="150" y="261" on="0"/>
        <pt x="150" y="152" on="0"/>
        <pt x="171" y="57" on="0"/>
        <pt x="204" y="20" on="1"/>
        <pt x="277" y="-62" on="0"/>
        <pt x="453" y="-62" on="1"/>
        <pt x="589" y="-52" on="1"/>
        <pt x="584" y="-88" on="1"/>
        <pt x="490" y="-97" on="0"/>
        <pt x="370" y="-97" on="0"/>
        <pt x="253" y="-67" on="0"/>
        <pt x="180" y="-18" on="0"/>
        <pt x="156" y="19" on="1"/>
        <pt x="112" y="86" on="0"/>
        <pt x="112" y="188" on="1"/>
        <pt x="112" y="263" on="0"/>
        <pt x="135" y="361" on="1"/>
        <pt x="193" y="610" on="0"/>
        <pt x="437" y="817" on="0"/>
      </contour>
      <contour>
        <pt x="594" y="577" on="1"/>
        <pt x="506" y="577" on="0"/>
        <pt x="408" y="439" on="0"/>
        <pt x="379" y="297" on="1"/>
        <pt x="371" y="256" on="0"/>
        <pt x="371" y="225" on="1"/>
        <pt x="371" y="127" on="0"/>
        <pt x="455" y="127" on="1"/>
        <pt x="524" y="127" on="0"/>
        <pt x="640" y="188" on="1"/>
        <pt x="642" y="213" on="0"/>
        <pt x="696" y="464" on="0"/>
        <pt x="720" y="562" on="1"/>
        <pt x="660" y="577" on="0"/>
      </contour>
    </TTGlyph>
    <TTGlyph name="atilde" xMin="95" yMin="-9" xMax="559" yMax="713">
      <contour>
        <pt x="215" y="-9" on="1"/>
        <pt x="95" y="-9" on="0"/>
        <pt x="95" y="118" on="1"/>
        <pt x="95" y="206" on="0"/>
        <pt x="151" y="382" on="0"/>
        <pt x="269" y="509" on="0"/>
        <pt x="345" y="509" on="1"/>
        <pt x="396" y="509" on="0"/>
        <pt x="489" y="494" on="1"/>
        <pt x="520" y="489" on="1"/>
        <pt x="444" y="163" on="1"/>
        <pt x="433" y="117" on="0"/>
        <pt x="419" y="28" on="1"/>
        <pt x="415" y="1" on="1"/>
        <pt x="382" y="-1" on="1"/>
        <pt x="399" y="103" on="0"/>
        <pt x="404" y="126" on="1"/>
        <pt x="400" y="121" on="0"/>
        <pt x="386" y="102" on="0"/>
        <pt x="343" y="56" on="0"/>
        <pt x="300" y="20" on="0"/>
        <pt x="241" y="-9" on="0"/>
      </contour>
      <contour>
        <pt x="479" y="462" on="1"/>
        <pt x="406" y="477" on="0"/>
        <pt x="279" y="477" on="0"/>
        <pt x="178" y="356" on="0"/>
        <pt x="132" y="196" on="0"/>
        <pt x="132" y="118" on="1"/>
        <pt x="132" y="71" on="0"/>
        <pt x="174" y="24" on="0"/>
        <pt x="222" y="24" on="1"/>
        <pt x="276" y="24" on="0"/>
        <pt x="369" y="126" on="1"/>
        <pt x="390" y="149" on="0"/>
        <pt x="402" y="166" on="1"/>
        <pt x="414" y="182" on="1"/>
      </contour>
      <contour>
        <pt x="480" y="630" on="1"/>
        <pt x="462" y="630" on="0"/>
        <pt x="366" y="681" on="0"/>
        <pt x="356" y="681" on="1"/>
        <pt x="338" y="681" on="0"/>
        <pt x="292" y="647" on="1"/>
        <pt x="277" y="636" on="1"/>
        <pt x="275" y="667" on="1"/>
        <pt x="333" y="713" on="0"/>
        <pt x="363" y="713" on="1"/>
        <pt x="382" y="713" on="0"/>
        <pt x="474" y="662" on="0"/>
        <pt x="484" y="662" on="1"/>
        <pt x="503" y="662" on="0"/>
        <pt x="541" y="692" on="1"/>
        <pt x="554" y="703" on="1"/>
        <pt x="559" y="673" on="1"/>
        <pt x="509" y="630" on="0"/>
      </contour>
    </TTGlyph>
    <TTGlyph name="b" xMin="76" yMin="-9" xMax="501" yMax="730">
      <contour>
        <pt x="378" y="509" on="1"/>
        <pt x="450" y="509" on="0"/>
        <pt x="501" y="436" on="0"/>
        <pt x="501" y="363" on="1"/>
        <pt x="501" y="284" on="0"/>
        <pt x="467" y="190" on="1"/>
        <pt x="448" y="138" on="0"/>
        <pt x="393" y="50" on="0"/>
        <pt x="304" y="-9" on="0"/>
        <pt x="250" y="-9" on="1"/>
        <pt x="192" y="-9" on="0"/>
        <pt x="105" y="6" on="1"/>
        <pt x="76" y="11" on="1"/>
        <pt x="242" y="730" on="1"/>
        <pt x="277" y="730" on="1"/>
        <pt x="204" y="416" on="1"/>
        <pt x="210" y="423" on="0"/>
        <pt x="259" y="464" on="0"/>
        <pt x="278" y="476" on="1"/>
        <pt x="329" y="509" on="0"/>
      </contour>
      <contour>
        <pt x="117" y="38" on="1"/>
        <pt x="203" y="23" on="0"/>
        <pt x="306" y="23" on="0"/>
        <pt x="396" y="107" on="0"/>
        <pt x="418" y="166" on="1"/>
        <pt x="464" y="287" on="0"/>
        <pt x="464" y="421" on="0"/>
        <pt x="427" y="476" on="0"/>
        <pt x="368" y="476" on="1"/>
        <pt x="334" y="476" on="0"/>
        <pt x="247" y="422" on="0"/>
        <pt x="220" y="394" on="1"/>
        <pt x="193" y="367" on="1"/>
      </contour>
    </TTGlyph>
    <TTGlyph name="backslash" xMin="190" yMin="0" xMax="358" yMax="701">
      <contour>
        <pt x="358" y="14" on="1"/>
        <pt x="320" y="0" on="1"/>
        <pt x="190" y="687" on="1"/>
        <pt x="228" y="701" on="1"/>
      </contour>
    </TTGlyph>
    <TTGlyph name="bar" xMin="188" yMin="-230" xMax="223" yMax="730">
      <contour>
        <pt x="188" y="-230" on="1"/>
        <pt x="188" y="730" on="1"/>
        <pt x="223" y="730" on="1"/>
        <pt x="223" y="-230" on="1"/>
      </contour>
    </TTGlyph>
    <TTGlyph name="braceleft" xMin="96" yMin="-123" xMax="462" yMax="749">
      <contour>
        <pt x="207" y="224" on="1"/>
        <pt x="207" y="206" on="0"/>
        <pt x="157" y="31" on="0"/>
        <pt x="157" y="-4" on="1"/>
        <pt x="157" y="-87" on="0"/>
        <pt x="266" y="-87" on="1"/>
        <pt x="256" y="-123" on="1"/>
        <pt x="186" y="-120" on="0"/>
        <pt x="122" y="-67" on="0"/>
        <pt x="122" y="23" on="0"/>
        <pt x="172" y="198" on="0"/>
        <pt x="172" y="213" on="1"/>
        <pt x="172" y="247" on="0"/>
        <pt x="136" y="282" on="0"/>
        <pt x="96" y="292" on="1"/>
        <pt x="104" y="327" on="1"/>
        <pt x="170" y="345" on="0"/>
        <pt x="221" y="401" on="0"/>
        <pt x="233" y="461" on="1"/>
        <pt x="236" y="475" on="0"/>
        <pt x="241" y="504" on="1"/>
        <pt x="251" y="565" on="0"/>
        <pt x="261" y="596" on="1"/>
        <pt x="286" y="673" on="0"/>
        <pt x="378" y="745" on="0"/>
        <pt x="462" y="749" on="1"/>
        <pt x="456" y="713" on="1"/>
        <pt x="377" y="709" on="0"/>
        <pt x="301" y="640" on="0"/>
        <pt x="286" y="568" on="1"/>
        <pt x="283" y="552" on="0"/>
        <pt x="269" y="470" on="0"/>
        <pt x="265" y="453" on="1"/>
        <pt x="251" y="388" on="0"/>
        <pt x="198" y="329" on="0"/>
        <pt x="143" y="311" on="1"/>
        <pt x="207" y="288" on="0"/>
      </contour>
    </TTGlyph>
    <TTGlyph name="braceleft.cap" xMin="103" yMin="-93" xMax="469" yMax="779">
      <contour>
        <pt x="214" y="254" on="1"/>
        <pt x="214" y="236" on="0"/>
        <pt x="164" y="61" on="0"/>
        <pt x="164" y="26" on="1"/>
        <pt x="164" y="-57" on="0"/>
        <pt x="273" y="-57" on="1"/>
        <pt x="263" y="-93" on="1"/>
        <pt x="193" y="-90" on="0"/>
        <pt x="129" y="-37" on="0"/>
        <pt x="129" y="53" on="0"/>
        <pt x="179" y="228" on="0"/>
        <pt x="179" y="243" on="1"/>
        <pt x="179" y="277" on="0"/>
        <pt x="143" y="312" on="0"/>
        <pt x="103" y="322" on="1"/>
        <pt x="111" y="357" on="1"/>
        <pt x="177" y="375" on="0"/>
        <pt x="228" y="431" on="0"/>
        <pt x="240" y="491" on="1"/>
        <pt x="243" y="505" on="0"/>
        <pt x="248" y="534" on="1"/>
        <pt x="258" y="595" on="0"/>
        <pt x="268" y="626" on="1"/>
        <pt x="293" y="703" on="0"/>
        <pt x="385" y="775" on="0"/>
        <pt x="469" y="779" on="1"/>
        <pt x="463" y="743" on="1"/>
        <pt x="384" y="739" on="0"/>
        <pt x="308" y="670" on="0"/>
        <pt x="293" y="598" on="1"/>
        <pt x="290" y="582" on="0"/>
        <pt x="276" y="500" on="0"/>
        <pt x="272" y="483" on="1"/>
        <pt x="258" y="418" on="0"/>
        <pt x="205" y="359" on="0"/>
        <pt x="150" y="341" on="1"/>
        <pt x="214" y="318" on="0"/>
      </contour>
    </TTGlyph>
    <TTGlyph name="braceright" xMin="11" yMin="-126" xMax="377" yMax="746">
      <contour>
        <pt x="266" y="399" on="1"/>
        <pt x="266" y="417" on="0"/>
        <pt x="316" y="592" on="0"/>
        <pt x="316" y="627" on="1"/>
        <pt x="316" y="710" on="0"/>
        <pt x="207" y="710" on="1"/>
        <pt x="217" y="746" on="1"/>
        <pt x="287" y="743" on="0"/>
        <pt x="351" y="690" on="0"/>
        <pt x="351" y="600" on="0"/>
        <pt x="301" y="425" on="0"/>
        <pt x="301" y="410" on="1"/>
        <pt x="301" y="376" on="0"/>
        <pt x="337" y="341" on="0"/>
        <pt x="377" y="331" on="1"/>
        <pt x="369" y="296" on="1"/>
        <pt x="303" y="278" on="0"/>
        <pt x="252" y="222" on="0"/>
        <pt x="240" y="162" on="1"/>
        <pt x="237" y="148" on="0"/>
        <pt x="232" y="118" on="1"/>
        <pt x="222" y="58" on="0"/>
        <pt x="212" y="27" on="1"/>
        <pt x="187" y="-50" on="0"/>
        <pt x="95" y="-122" on="0"/>
        <pt x="11" y="-126" on="1"/>
        <pt x="17" y="-90" on="1"/>
        <pt x="96" y="-86" on="0"/>
        <pt x="172" y="-17" on="0"/>
        <pt x="187" y="55" on="1"/>
        <pt x="190" y="71" on="0"/>
        <pt x="204" y="153" on="0"/>
        <pt x="208" y="170" on="1"/>
        <pt x="222" y="235" on="0"/>
        <pt x="275" y="294" on="0"/>
        <pt x="330" y="312" on="1"/>
        <pt x="266" y="335" on="0"/>
      </contour>
    </TTGlyph>
    <TTGlyph name="braceright.cap" xMin="19" yMin="-96" xMax="385" yMax="776">
      <contour>
        <pt x="274" y="429" on="1"/>
        <pt x="274" y="447" on="0"/>
        <pt x="324" y="622" on="0"/>
        <pt x="324" y="657" on="1"/>
        <pt x="324" y="740" on="0"/>
        <pt x="215" y="740" on="1"/>
        <pt x="225" y="776" on="1"/>
        <pt x="295" y="773" on="0"/>
        <pt x="359" y="720" on="0"/>
        <pt x="359" y="630" on="0"/>
        <pt x="309" y="455" on="0"/>
        <pt x="309" y="440" on="1"/>
        <pt x="309" y="406" on="0"/>
        <pt x="345" y="371" on="0"/>
        <pt x="385" y="361" on="1"/>
        <pt x="377" y="326" on="1"/>
        <pt x="311" y="308" on="0"/>
        <pt x="260" y="252" on="0"/>
        <pt x="248" y="192" on="1"/>
        <pt x="245" y="178" on="0"/>
        <pt x="240" y="148" on="1"/>
        <pt x="230" y="88" on="0"/>
        <pt x="220" y="57" on="1"/>
        <pt x="195" y="-20" on="0"/>
        <pt x="103" y="-92" on="0"/>
        <pt x="19" y="-96" on="1"/>
        <pt x="25" y="-60" on="1"/>
        <pt x="104" y="-56" on="0"/>
        <pt x="180" y="13" on="0"/>
        <pt x="195" y="85" on="1"/>
        <pt x="198" y="101" on="0"/>
        <pt x="212" y="183" on="0"/>
        <pt x="216" y="200" on="1"/>
        <pt x="230" y="265" on="0"/>
        <pt x="283" y="324" on="0"/>
        <pt x="338" y="342" on="1"/>
        <pt x="274" y="365" on="0"/>
      </contour>
    </TTGlyph>
    <TTGlyph name="bracketleft" xMin="51" yMin="-122" xMax="428" yMax="747">
      <contour>
        <pt x="255" y="747" on="1"/>
        <pt x="428" y="747" on="1"/>
        <pt x="421" y="714" on="1"/>
        <pt x="282" y="714" on="1"/>
        <pt x="93" y="-89" on="1"/>
        <pt x="232" y="-89" on="1"/>
        <pt x="223" y="-122" on="1"/>
        <pt x="51" y="-122" on="1"/>
      </contour>
    </TTGlyph>
    <TTGlyph name="bracketleft.cap" xMin="58" yMin="-92" xMax="435" yMax="777">
      <contour>
        <pt x="262" y="777" on="1"/>
        <pt x="435" y="777" on="1"/>
        <pt x="428" y="744" on="1"/>
        <pt x="289" y="744" on="1"/>
        <pt x="100" y="-59" on="1"/>
        <pt x="239" y="-59" on="1"/>
        <pt x="230" y="-92" on="1"/>
        <pt x="58" y="-92" on="1"/>
      </contour>
    </TTGlyph>
    <TTGlyph name="bracketright" xMin="13" yMin="-121" xMax="390" yMax="748">
      <contour>
        <pt x="186" y="-121" on="1"/>
        <pt x="13" y="-121" on="1"/>
        <pt x="20" y="-88" on="1"/>
        <pt x="159" y="-88" on="1"/>
        <pt x="348" y="715" on="1"/>
        <pt x="209" y="715" on="1"/>
        <pt x="218" y="748" on="1"/>
        <pt x="390" y="748" on="1"/>
      </contour>
    </TTGlyph>
    <TTGlyph name="bracketright.cap" xMin="19" yMin="-91" xMax="396" yMax="778">
      <contour>
        <pt x="192" y="-91" on="1"/>
        <pt x="19" y="-91" on="1"/>
        <pt x="26" y="-58" on="1"/>
        <pt x="165" y="-58" on="1"/>
        <pt x="354" y="745" on="1"/>
        <pt x="215" y="745" on="1"/>
        <pt x="224" y="778" on="1"/>
        <pt x="396" y="778" on="1"/>
      </contour>
    </TTGlyph>
    <TTGlyph name="breve" xMin="250" yMin="595" xMax="506" yMax="721">
      <contour>
        <pt x="283" y="721" on="1"/>
        <pt x="278" y="705" on="0"/>
        <pt x="278" y="668" on="0"/>
        <pt x="290" y="650" on="1"/>
        <pt x="310" y="623" on="0"/>
        <pt x="406" y="623" on="0"/>
        <pt x="467" y="677" on="0"/>
        <pt x="478" y="721" on="1"/>
        <pt x="506" y="721" on="1"/>
        <pt x="474" y="595" on="0"/>
        <pt x="349" y="595" on="1"/>
        <pt x="292" y="595" on="0"/>
        <pt x="267" y="632" on="1"/>
        <pt x="251" y="656" on="0"/>
        <pt x="251" y="703" on="0"/>
        <pt x="255" y="721" on="1"/>
      </contour>
    </TTGlyph>
    <TTGlyph name="breve.cap" xMin="298" yMin="804" xMax="552" yMax="921">
      <contour>
        <pt x="332" y="921" on="1"/>
        <pt x="329" y="906" on="0"/>
        <pt x="329" y="867" on="0"/>
        <pt x="362" y="834" on="0"/>
        <pt x="446" y="834" on="0"/>
        <pt x="512" y="882" on="0"/>
        <pt x="522" y="921" on="1"/>
        <pt x="552" y="921" on="1"/>
        <pt x="538" y="865" on="0"/>
        <pt x="455" y="804" on="0"/>
        <pt x="399" y="804" on="1"/>
        <pt x="299" y="804" on="0"/>
        <pt x="299" y="887" on="1"/>
        <pt x="299" y="903" on="0"/>
        <pt x="302" y="921" on="1"/>
      </contour>
    </TTGlyph>
    <TTGlyph name="brokenbar" xMin="193" yMin="-230" xMax="228" yMax="730">
      <contour>
        <pt x="193" y="730" on="1"/>
        <pt x="228" y="730" on="1"/>
        <pt x="228" y="354" on="1"/>
        <pt x="193" y="354" on="1"/>
      </contour>
      <contour>
        <pt x="193" y="146" on="1"/>
        <pt x="228" y="146" on="1"/>
        <pt x="228" y="-230" on="1"/>
        <pt x="193" y="-230" on="1"/>
      </contour>
    </TTGlyph>
    <TTGlyph name="bullet" xMin="185" yMin="110" xMax="435" yMax="400">
      <contour>
        <pt x="185" y="110" on="1"/>
        <pt x="185" y="400" on="1"/>
        <pt x="435" y="400" on="1"/>
        <pt x="435" y="110" on="1"/>
      </contour>
    </TTGlyph>
    <TTGlyph name="c" xMin="99" yMin="-9" xMax="472" yMax="509">
      <contour>
        <pt x="363" y="509" on="1"/>
        <pt x="411" y="509" on="0"/>
        <pt x="456" y="501" on="1"/>
        <pt x="472" y="498" on="1"/>
        <pt x="463" y="467" on="1"/>
        <pt x="406" y="477" on="0"/>
        <pt x="363" y="477" on="1"/>
        <pt x="288" y="477" on="0"/>
        <pt x="235" y="426" on="1"/>
        <pt x="136" y="329" on="0"/>
        <pt x="136" y="132" on="1"/>
        <pt x="136" y="78" on="0"/>
        <pt x="193" y="23" on="0"/>
        <pt x="257" y="23" on="1"/>
        <pt x="294" y="23" on="0"/>
        <pt x="352" y="37" on="1"/>
        <pt x="372" y="42" on="1"/>
        <pt x="372" y="10" on="1"/>
        <pt x="305" y="-9" on="0"/>
        <pt x="249" y="-9" on="1"/>
        <pt x="99" y="-9" on="0"/>
        <pt x="99" y="129" on="1"/>
        <pt x="99" y="347" on="0"/>
        <pt x="215" y="452" on="1"/>
        <pt x="277" y="509" on="0"/>
      </contour>
    </TTGlyph>
    <TTGlyph name="cacute" xMin="99" yMin="-9" xMax="516" yMax="730">
      <contour>
        <pt x="363" y="509" on="1"/>
        <pt x="411" y="509" on="0"/>
        <pt x="456" y="501" on="1"/>
        <pt x="472" y="498" on="1"/>
        <pt x="463" y="467" on="1"/>
        <pt x="406" y="477" on="0"/>
        <pt x="363" y="477" on="1"/>
        <pt x="288" y="477" on="0"/>
        <pt x="235" y="426" on="1"/>
        <pt x="136" y="329" on="0"/>
        <pt x="136" y="132" on="1"/>
        <pt x="136" y="78" on="0"/>
        <pt x="193" y="23" on="0"/>
        <pt x="257" y="23" on="1"/>
        <pt x="294" y="23" on="0"/>
        <pt x="352" y="37" on="1"/>
        <pt x="372" y="42" on="1"/>
        <pt x="372" y="10" on="1"/>
        <pt x="305" y="-9" on="0"/>
        <pt x="249" y="-9" on="1"/>
        <pt x="99" y="-9" on="0"/>
        <pt x="99" y="129" on="1"/>
        <pt x="99" y="347" on="0"/>
        <pt x="215" y="452" on="1"/>
        <pt x="277" y="509" on="0"/>
      </contour>
      <contour>
        <pt x="312" y="610" on="1"/>
        <pt x="307" y="635" on="1"/>
        <pt x="510" y="730" on="1"/>
        <pt x="516" y="700" on="1"/>
      </contour>
    </TTGlyph>
    <TTGlyph name="caron" xMin="434" yMin="595" xMax="686" yMax="730">
      <contour>
        <pt x="534" y="595" on="1"/>
        <pt x="520" y="595" on="1"/>
        <pt x="434" y="730" on="1"/>
        <pt x="466" y="730" on="1"/>
        <pt x="532" y="625" on="1"/>
        <pt x="647" y="730" on="1"/>
        <pt x="686" y="730" on="1"/>
      </contour>
    </TTGlyph>
    <TTGlyph name="caron.cap" xMin="292" yMin="803" xMax="564" yMax="931">
      <contour>
        <pt x="564" y="931" on="1"/>
        <pt x="409" y="803" on="1"/>
        <pt x="392" y="803" on="1"/>
        <pt x="292" y="931" on="1"/>
        <pt x="327" y="931" on="1"/>
        <pt x="404" y="832" on="1"/>
        <pt x="524" y="931" on="1"/>
      </contour>
    </TTGlyph>
    <TTGlyph name="ccaron" xMin="99" yMin="-9" xMax="531" yMax="730">
      <contour>
        <pt x="379" y="595" on="1"/>
        <pt x="365" y="595" on="1"/>
        <pt x="279" y="730" on="1"/>
        <pt x="311" y="730" on="1"/>
        <pt x="377" y="625" on="1"/>
        <pt x="492" y="730" on="1"/>
        <pt x="531" y="730" on="1"/>
      </contour>
      <contour>
        <pt x="363" y="509" on="1"/>
        <pt x="411" y="509" on="0"/>
        <pt x="456" y="501" on="1"/>
        <pt x="472" y="498" on="1"/>
        <pt x="463" y="467" on="1"/>
        <pt x="406" y="477" on="0"/>
        <pt x="363" y="477" on="1"/>
        <pt x="288" y="477" on="0"/>
        <pt x="235" y="426" on="1"/>
        <pt x="136" y="329" on="0"/>
        <pt x="136" y="132" on="1"/>
        <pt x="136" y="78" on="0"/>
        <pt x="193" y="23" on="0"/>
        <pt x="257" y="23" on="1"/>
        <pt x="294" y="23" on="0"/>
        <pt x="352" y="37" on="1"/>
        <pt x="372" y="42" on="1"/>
        <pt x="372" y="10" on="1"/>
        <pt x="305" y="-9" on="0"/>
        <pt x="249" y="-9" on="1"/>
        <pt x="99" y="-9" on="0"/>
        <pt x="99" y="129" on="1"/>
        <pt x="99" y="347" on="0"/>
        <pt x="215" y="452" on="1"/>
        <pt x="277" y="509" on="0"/>
      </contour>
    </TTGlyph>
    <TTGlyph name="ccedilla" xMin="99" yMin="-199" xMax="472" yMax="509">
      <contour>
        <pt x="233" y="-53" on="1"/>
        <pt x="312" y="-53" on="0"/>
        <pt x="312" y="-105" on="1"/>
        <pt x="312" y="-114" on="0"/>
        <pt x="310" y="-124" on="1"/>
        <pt x="293" y="-199" on="0"/>
        <pt x="215" y="-199" on="1"/>
        <pt x="139" y="-195" on="1"/>
        <pt x="147" y="-164" on="1"/>
        <pt x="188" y="-168" on="0"/>
        <pt x="220" y="-168" on="1"/>
        <pt x="265" y="-168" on="0"/>
        <pt x="276" y="-124" on="1"/>
        <pt x="278" y="-117" on="0"/>
        <pt x="278" y="-110" on="1"/>
        <pt x="278" y="-83" on="0"/>
        <pt x="241" y="-83" on="1"/>
        <pt x="190" y="-83" on="1"/>
        <pt x="208" y="-6" on="1"/>
        <pt x="99" y="10" on="0"/>
        <pt x="99" y="129" on="1"/>
        <pt x="99" y="347" on="0"/>
        <pt x="215" y="452" on="1"/>
        <pt x="277" y="509" on="0"/>
        <pt x="363" y="509" on="1"/>
        <pt x="411" y="509" on="0"/>
        <pt x="456" y="501" on="1"/>
        <pt x="472" y="498" on="1"/>
        <pt x="463" y="467" on="1"/>
        <pt x="406" y="477" on="0"/>
        <pt x="363" y="477" on="1"/>
        <pt x="288" y="477" on="0"/>
        <pt x="235" y="426" on="1"/>
        <pt x="136" y="329" on="0"/>
        <pt x="136" y="132" on="1"/>
        <pt x="136" y="78" on="0"/>
        <pt x="193" y="23" on="0"/>
        <pt x="257" y="23" on="1"/>
        <pt x="294" y="23" on="0"/>
        <pt x="352" y="37" on="1"/>
        <pt x="372" y="42" on="1"/>
        <pt x="372" y="10" on="1"/>
        <pt x="305" y="-9" on="0"/>
        <pt x="249" y="-9" on="1"/>
        <pt x="239" y="-9" on="1"/>
        <pt x="228" y="-53" on="1"/>
      </contour>
    </TTGlyph>
    <TTGlyph name="ccircumflex" xMin="99" yMin="-9" xMax="495" yMax="730">
      <contour>
        <pt x="363" y="509" on="1"/>
        <pt x="411" y="509" on="0"/>
        <pt x="456" y="501" on="1"/>
        <pt x="472" y="498" on="1"/>
        <pt x="463" y="467" on="1"/>
        <pt x="406" y="477" on="0"/>
        <pt x="363" y="477" on="1"/>
        <pt x="288" y="477" on="0"/>
        <pt x="235" y="426" on="1"/>
        <pt x="136" y="329" on="0"/>
        <pt x="136" y="132" on="1"/>
        <pt x="136" y="78" on="0"/>
        <pt x="193" y="23" on="0"/>
        <pt x="257" y="23" on="1"/>
        <pt x="294" y="23" on="0"/>
        <pt x="352" y="37" on="1"/>
        <pt x="372" y="42" on="1"/>
        <pt x="372" y="10" on="1"/>
        <pt x="305" y="-9" on="0"/>
        <pt x="249" y="-9" on="1"/>
        <pt x="99" y="-9" on="0"/>
        <pt x="99" y="129" on="1"/>
        <pt x="99" y="347" on="0"/>
        <pt x="215" y="452" on="1"/>
        <pt x="277" y="509" on="0"/>
      </contour>
      <contour>
        <pt x="248" y="595" on="1"/>
        <pt x="394" y="730" on="1"/>
        <pt x="408" y="730" on="1"/>
        <pt x="495" y="595" on="1"/>
        <pt x="461" y="595" on="1"/>
        <pt x="397" y="696" on="1"/>
        <pt x="287" y="595" on="1"/>
      </contour>
    </TTGlyph>
    <TTGlyph name="cdotaccent" xMin="99" yMin="-9" xMax="472" yMax="678">
      <contour>
        <pt x="363" y="509" on="1"/>
        <pt x="411" y="509" on="0"/>
        <pt x="456" y="501" on="1"/>
        <pt x="472" y="498" on="1"/>
        <pt x="463" y="467" on="1"/>
        <pt x="406" y="477" on="0"/>
        <pt x="363" y="477" on="1"/>
        <pt x="288" y="477" on="0"/>
        <pt x="235" y="426" on="1"/>
        <pt x="136" y="329" on="0"/>
        <pt x="136" y="132" on="1"/>
        <pt x="136" y="78" on="0"/>
        <pt x="193" y="23" on="0"/>
        <pt x="257" y="23" on="1"/>
        <pt x="294" y="23" on="0"/>
        <pt x="352" y="37" on="1"/>
        <pt x="372" y="42" on="1"/>
        <pt x="372" y="10" on="1"/>
        <pt x="305" y="-9" on="0"/>
        <pt x="249" y="-9" on="1"/>
        <pt x="99" y="-9" on="0"/>
        <pt x="99" y="129" on="1"/>
        <pt x="99" y="347" on="0"/>
        <pt x="215" y="452" on="1"/>
        <pt x="277" y="509" on="0"/>
      </contour>
      <contour>
        <pt x="356" y="620" on="1"/>
        <pt x="370" y="678" on="1"/>
        <pt x="399" y="678" on="1"/>
        <pt x="386" y="620" on="1"/>
      </contour>
    </TTGlyph>
    <TTGlyph name="cedilla" xMin="326" yMin="-199" xMax="500" yMax="5">
      <contour>
        <pt x="420" y="-53" on="1"/>
        <pt x="499" y="-53" on="0"/>
        <pt x="499" y="-105" on="1"/>
        <pt x="499" y="-114" on="0"/>
        <pt x="497" y="-124" on="1"/>
        <pt x="480" y="-199" on="0"/>
        <pt x="402" y="-199" on="1"/>
        <pt x="326" y="-195" on="1"/>
        <pt x="334" y="-164" on="1"/>
        <pt x="375" y="-168" on="0"/>
        <pt x="407" y="-168" on="1"/>
        <pt x="452" y="-168" on="0"/>
        <pt x="463" y="-124" on="1"/>
        <pt x="465" y="-117" on="0"/>
        <pt x="465" y="-110" on="1"/>
        <pt x="465" y="-83" on="0"/>
        <pt x="428" y="-83" on="1"/>
        <pt x="377" y="-83" on="1"/>
        <pt x="398" y="5" on="1"/>
        <pt x="430" y="5" on="1"/>
        <pt x="415" y="-53" on="1"/>
      </contour>
    </TTGlyph>
    <TTGlyph name="cent" xMin="162" yMin="-84" xMax="529" yMax="590">
      <contour>
        <pt x="162" y="160" on="1"/>
        <pt x="162" y="198" on="0"/>
        <pt x="175" y="247" on="1"/>
        <pt x="202" y="350" on="0"/>
        <pt x="312" y="457" on="0"/>
        <pt x="389" y="459" on="1"/>
        <pt x="420" y="590" on="1"/>
        <pt x="453" y="590" on="1"/>
        <pt x="422" y="460" on="1"/>
        <pt x="529" y="450" on="1"/>
        <pt x="519" y="415" on="1"/>
        <pt x="430" y="425" on="0"/>
        <pt x="394" y="425" on="1"/>
        <pt x="326" y="425" on="0"/>
        <pt x="233" y="330" on="0"/>
        <pt x="213" y="247" on="1"/>
        <pt x="200" y="185" on="0"/>
        <pt x="200" y="122" on="0"/>
        <pt x="252" y="76" on="0"/>
        <pt x="312" y="76" on="1"/>
        <pt x="446" y="84" on="1"/>
        <pt x="437" y="50" on="1"/>
        <pt x="381" y="43" on="0"/>
        <pt x="325" y="43" on="1"/>
        <pt x="295" y="-84" on="1"/>
        <pt x="261" y="-84" on="1"/>
        <pt x="291" y="41" on="1"/>
        <pt x="162" y="41" on="0"/>
      </contour>
    </TTGlyph>
    <TTGlyph name="circumflex" xMin="405" yMin="595" xMax="652" yMax="730">
      <contour>
        <pt x="405" y="595" on="1"/>
        <pt x="551" y="730" on="1"/>
        <pt x="565" y="730" on="1"/>
        <pt x="652" y="595" on="1"/>
        <pt x="618" y="595" on="1"/>
        <pt x="554" y="696" on="1"/>
        <pt x="444" y="595" on="1"/>
      </contour>
    </TTGlyph>
    <TTGlyph name="circumflex.cap.001" xMin="265" yMin="803" xMax="532" yMax="931">
      <contour>
        <pt x="265" y="803" on="1"/>
        <pt x="421" y="931" on="1"/>
        <pt x="435" y="931" on="1"/>
        <pt x="532" y="803" on="1"/>
        <pt x="498" y="803" on="1"/>
        <pt x="425" y="900" on="1"/>
        <pt x="306" y="803" on="1"/>
      </contour>
    </TTGlyph>
    <TTGlyph name="colon" xMin="72" yMin="0" xMax="207" yMax="435">
      <contour>
        <pt x="152" y="352" on="1"/>
        <pt x="171" y="435" on="1"/>
        <pt x="207" y="435" on="1"/>
        <pt x="188" y="352" on="1"/>
      </contour>
      <contour>
        <pt x="72" y="0" on="1"/>
        <pt x="91" y="83" on="1"/>
        <pt x="127" y="83" on="1"/>
        <pt x="108" y="0" on="1"/>
      </contour>
    </TTGlyph>
    <TTGlyph name="comma" xMin="15" yMin="-129" xMax="141" yMax="83">
      <contour>
        <pt x="43" y="-129" on="1"/>
        <pt x="15" y="-129" on="1"/>
        <pt x="101" y="83" on="1"/>
        <pt x="141" y="83" on="1"/>
      </contour>
    </TTGlyph>
    <TTGlyph name="commaaccent" xMin="-23" yMin="-265" xMax="91" yMax="-73">
      <contour>
        <pt x="-23" y="-265" on="1"/>
        <pt x="57" y="-73" on="1"/>
        <pt x="91" y="-73" on="1"/>
        <pt x="3" y="-265" on="1"/>
      </contour>
    </TTGlyph>
    <TTGlyph name="copyright" xMin="168" yMin="169" xMax="679" yMax="700">
      <contour>
        <pt x="168" y="323" on="0"/>
        <pt x="168" y="545" on="0"/>
        <pt x="314" y="700" on="0"/>
        <pt x="532" y="700" on="0"/>
        <pt x="679" y="545" on="0"/>
        <pt x="679" y="323" on="0"/>
        <pt x="532" y="169" on="0"/>
        <pt x="314" y="169" on="0"/>
      </contour>
      <contour>
        <pt x="200" y="532" on="0"/>
        <pt x="200" y="336" on="0"/>
        <pt x="327" y="201" on="0"/>
        <pt x="519" y="201" on="0"/>
        <pt x="647" y="336" on="0"/>
        <pt x="647" y="532" on="0"/>
        <pt x="519" y="668" on="0"/>
        <pt x="327" y="668" on="0"/>
      </contour>
      <contour>
        <pt x="423" y="281" on="1"/>
        <pt x="361" y="281" on="0"/>
        <pt x="314" y="358" on="0"/>
        <pt x="314" y="509" on="0"/>
        <pt x="360" y="587" on="0"/>
        <pt x="423" y="587" on="1"/>
        <pt x="462" y="587" on="0"/>
        <pt x="487" y="582" on="1"/>
        <pt x="497" y="580" on="1"/>
        <pt x="496" y="548" on="1"/>
        <pt x="455" y="555" on="0"/>
        <pt x="423" y="555" on="1"/>
        <pt x="374" y="555" on="0"/>
        <pt x="346" y="499" on="0"/>
        <pt x="346" y="371" on="0"/>
        <pt x="378" y="313" on="0"/>
        <pt x="423" y="313" on="1"/>
        <pt x="496" y="321" on="1"/>
        <pt x="497" y="289" on="1"/>
        <pt x="454" y="281" on="0"/>
      </contour>
    </TTGlyph>
    <TTGlyph name="currency" xMin="134" yMin="49" xMax="540" yMax="455">
      <contour>
        <pt x="398" y="82" on="0"/>
        <pt x="277" y="82" on="0"/>
        <pt x="230" y="120" on="1"/>
        <pt x="160" y="49" on="1"/>
        <pt x="134" y="75" on="1"/>
        <pt x="205" y="145" on="1"/>
        <pt x="167" y="191" on="0"/>
        <pt x="167" y="312" on="0"/>
        <pt x="205" y="359" on="1"/>
        <pt x="134" y="429" on="1"/>
        <pt x="160" y="455" on="1"/>
        <pt x="230" y="384" on="1"/>
        <pt x="276" y="422" on="0"/>
        <pt x="398" y="422" on="0"/>
        <pt x="444" y="384" on="1"/>
        <pt x="514" y="455" on="1"/>
        <pt x="540" y="429" on="1"/>
        <pt x="469" y="359" on="1"/>
        <pt x="507" y="312" on="0"/>
        <pt x="507" y="191" on="0"/>
        <pt x="469" y="145" on="1"/>
        <pt x="540" y="75" on="1"/>
        <pt x="514" y="49" on="1"/>
        <pt x="444" y="120" on="1"/>
      </contour>
      <contour>
        <pt x="281" y="119" on="0"/>
        <pt x="393" y="119" on="0"/>
        <pt x="432" y="157" on="1"/>
        <pt x="470" y="196" on="0"/>
        <pt x="470" y="308" on="0"/>
        <pt x="432" y="347" on="1"/>
        <pt x="393" y="385" on="0"/>
        <pt x="281" y="385" on="0"/>
        <pt x="242" y="347" on="1"/>
        <pt x="204" y="308" on="0"/>
        <pt x="204" y="196" on="0"/>
        <pt x="242" y="157" on="1"/>
      </contour>
    </TTGlyph>
    <TTGlyph name="d" xMin="95" yMin="-9" xMax="576" yMax="730">
      <contour>
        <pt x="209" y="-9" on="1"/>
        <pt x="95" y="-9" on="0"/>
        <pt x="95" y="117" on="1"/>
        <pt x="95" y="207" on="0"/>
        <pt x="152" y="383" on="0"/>
        <pt x="269" y="509" on="0"/>
        <pt x="343" y="509" on="1"/>
        <pt x="406" y="509" on="0"/>
        <pt x="466" y="497" on="1"/>
        <pt x="486" y="493" on="1"/>
        <pt x="541" y="730" on="1"/>
        <pt x="576" y="730" on="1"/>
        <pt x="407" y="0" on="1"/>
        <pt x="373" y="0" on="1"/>
        <pt x="399" y="114" on="1"/>
        <pt x="395" y="109" on="0"/>
        <pt x="382" y="92" on="0"/>
        <pt x="340" y="50" on="0"/>
        <pt x="298" y="18" on="0"/>
        <pt x="237" y="-9" on="0"/>
      </contour>
      <contour>
        <pt x="479" y="462" on="1"/>
        <pt x="409" y="477" on="0"/>
        <pt x="279" y="477" on="0"/>
        <pt x="178" y="356" on="0"/>
        <pt x="132" y="195" on="0"/>
        <pt x="132" y="117" on="1"/>
        <pt x="132" y="23" on="0"/>
        <pt x="219" y="23" on="1"/>
        <pt x="243" y="23" on="0"/>
        <pt x="301" y="54" on="0"/>
        <pt x="325" y="76" on="1"/>
        <pt x="374" y="121" on="0"/>
        <pt x="400" y="156" on="1"/>
        <pt x="412" y="172" on="1"/>
      </contour>
    </TTGlyph>
    <TTGlyph name="dagger" xMin="135" yMin="-78" xMax="523" yMax="698">
      <contour>
        <pt x="135" y="460" on="1"/>
        <pt x="144" y="498" on="1"/>
        <pt x="315" y="496" on="1"/>
        <pt x="363" y="698" on="1"/>
        <pt x="396" y="698" on="1"/>
        <pt x="350" y="498" on="1"/>
        <pt x="523" y="498" on="1"/>
        <pt x="513" y="460" on="1"/>
        <pt x="340" y="462" on="1"/>
        <pt x="213" y="-78" on="1"/>
        <pt x="180" y="-78" on="1"/>
        <pt x="306" y="460" on="1"/>
      </contour>
    </TTGlyph>
    <TTGlyph name="daggerdbl" xMin="81" yMin="-78" xMax="550" yMax="698">
      <contour>
        <pt x="207" y="-78" on="1"/>
        <pt x="254" y="122" on="1"/>
        <pt x="81" y="122" on="1"/>
        <pt x="89" y="158" on="1"/>
        <pt x="262" y="156" on="1"/>
        <pt x="333" y="460" on="1"/>
        <pt x="162" y="460" on="1"/>
        <pt x="171" y="498" on="1"/>
        <pt x="342" y="496" on="1"/>
        <pt x="390" y="698" on="1"/>
        <pt x="423" y="698" on="1"/>
        <pt x="377" y="498" on="1"/>
        <pt x="550" y="498" on="1"/>
        <pt x="540" y="460" on="1"/>
        <pt x="367" y="462" on="1"/>
        <pt x="296" y="158" on="1"/>
        <pt x="468" y="158" on="1"/>
        <pt x="459" y="122" on="1"/>
        <pt x="287" y="124" on="1"/>
        <pt x="240" y="-78" on="1"/>
      </contour>
    </TTGlyph>
</ttFont>
